<svg width="230" height="79" viewBox="0 0 230 79" fill="none" xmlns="http://www.w3.org/2000/svg">
<g clip-path="url(#clip0_706_322)">
<path d="M89.7323 71.0462C89.7323 73.2055 88.3651 74.7134 86.4077 74.7134C84.5731 74.7134 83.3033 73.2873 83.0111 70.8986C83.0068 70.8637 83.0176 70.8288 83.0408 70.8025C83.064 70.7761 83.0974 70.7611 83.1324 70.7611H85.251C85.3082 70.7611 85.3578 70.8009 85.3703 70.8568C85.5451 71.6346 85.8709 71.997 86.3955 71.997C86.9899 71.997 87.3447 71.605 87.3447 70.9486C87.3447 70.4482 87.1842 69.8516 86.4199 69.8516H85.2754C85.2077 69.8516 85.1531 69.7968 85.1531 69.7291V67.4202C85.1531 67.3525 85.2077 67.2977 85.2754 67.2977H86.4199C86.9381 67.2977 87.2474 66.9302 87.2474 66.3144C87.2474 65.7468 86.9177 65.38 86.4077 65.38C85.888 65.38 85.5622 65.7527 85.3825 66.5528C85.3699 66.6087 85.3204 66.6484 85.2632 66.6484H83.1446C83.1096 66.6484 83.0762 66.6333 83.0529 66.607C83.0298 66.5808 83.0189 66.5457 83.0232 66.511C83.3154 64.1221 84.5852 62.6959 86.4199 62.6959C88.2985 62.6959 89.6106 64.097 89.6106 66.103C89.6106 67.0501 89.2496 67.9335 88.6379 68.5005C89.326 69.0331 89.7323 69.9712 89.7323 71.0462ZM97.788 74.4611C97.798 74.498 97.7904 74.5374 97.7672 74.5678C97.744 74.5981 97.708 74.616 97.6699 74.616H95.4418C95.385 74.616 95.3357 74.5767 95.3227 74.5214L94.9429 72.8923H92.4691L92.066 74.5229C92.0525 74.5776 92.0035 74.616 91.9473 74.616H89.7191C89.681 74.616 89.6449 74.5981 89.6218 74.5678C89.5986 74.5374 89.591 74.498 89.601 74.4611L92.7546 62.8838C92.7692 62.8306 92.8174 62.7935 92.8727 62.7935H94.5163C94.5716 62.7935 94.6198 62.8306 94.6344 62.8838L97.788 74.4611ZM93.7454 67.8217L93.1271 70.2733H94.3252L93.7454 67.8217ZM104.83 62.7935H98.3038C98.2363 62.7935 98.1815 62.8484 98.1815 62.9161V74.4934C98.1815 74.5612 98.2363 74.616 98.3038 74.616H100.435C100.502 74.616 100.557 74.5612 100.557 74.4934V65.5752H102.577V74.4934C102.577 74.5612 102.632 74.616 102.699 74.616H104.83C104.898 74.616 104.952 74.5612 104.952 74.4934V62.9161C104.952 62.8484 104.898 62.7935 104.83 62.7935ZM111.516 64.0476C112.146 64.9236 112.415 66.0099 112.415 67.6803V69.1763C112.415 70.8374 112.349 72.2003 111.516 73.3617C110.882 74.2585 110.037 74.7134 109.006 74.7134C107.956 74.7134 107.127 74.2714 106.471 73.362C105.571 72.1094 105.571 70.5338 105.571 69.1438V68.2983C105.571 65.9945 105.782 65.0013 106.471 64.0475C107.105 63.151 107.95 62.6959 108.981 62.6959C110.031 62.6959 110.86 63.138 111.516 64.0476ZM108.246 71.4715C108.419 71.7596 108.698 71.9319 108.993 71.9319C109.289 71.9319 109.568 71.7596 109.741 71.471C109.962 71.0985 110.04 70.4553 110.04 69.0138V68.2169C110.04 67.0431 109.939 66.2703 109.739 65.9199C109.569 65.6355 109.304 65.4777 108.993 65.4777C108.683 65.4777 108.418 65.6355 108.246 65.9222C108.048 66.2701 107.947 67.043 107.947 68.2169V69.0138C107.947 70.4555 108.025 71.0986 108.246 71.4715ZM119.671 66.6396C119.671 68.8683 118.375 70.4858 116.59 70.4858H115.41V74.4934C115.41 74.5612 115.355 74.616 115.287 74.616H113.157C113.089 74.616 113.034 74.5612 113.034 74.4934V62.9161C113.034 62.8484 113.089 62.7935 113.157 62.7935H116.59C118.375 62.7935 119.671 64.4111 119.671 66.6396ZM115.41 67.688H116.493C116.958 67.688 117.296 67.2471 117.296 66.6396C117.296 66.0323 116.958 65.5914 116.493 65.5914H115.41V67.688ZM122.434 62.7935H120.303C120.236 62.7935 120.181 62.8484 120.181 62.9161V74.4934C120.181 74.5612 120.236 74.616 120.303 74.616H122.434C122.502 74.616 122.557 74.5612 122.557 74.4934V62.9161C122.557 62.8484 122.502 62.7935 122.434 62.7935ZM128.805 68.5005C129.416 67.9335 129.777 67.0501 129.777 66.103C129.777 64.097 128.465 62.6959 126.587 62.6959C124.752 62.6959 123.482 64.1221 123.19 66.511C123.186 66.5457 123.197 66.5808 123.22 66.607C123.243 66.6333 123.276 66.6484 123.311 66.6484H125.43C125.487 66.6484 125.537 66.6087 125.549 66.5528C125.729 65.7527 126.055 65.38 126.575 65.38C127.085 65.38 127.414 65.7468 127.414 66.3144C127.414 66.9302 127.105 67.2977 126.587 67.2977H125.442C125.375 67.2977 125.32 67.3525 125.32 67.4202V69.7291C125.32 69.7968 125.375 69.8516 125.442 69.8516H126.587C127.351 69.8516 127.512 70.4482 127.512 70.9486C127.512 71.605 127.157 71.997 126.562 71.997C126.038 71.997 125.712 71.6346 125.537 70.8568C125.525 70.8009 125.475 70.7611 125.418 70.7611H123.299C123.264 70.7611 123.231 70.7761 123.208 70.8025C123.184 70.8288 123.174 70.8637 123.178 70.8986C123.47 73.2873 124.74 74.7134 126.575 74.7134C128.532 74.7134 129.899 73.2055 129.899 71.0462C129.899 69.9712 129.493 69.0331 128.805 68.5005ZM137.277 70.7698C137.277 73.0343 136.035 74.616 134.257 74.616H130.763C130.695 74.616 130.64 74.5612 130.64 74.4934V62.9161C130.64 62.8484 130.695 62.7935 130.763 62.7935H132.893C132.961 62.7935 133.016 62.8484 133.016 62.9161V66.9237H134.257C136.035 66.9237 137.277 68.5053 137.277 70.7698ZM134.099 69.7216H133.016V71.8343H134.099C134.557 71.8343 134.902 71.3767 134.902 70.7698C134.902 70.1624 134.564 69.7216 134.099 69.7216ZM142.526 68.2992L145.058 62.9687C145.076 62.9308 145.074 62.8862 145.051 62.8506C145.029 62.8151 144.99 62.7935 144.948 62.7935H142.5C142.451 62.7935 142.407 62.8229 142.388 62.8679L140.285 67.7972V62.9161C140.285 62.8484 140.23 62.7935 140.163 62.7935H138.032C137.964 62.7935 137.909 62.8484 137.909 62.9161V74.4934C137.909 74.5612 137.964 74.616 138.032 74.616H140.163C140.23 74.616 140.285 74.5612 140.285 74.4934V69.0335L142.607 74.5411C142.626 74.5865 142.67 74.616 142.72 74.616H145.228C145.27 74.616 145.308 74.5947 145.331 74.5597C145.353 74.5244 145.356 74.4803 145.339 74.4424L142.526 68.2992ZM153.789 74.4611C153.799 74.498 153.791 74.5374 153.768 74.5678C153.745 74.5981 153.709 74.616 153.671 74.616H151.442C151.386 74.616 151.336 74.5767 151.323 74.5214L150.944 72.8923H148.47L148.067 74.5229C148.053 74.5776 148.004 74.616 147.948 74.616H145.72C145.682 74.616 145.646 74.5981 145.622 74.5678C145.599 74.5374 145.592 74.498 145.602 74.4611L148.755 62.8838C148.77 62.8306 148.818 62.7935 148.873 62.7935H150.517C150.572 62.7935 150.62 62.8306 150.635 62.8838L153.789 74.4611ZM149.746 67.8217L149.128 70.2733H150.326L149.746 67.8217ZM162.924 62.7935H156.397C156.33 62.7935 156.275 62.8484 156.275 62.9161V74.4934C156.275 74.5612 156.33 74.616 156.397 74.616H158.528C158.596 74.616 158.651 74.5612 158.651 74.4934V65.5752H160.671V74.4934C160.671 74.5612 160.725 74.616 160.793 74.616H162.924C162.991 74.616 163.046 74.5612 163.046 74.4934V62.9161C163.046 62.8484 162.991 62.7935 162.924 62.7935ZM169.609 64.0476C170.24 64.9235 170.509 66.0099 170.509 67.6803V69.1763C170.509 70.8375 170.443 72.2003 169.609 73.3617C168.975 74.2585 168.13 74.7134 167.099 74.7134C166.049 74.7134 165.22 74.2714 164.565 73.3619C163.665 72.1094 163.665 70.5338 163.665 69.1438V68.2983C163.665 65.9945 163.875 65.0013 164.565 64.0475C165.199 63.151 166.043 62.6959 167.075 62.6959C168.124 62.6959 168.953 63.138 169.609 64.0476ZM166.34 71.4715C166.512 71.7596 166.792 71.9319 167.087 71.9319C167.382 71.9319 167.661 71.7596 167.834 71.471C168.055 71.0985 168.133 70.4553 168.133 69.0138V68.2169C168.133 67.0431 168.032 66.2703 167.833 65.9199C167.663 65.6355 167.397 65.4777 167.087 65.4777C166.777 65.4777 166.511 65.6355 166.339 65.9222C166.141 66.2703 166.04 67.0431 166.04 68.2169V69.0138C166.04 70.4553 166.119 71.0985 166.34 71.4715ZM177.974 62.7935H172.275C172.208 62.7935 172.153 62.8484 172.153 62.9161V68.4771C172.153 71.5749 171.556 71.8343 170.997 71.8343H170.741C170.674 71.8343 170.619 71.8892 170.619 71.9568V74.4934C170.619 74.5612 170.674 74.616 170.741 74.616H171.557C173.393 74.616 174.456 73.6115 174.456 68.4771V65.5752H175.721V74.4934C175.721 74.5612 175.775 74.616 175.843 74.616H177.974C178.041 74.616 178.096 74.5612 178.096 74.4934V62.9161C178.096 62.8484 178.041 62.7935 177.974 62.7935ZM181.003 62.7935H178.872C178.805 62.7935 178.75 62.8484 178.75 62.9161V74.4934C178.75 74.5612 178.805 74.616 178.872 74.616H181.003C181.071 74.616 181.126 74.5612 181.126 74.4934V62.9161C181.126 62.8484 181.071 62.7935 181.003 62.7935ZM188.272 62.7935H181.88C181.812 62.7935 181.757 62.8484 181.757 62.9161V65.4526C181.757 65.5203 181.812 65.5752 181.88 65.5752H183.888V74.4934C183.888 74.5612 183.943 74.616 184.011 74.616H186.141C186.209 74.616 186.264 74.5612 186.264 74.4934V65.5752H188.272C188.34 65.5752 188.395 65.5203 188.395 65.4526V62.9161C188.395 62.8484 188.34 62.7935 188.272 62.7935ZM195.042 62.7935H189.149C189.081 62.7935 189.027 62.8484 189.027 62.9161V74.4934C189.027 74.5612 189.081 74.616 189.149 74.616H195.042C195.11 74.616 195.164 74.5612 195.164 74.4934V71.9568C195.164 71.8892 195.11 71.8343 195.042 71.8343H191.402V70.0467H194.494C194.562 70.0467 194.616 69.9919 194.616 69.9242V67.3877C194.616 67.32 194.562 67.2651 194.494 67.2651H191.402V65.5752H195.042C195.11 65.5752 195.164 65.5203 195.164 65.4526V62.9161C195.164 62.8484 195.11 62.7935 195.042 62.7935ZM200.583 68.558L203.093 62.9663C203.11 62.9284 203.107 62.8844 203.084 62.8495C203.062 62.8146 203.023 62.7935 202.982 62.7935H200.558C200.508 62.7935 200.463 62.8246 200.444 62.8718L199.292 65.8457L198.14 62.8718C198.122 62.8246 198.076 62.7935 198.026 62.7935H195.603C195.561 62.7935 195.523 62.8146 195.5 62.8495C195.478 62.8844 195.474 62.9284 195.491 62.9663L198.001 68.558L195.321 74.4426C195.304 74.4805 195.307 74.5247 195.33 74.5597C195.352 74.5947 195.391 74.616 195.432 74.616H197.867C197.918 74.616 197.962 74.5854 197.981 74.539L199.292 71.2618L200.603 74.539C200.622 74.5854 200.667 74.616 200.717 74.616H203.152C203.193 74.616 203.232 74.5947 203.255 74.5597C203.277 74.5247 203.28 74.4805 203.263 74.4426L200.583 68.558ZM210.19 62.7935H208.059C207.991 62.7935 207.937 62.8484 207.937 62.9161V67.2489H205.917V62.9161C205.917 62.8484 205.862 62.7935 205.794 62.7935H203.663C203.596 62.7935 203.541 62.8484 203.541 62.9161V74.4934C203.541 74.5612 203.596 74.616 203.663 74.616H205.794C205.862 74.616 205.917 74.5612 205.917 74.4934V70.0304H207.937V74.4934C207.937 74.5612 207.991 74.616 208.059 74.616H210.19C210.257 74.616 210.312 74.5612 210.312 74.4934V62.9161C210.312 62.8484 210.257 62.7935 210.19 62.7935ZM213.193 62.82H211.062C210.994 62.82 210.94 62.8748 210.94 62.9425V74.5199C210.94 74.5876 210.994 74.6424 211.062 74.6424H213.193C213.261 74.6424 213.315 74.5876 213.315 74.5199V62.9425C213.315 62.8748 213.261 62.82 213.193 62.82ZM218.543 68.3257L221.076 62.9952C221.094 62.9572 221.091 62.9126 221.069 62.8771C221.046 62.8415 221.007 62.82 220.965 62.82H218.518C218.469 62.82 218.425 62.8493 218.405 62.8944L216.303 67.8236V62.9425C216.303 62.8748 216.248 62.82 216.18 62.82H214.049C213.982 62.82 213.927 62.8748 213.927 62.9425V74.5199C213.927 74.5876 213.982 74.6424 214.049 74.6424H216.18C216.248 74.6424 216.303 74.5876 216.303 74.5199V69.0599L218.624 74.5675C218.643 74.613 218.688 74.6424 218.737 74.6424H221.245C221.287 74.6424 221.326 74.6211 221.348 74.5861C221.371 74.5508 221.374 74.5067 221.357 74.4688L218.543 68.3257ZM229.807 74.5678C229.784 74.5981 229.748 74.616 229.71 74.616H227.481C227.425 74.616 227.375 74.5767 227.362 74.5214L226.983 72.8923H224.509L224.106 74.5229C224.092 74.5776 224.043 74.616 223.987 74.616H221.759C221.721 74.616 221.685 74.5981 221.661 74.5678C221.638 74.5374 221.631 74.498 221.641 74.4611L224.794 62.8838C224.809 62.8306 224.857 62.7935 224.912 62.7935H226.556C226.611 62.7935 226.66 62.8306 226.674 62.8838L229.828 74.4611C229.838 74.498 229.83 74.5374 229.807 74.5678ZM225.785 67.8217L225.167 70.2733H226.365L225.785 67.8217Z" fill="white"/>
<path d="M206.753 49.3265H89.3499C89.2207 49.3265 89.116 49.2217 89.116 49.0925V48.31C89.116 48.1808 89.2207 48.076 89.3499 48.076H206.753C206.883 48.076 206.987 48.1808 206.987 48.31V49.0925C206.987 49.2217 206.883 49.3265 206.753 49.3265ZM206.987 53.544V52.2613C206.987 52.1321 206.883 52.0273 206.753 52.0273H86.8157C86.6865 52.0273 86.5818 52.1321 86.5818 52.2613V53.544C86.5818 53.6732 86.6865 53.7779 86.8157 53.7779H206.753C206.883 53.7779 206.987 53.6732 206.987 53.544ZM206.987 58.554V56.5211C206.987 56.3918 206.883 56.2871 206.753 56.2871H83.2441C83.1149 56.2871 83.0101 56.3918 83.0101 56.5211V58.554C83.0101 58.6832 83.1149 58.788 83.2441 58.788H206.753C206.883 58.788 206.987 58.6832 206.987 58.554Z" fill="#D25613"/>
<path d="M99.4654 11.7964V43.724C99.4654 43.8547 99.3594 43.9607 99.2287 43.9607H92.0426C91.912 43.9607 91.806 43.8547 91.806 43.724V11.7964C91.806 11.6657 91.7 11.5597 91.5693 11.5597H81.7933C81.6626 11.5597 81.5566 11.4538 81.5566 11.323V4.9635C81.5566 4.83278 81.6626 4.72683 81.7933 4.72683H109.478C109.609 4.72683 109.715 4.83278 109.715 4.9635V11.323C109.715 11.4538 109.609 11.5597 109.478 11.5597H99.702C99.5713 11.5597 99.4654 11.6657 99.4654 11.7964ZM140.661 4.86097L131.993 22.8999C131.907 23.0786 131.653 23.0788 131.567 22.9004L122.851 4.86052C122.812 4.77876 122.729 4.72683 122.638 4.72683H115.474C115.343 4.72683 115.237 4.83278 115.237 4.9635V43.724C115.237 43.8547 115.343 43.9607 115.474 43.9607H122.66C122.791 43.9607 122.897 43.8547 122.897 43.724V22.0822C122.897 21.8332 123.232 21.7531 123.345 21.9752L130.38 35.8411C130.421 35.9206 130.502 35.9707 130.591 35.9707H132.976C133.065 35.9707 133.147 35.9203 133.187 35.8405L140.167 21.9823C140.28 21.7596 140.615 21.8393 140.615 22.0887V43.724C140.615 43.8547 140.721 43.9607 140.852 43.9607H148.038C148.169 43.9607 148.275 43.8547 148.275 43.724V4.9635C148.275 4.83278 148.169 4.72683 148.038 4.72683H140.874C140.783 4.72683 140.7 4.77898 140.661 4.86097ZM170.06 43.9996V39.775C170.06 39.65 169.961 39.5474 169.836 39.54C158.537 38.8693 153.914 32.9837 153.914 22.8561C153.914 12.7865 159.186 7.49978 169.838 6.78C169.962 6.77162 170.06 6.66945 170.06 6.54525V3.08994C170.06 2.95925 170.166 2.85327 170.296 2.85327H177.427C177.558 2.85327 177.664 2.95925 177.664 3.08994V6.54516C177.664 6.66943 177.762 6.77159 177.886 6.77991C188.592 7.49945 193.81 12.7862 193.81 22.8561C193.81 32.984 189.241 38.8696 177.888 39.5401C177.763 39.5474 177.664 39.65 177.664 39.7751V43.9996C177.664 44.1303 177.558 44.2363 177.427 44.2363H170.296C170.166 44.2363 170.06 44.1303 170.06 43.9996ZM170.17 13.5732C170.17 13.4374 170.054 13.3279 169.918 13.3356C163.773 13.6831 161.574 16.8256 161.574 23.1866C161.574 29.3273 163.878 32.6813 169.914 33.1428C170.051 33.1532 170.17 33.0431 170.17 32.9054V13.5732ZM177.609 32.9054C177.609 33.0431 177.728 33.1532 177.865 33.1428C183.901 32.6813 186.205 29.3273 186.205 23.1866C186.205 16.8256 184.006 13.6831 177.861 13.3356C177.725 13.3279 177.609 13.4374 177.609 13.5732V32.9054ZM229.95 43.5889L215.812 23.2686C215.755 23.1865 215.756 23.0772 215.814 22.9957L228.619 5.1012C228.731 4.94457 228.619 4.72683 228.426 4.72683H219.865C219.786 4.72683 219.713 4.76557 219.669 4.83033L209.684 19.504C209.64 19.5688 209.567 19.6075 209.488 19.6075H207.231C207.101 19.6075 206.995 19.5016 206.995 19.3709V4.9635C206.995 4.83278 206.889 4.72682 206.758 4.72682H199.572C199.441 4.72682 199.335 4.83278 199.335 4.9635V43.724C199.335 43.8547 199.441 43.9607 199.572 43.9607H206.758C206.889 43.9607 206.995 43.8547 206.995 43.724V27.5036C206.995 27.3729 207.101 27.2669 207.231 27.2669H209.496C209.575 27.2669 209.649 27.3062 209.693 27.3716L220.771 43.856C220.815 43.9215 220.889 43.9607 220.967 43.9607H229.756C229.947 43.9607 230.06 43.7458 229.95 43.5889Z" fill="white"/>
<path d="M210.756 49.8627L209.658 50.6704C209.58 50.7278 209.469 50.6721 209.469 50.5753V49.307C209.469 49.2695 209.487 49.2341 209.518 49.2119L210.913 48.1856C210.933 48.1707 210.958 48.1626 210.983 48.1626H212.301C212.366 48.1626 212.419 48.2155 212.419 48.2808V58.3396C212.419 58.4049 212.366 58.4578 212.301 58.4578H211.063C210.997 58.4578 210.944 58.4049 210.944 58.3396V49.9579C210.944 49.8611 210.834 49.8054 210.756 49.8627ZM216.262 54.1345L216.233 54.1055C216.185 54.1441 216.11 54.1756 216.009 54.1995C215.908 54.2238 215.775 54.2358 215.611 54.2358C215.351 54.2358 215.11 54.1732 214.888 54.0477C214.666 53.9225 214.493 53.7634 214.368 53.5705C214.3 53.4743 214.247 53.3707 214.209 53.2596C214.17 53.149 214.139 53.0065 214.115 52.8331C214.091 52.6596 214.074 52.4403 214.064 52.1753C214.054 51.9102 214.05 51.5753 214.05 51.1703C214.05 50.833 214.054 50.5556 214.064 50.3388C214.074 50.1219 214.091 49.9389 214.115 49.7894C214.139 49.64 214.173 49.5123 214.216 49.4063C214.259 49.3003 214.315 49.1894 214.382 49.0735C214.575 48.7554 214.833 48.5098 215.156 48.3364C215.479 48.1626 215.843 48.076 216.248 48.076C216.652 48.076 217.014 48.1653 217.332 48.3435C217.65 48.522 217.905 48.7653 218.098 49.0735C218.166 49.1894 218.223 49.3003 218.272 49.4063C218.32 49.5123 218.356 49.64 218.38 49.7894C218.404 49.9389 218.421 50.1219 218.431 50.3388C218.44 50.5556 218.445 50.833 218.445 51.1703C218.445 51.4884 218.44 51.7511 218.431 51.9584C218.421 52.1657 218.404 52.3439 218.38 52.4934C218.356 52.6428 218.327 52.7776 218.294 52.8981C218.26 53.0187 218.219 53.1464 218.171 53.2814L216.262 58.3811C216.244 58.4272 216.2 58.4578 216.151 58.4578H214.757C214.674 58.4578 214.617 58.3744 214.647 58.2969L216.262 54.1345ZM215.525 52.1968C215.525 52.4188 215.597 52.597 215.741 52.7318C215.886 52.8669 216.055 52.9343 216.248 52.9343C216.44 52.9343 216.609 52.8669 216.754 52.7318C216.898 52.597 216.97 52.4188 216.97 52.1968V50.2882C216.97 50.0665 216.898 49.8883 216.754 49.7532C216.609 49.6184 216.44 49.5507 216.248 49.5507C216.055 49.5507 215.886 49.6184 215.741 49.7532C215.597 49.8883 215.525 50.0665 215.525 50.2882V52.1968ZM221.431 52.6169C221.431 52.5525 221.485 52.501 221.549 52.4995C221.929 52.4908 222.196 52.4384 222.349 52.3418C222.518 52.2358 222.602 51.9901 222.602 51.6043V50.2741C222.602 50.0623 222.537 49.8886 222.407 49.7535C222.277 49.6187 222.101 49.551 221.88 49.551C221.619 49.551 221.434 49.6331 221.323 49.7969C221.212 49.961 221.156 50.1201 221.156 50.2741V50.9946C221.156 51.0599 221.104 51.1128 221.038 51.1128H219.8C219.734 51.1128 219.682 51.0599 219.682 50.9946V50.2597C219.682 49.961 219.739 49.6765 219.855 49.4066C219.971 49.1367 220.13 48.9055 220.332 48.7126C220.535 48.5197 220.771 48.3654 221.041 48.2498C221.31 48.1342 221.6 48.0764 221.908 48.0764C222.313 48.0764 222.648 48.1557 222.913 48.3148C223.178 48.4739 223.378 48.6356 223.513 48.7992C223.61 48.9148 223.694 49.0331 223.766 49.1535C223.839 49.2742 223.897 49.4138 223.94 49.5729C223.983 49.7319 224.017 49.9248 224.041 50.1513C224.065 50.3777 224.077 50.6551 224.077 50.9825C224.077 51.3393 224.07 51.6286 224.056 51.8503C224.041 52.0719 224.002 52.2576 223.94 52.4068C223.877 52.5566 223.786 52.6842 223.665 52.7899C223.576 52.8687 223.461 52.9526 223.322 53.0417C223.25 53.0874 223.253 53.1912 223.323 53.2391C223.479 53.3457 223.602 53.4467 223.694 53.5421C223.815 53.6673 223.904 53.8143 223.962 53.983C224.019 54.1516 224.053 54.3541 224.063 54.5902C224.072 54.8265 224.077 55.1278 224.077 55.4939C224.077 55.8314 224.07 56.1109 224.056 56.3326C224.041 56.5545 224.019 56.7399 223.99 56.8891C223.962 57.0389 223.923 57.1665 223.875 57.2725C223.827 57.3786 223.764 57.4894 223.687 57.605C223.504 57.8749 223.268 58.0992 222.978 58.2775C222.689 58.456 222.318 58.545 221.865 58.545C221.634 58.545 221.388 58.5063 221.127 58.4291C220.867 58.3521 220.631 58.2269 220.419 58.0531C220.207 57.8797 220.031 57.6532 219.891 57.3738C219.751 57.0943 219.682 56.7519 219.682 56.347V55.6267C219.682 55.5614 219.734 55.5085 219.8 55.5085H221.038C221.104 55.5085 221.156 55.5614 221.156 55.6267V56.2748C221.156 56.506 221.221 56.6965 221.352 56.846C221.482 56.9954 221.658 57.07 221.88 57.07C222.101 57.07 222.277 56.9954 222.407 56.846C222.537 56.6965 222.602 56.4967 222.602 56.2457V54.7711C222.602 54.5686 222.586 54.4047 222.552 54.2793C222.518 54.1543 222.458 54.0552 222.371 53.983C222.284 53.9105 222.166 53.8626 222.017 53.8383C221.893 53.8184 221.737 53.8065 221.55 53.8031C221.485 53.8019 221.431 53.7501 221.431 53.6855V52.6169ZM225.582 50.2882C225.582 49.9413 225.643 49.6328 225.763 49.3629C225.884 49.093 226.045 48.8617 226.248 48.6688C226.45 48.4762 226.684 48.3289 226.949 48.2279C227.214 48.1267 227.491 48.076 227.78 48.076C228.069 48.076 228.347 48.1267 228.612 48.2279C228.877 48.3289 229.111 48.4762 229.313 48.6688C229.515 48.8617 229.677 49.093 229.797 49.3629C229.918 49.6328 229.978 49.9413 229.978 50.2882V56.3323C229.978 56.6794 229.918 56.9879 229.797 57.2576C229.677 57.5277 229.515 57.759 229.313 57.9516C229.111 58.1447 228.877 58.2915 228.612 58.3928C228.347 58.494 228.069 58.5447 227.78 58.5447C227.491 58.5447 227.214 58.494 226.949 58.3928C226.684 58.2915 226.45 58.1447 226.248 57.9516C226.045 57.759 225.884 57.5277 225.763 57.2576C225.643 56.9879 225.582 56.6794 225.582 56.3323V50.2882ZM227.057 56.3323C227.057 56.5443 227.125 56.7205 227.26 56.8601C227.395 56.9999 227.568 57.0697 227.78 57.0697C227.992 57.0697 228.166 56.9999 228.301 56.8601C228.436 56.7205 228.503 56.5443 228.503 56.3323V50.2882C228.503 50.0764 228.436 49.9003 228.301 49.7604C228.166 49.6208 227.992 49.5507 227.78 49.5507C227.568 49.5507 227.395 49.6208 227.26 49.7604C227.125 49.9003 227.057 50.0764 227.057 50.2882V56.3323Z" fill="#D25613"/>
<path d="M78.717 37.3704C78.6701 36.4639 78.0029 35.7383 77.1186 35.5332C75.6588 35.1946 74.4588 34.0347 74.1473 32.469C73.8359 30.9033 74.5007 29.3725 75.7199 28.501C76.4583 27.9732 76.7971 27.0475 76.4935 26.192C76.0404 24.9151 75.5247 23.6732 74.9518 22.4684C74.5768 21.6799 73.7217 21.2067 72.864 21.3702C71.3587 21.6572 69.7603 21.0473 68.8551 19.6927C67.9684 18.3656 67.9966 16.6973 68.789 15.4257C69.2698 14.6542 69.2294 13.6683 68.6197 12.9941C67.7144 11.9929 66.7599 11.0408 65.7609 10.141C65.1121 9.55671 64.1409 9.44706 63.4112 9.92648C62.1327 10.7664 60.4293 10.8179 59.0765 9.91403C57.7238 9.01013 57.1195 7.41676 57.4062 5.9141C57.5699 5.05645 57.097 4.20118 56.3088 3.82539C55.0952 3.24672 53.8504 2.72926 52.579 2.27594C51.7227 1.97067 50.7964 2.31067 50.2676 3.05007C49.3961 4.26879 47.8656 4.93327 46.3001 4.62188C44.7022 4.30402 43.5271 3.06071 43.2161 1.56014C43.039 0.705207 42.2746 0.0963041 41.4026 0.0515944C40.0703 -0.016679 38.7256 -0.0179017 37.3725 0.0521501C36.466 0.0991106 35.7404 0.766311 35.5353 1.65056C35.1967 3.11045 34.0368 4.31044 32.4711 4.62188C30.9054 4.93332 29.3746 4.26854 28.5031 3.04934C27.9752 2.3109 27.0496 1.97214 26.1941 2.27569C24.9171 2.72879 23.6753 3.24447 22.4705 3.81744C21.682 4.1924 21.2088 5.04753 21.3723 5.90515C21.6593 7.41048 21.0494 9.00888 19.6947 9.91403C18.3676 10.8008 16.6994 10.7726 15.4278 9.98016C14.6562 9.49939 13.6704 9.53973 12.9962 10.1494C11.995 11.0548 11.0429 12.0093 10.1431 13.0083C9.55878 13.6571 9.44913 14.6283 9.92855 15.358C10.7685 16.6365 10.82 18.3399 9.9161 19.6927C9.01221 21.0454 7.41883 21.6497 5.91617 21.3629C5.05852 21.1993 4.20325 21.6722 3.82749 22.4604C3.24879 23.674 2.73133 24.9188 2.27801 26.1902C1.97274 27.0465 2.31275 27.9728 3.05214 28.5016C4.27086 29.3731 4.93534 30.9036 4.62395 32.4691C4.30609 34.067 3.06278 35.2421 1.56221 35.553C0.707279 35.7302 0.0983759 36.4946 0.0536661 37.3665C-0.0146073 38.6989 -0.01583 40.0436 0.0542496 41.3967C0.101182 42.3032 0.768383 43.0288 1.65263 43.2339C3.11252 43.5725 4.31254 44.7324 4.62395 46.2981C4.93539 47.8638 4.27061 49.3946 3.05141 50.2661C2.31297 50.794 1.97421 51.7196 2.27776 52.5751C2.73086 53.8521 3.24654 55.0939 3.81951 56.2987C4.19447 57.0872 5.0496 57.5604 5.90723 57.3969C7.41255 57.1099 9.01096 57.7198 9.9161 59.0745C10.8028 60.4016 10.7746 62.0698 9.98223 63.3414C9.50146 64.1129 9.54183 65.0988 10.1515 65.773C11.0569 66.7742 12.0113 67.7263 13.0104 68.6261C13.6592 69.2104 14.6303 69.3201 15.3601 68.8406C16.6386 68.0007 18.342 67.9492 19.6947 68.8531C21.0475 69.757 21.6518 71.3504 21.365 72.853C21.2014 73.7107 21.6743 74.5659 22.4624 74.9417C23.6761 75.5204 24.9209 76.0379 26.1923 76.4912C27.0485 76.7965 27.9748 76.4565 28.5036 75.717C29.3752 74.4983 30.9057 73.8338 32.4711 74.1452C34.069 74.4631 35.2442 75.7064 35.5551 77.207C35.7322 78.0619 36.4967 78.6709 37.3686 78.7155C38.701 78.7838 40.0457 78.785 41.3988 78.715C42.3053 78.668 43.0309 78.0008 43.236 77.1166C43.5746 75.6567 44.7345 74.4567 46.3002 74.1452C47.8659 73.8338 49.3967 74.4986 50.2682 75.7178C50.796 76.4562 51.7217 76.795 52.5772 76.4914C53.8541 76.0383 55.096 75.5227 56.3008 74.9497C57.0893 74.5747 57.5625 73.7196 57.399 72.8619C57.112 71.3566 57.7219 69.7582 59.0765 68.8531C60.4037 67.9663 62.0719 67.9945 63.3435 68.787C64.115 69.2677 65.1009 69.2274 65.7751 68.6177C66.7763 67.7123 67.7284 66.7578 68.6281 65.7588C69.2125 65.11 69.3221 64.1389 68.8427 63.4091C68.0028 62.1306 67.9513 60.4272 68.8552 59.0745C69.7591 57.7217 71.3524 57.1174 72.8551 57.4042C73.7128 57.5678 74.568 57.0949 74.9438 56.3067C75.5225 55.0931 76.0399 53.8483 76.4933 52.5769C76.7985 51.7206 76.4585 50.7944 75.7191 50.2656C74.5004 49.394 73.8359 47.8635 74.1473 46.2981C74.4651 44.7002 75.7085 43.525 77.2091 43.2141C78.064 43.037 78.6729 42.2725 78.7176 41.4006C78.7859 40.0682 78.7871 38.7235 78.717 37.3704ZM70.5577 42.1072C70.7632 42.1439 70.9111 42.3272 70.8906 42.535C70.8257 43.1939 70.7411 43.847 70.6364 44.4934C70.6029 44.7001 70.4121 44.8389 70.2034 44.8208C68.8907 44.7073 67.6459 45.5443 67.293 46.8613C66.9397 48.1797 67.6009 49.5282 68.7967 50.0853C68.9866 50.1737 69.0826 50.3898 69.0084 50.5857C68.7744 51.2033 68.5211 51.8113 68.2503 52.4097C68.1649 52.5984 67.9471 52.6853 67.7526 52.6142C66.5124 52.1607 65.0896 52.6465 64.4067 53.8294C63.7254 55.0095 64.013 56.4804 65.0199 57.3286C65.1799 57.4634 65.2164 57.6964 65.0941 57.8662C64.7088 58.4011 64.3071 58.9234 63.89 59.4326C63.7589 59.5926 63.5263 59.6204 63.3568 59.5019C62.2766 58.7466 60.7796 58.8487 59.8152 59.8131C58.8508 60.7776 58.7487 62.2745 59.504 63.3547C59.6225 63.5242 59.5947 63.7568 59.4347 63.8879C58.9255 64.3051 58.4032 64.7067 57.8683 65.0921C57.6985 65.2143 57.4655 65.1779 57.3307 65.0178C56.4825 64.0109 55.0116 63.7233 53.8315 64.4046C52.6486 65.0876 52.1628 66.5103 52.6162 67.7505C52.6874 67.945 52.6005 68.1628 52.4118 68.2482C51.8134 68.519 51.2053 68.7723 50.5877 69.0063C50.3919 69.0805 50.1758 68.9845 50.0873 68.7946C49.5302 67.5988 48.1817 66.9376 46.8634 67.2909C45.5463 67.6438 44.7094 68.8886 44.8229 70.2014C44.8409 70.41 44.7022 70.6009 44.4954 70.6343C43.849 70.739 43.196 70.8236 42.5371 70.8885C42.3293 70.909 42.146 70.7612 42.1093 70.5557C41.878 69.2597 40.7482 68.2754 39.3856 68.2754C38.0231 68.2754 36.8933 69.2597 36.662 70.5557C36.6253 70.7612 36.442 70.909 36.2342 70.8885C35.5753 70.8236 34.9222 70.739 34.2758 70.6343C34.0691 70.6009 33.9303 70.41 33.9484 70.2014C34.0619 68.8886 33.2249 67.6438 31.9079 67.2909C30.5895 66.9376 29.241 67.5988 28.6839 68.7946C28.5955 68.9845 28.3794 69.0805 28.1835 69.0063C27.5659 68.7723 26.9579 68.519 26.3595 68.2482C26.1708 68.1628 26.0839 67.945 26.155 67.7505C26.6085 66.5103 26.1227 65.0876 24.9397 64.4046C23.7597 63.7233 22.2888 64.0109 21.4406 65.0178C21.3058 65.1779 21.0727 65.2143 20.903 65.0921C20.3681 64.7067 19.8458 64.3051 19.3366 63.8879C19.1766 63.7568 19.1487 63.5242 19.2673 63.3547C20.0226 62.2745 19.9205 60.7776 18.9561 59.8131C17.9916 58.8487 16.4947 58.7466 15.4145 59.5019C15.245 59.6204 15.0124 59.5926 14.8813 59.4326C14.4641 58.9234 14.0625 58.4011 13.6771 57.8662C13.5549 57.6964 13.5913 57.4634 13.7513 57.3286C14.7583 56.4804 15.0459 55.0095 14.3646 53.8294C13.6816 52.6465 12.2589 52.1607 11.0187 52.6142C10.8242 52.6853 10.6064 52.5984 10.521 52.4097C10.2502 51.8113 9.99688 51.2033 9.76288 50.5857C9.68866 50.3898 9.78469 50.1737 9.97459 50.0853C11.1704 49.5282 11.8316 48.1796 11.4783 46.8613C11.1254 45.5443 9.88059 44.7073 8.56783 44.8208C8.3592 44.8389 8.16836 44.7001 8.13491 44.4934C8.03023 43.847 7.94559 43.1939 7.88068 42.535C7.86023 42.3272 8.00803 42.1439 8.21354 42.1072C9.50949 41.8759 10.4938 40.7461 10.4938 39.3836C10.4938 38.021 9.50949 36.8912 8.21354 36.6599C8.00803 36.6232 7.86023 36.4399 7.88068 36.2321C7.94559 35.5732 8.0302 34.9201 8.13488 34.2737C8.16836 34.067 8.35918 33.9282 8.56783 33.9463C9.88059 34.0598 11.1254 33.2229 11.4783 31.9058C11.8316 30.5875 11.1704 29.2389 9.97459 28.6819C9.78469 28.5934 9.68866 28.3773 9.76288 28.1814C9.99685 27.5638 10.2502 26.9558 10.521 26.3574C10.6064 26.1687 10.8242 26.0818 11.0187 26.1529C12.2589 26.6064 13.6816 26.1206 14.3646 24.9377C15.0459 23.7576 14.7583 22.2867 13.7513 21.4385C13.5913 21.3037 13.5549 21.0707 13.6771 20.9009C14.0625 20.366 14.4641 19.8437 14.8813 19.3345C15.0124 19.1745 15.245 19.1467 15.4145 19.2652C16.4947 20.0205 17.9916 19.9184 18.9561 18.954C19.9205 17.9895 20.0226 16.4926 19.2673 15.4124C19.1487 15.2429 19.1766 15.0103 19.3366 14.8792C19.8458 14.4621 20.3681 14.0604 20.903 13.6751C21.0727 13.5528 21.3058 13.5893 21.4406 13.7493C22.2888 14.7562 23.7597 15.0439 24.9397 14.3626C26.1227 13.6796 26.6085 12.2568 26.155 11.0166C26.0839 10.8221 26.1708 10.6043 26.3595 10.5189C26.9579 10.2481 27.5659 9.9948 28.1835 9.76081C28.3794 9.68659 28.5955 9.78262 28.6839 9.97252C29.241 11.1683 30.5895 11.8295 31.9079 11.4762C33.2249 11.1233 34.0619 9.87849 33.9484 8.56573C33.9303 8.35711 34.0691 8.16626 34.2758 8.13281C34.9222 8.02813 35.5753 7.94349 36.2342 7.87861C36.442 7.85813 36.6253 8.00596 36.662 8.21147C36.8933 9.50742 38.0231 10.4918 39.3856 10.4918C40.7482 10.4918 41.878 9.50742 42.1093 8.21147C42.146 8.00596 42.3293 7.85813 42.5371 7.87861C43.196 7.94349 43.849 8.02813 44.4954 8.13281C44.7022 8.16626 44.8409 8.35711 44.8229 8.56573C44.7094 9.87849 45.5463 11.1233 46.8634 11.4762C48.1817 11.8295 49.5303 11.1683 50.0873 9.97252C50.1758 9.78262 50.3919 9.68659 50.5877 9.76081C51.2053 9.9948 51.8134 10.2481 52.4118 10.5189C52.6005 10.6043 52.6874 10.8221 52.6162 11.0166C52.1628 12.2568 52.6486 13.6796 53.8315 14.3626C55.0116 15.0439 56.4825 14.7562 57.3307 13.7493C57.4655 13.5893 57.6985 13.5528 57.8683 13.6751C58.4032 14.0604 58.9255 14.4621 59.4347 14.8792C59.5947 15.0103 59.6225 15.2429 59.504 15.4124C58.7487 16.4926 58.8508 17.9895 59.8152 18.954C60.7796 19.9184 62.2766 20.0205 63.3568 19.2652C63.5263 19.1467 63.7589 19.1745 63.89 19.3345C64.3071 19.8437 64.7088 20.366 65.0941 20.9009C65.2164 21.0707 65.1799 21.3037 65.0199 21.4385C64.013 22.2867 63.7254 23.7576 64.4067 24.9377C65.0896 26.1206 66.5124 26.6064 67.7526 26.1529C67.947 26.0818 68.1649 26.1687 68.2503 26.3574C68.5211 26.9558 68.7744 27.5638 69.0084 28.1814C69.0826 28.3773 68.9866 28.5934 68.7967 28.6818C67.6009 29.2389 66.9397 30.5875 67.293 31.9058C67.6459 33.2229 68.8907 34.0598 70.2035 33.9463C70.4121 33.9282 70.6029 34.067 70.6364 34.2737C70.7411 34.9201 70.8257 35.5732 70.8906 36.2321C70.9111 36.4399 70.7632 36.6232 70.5577 36.6599C69.2618 36.8912 68.2774 38.021 68.2774 39.3836C68.2774 40.7461 69.2618 41.8759 70.5577 42.1072Z" fill="#D25613"/>
<path d="M70.7039 41.2866C69.7809 41.1219 69.1109 40.3216 69.1109 39.3835C69.1109 38.4457 69.7809 37.6453 70.7038 37.4806C71.3361 37.3679 71.7826 36.7835 71.72 36.1503C71.6533 35.4732 71.5654 34.797 71.4591 34.1407C71.3628 33.5441 70.8499 33.111 70.2396 33.111C70.2038 33.111 70.1677 33.1127 70.1313 33.1158C70.0758 33.1205 70.0203 33.123 69.9653 33.123C69.0919 33.123 68.3241 32.5337 68.098 31.6901C67.8546 30.7818 68.2964 29.8345 69.1485 29.4376C69.7334 29.1652 70.0141 28.4837 69.7878 27.886C69.5517 27.263 69.2898 26.633 69.0095 26.0135C68.8117 25.5769 68.3728 25.2946 67.8913 25.2946C67.7459 25.2946 67.6029 25.32 67.4662 25.3701C67.2537 25.4477 67.0312 25.487 66.8047 25.487C66.1149 25.487 65.4725 25.1168 65.1284 24.5209C64.6595 23.7084 64.8395 22.6802 65.5565 22.0763C66.0493 21.6617 66.1432 20.9313 65.7703 20.4137C65.3769 19.8677 64.9612 19.3269 64.5345 18.8061C64.3016 18.5217 63.9564 18.3587 63.5875 18.3587C63.3329 18.3587 63.088 18.4359 62.879 18.582C62.5533 18.8097 62.1698 18.9302 61.7699 18.9302C61.2542 18.9302 60.7693 18.7293 60.4046 18.3646C59.7403 17.7004 59.6488 16.6597 60.1868 15.8902C60.5541 15.3653 60.4556 14.6379 59.9629 14.2345C59.4411 13.807 58.9003 13.3912 58.3557 12.9989C58.1467 12.8483 57.9002 12.7686 57.6425 12.7686C57.2764 12.7686 56.9305 12.9302 56.693 13.2122C56.3249 13.6492 55.7848 13.8998 55.2111 13.8998C54.8749 13.8998 54.5421 13.8103 54.2482 13.6405C53.4329 13.17 53.0758 12.1869 53.3991 11.3027C53.6193 10.7002 53.3364 10.0222 52.7553 9.75938C52.1357 9.47909 51.5057 9.21722 50.8831 8.98128C50.7444 8.92862 50.5991 8.90203 50.4512 8.90203C49.9743 8.90203 49.5348 9.1841 49.3316 9.62045C49.0154 10.299 48.3282 10.7375 47.5809 10.7375C47.4128 10.7375 47.244 10.7151 47.079 10.6709C46.172 10.428 45.5724 9.57285 45.6533 8.63758C45.7089 7.99486 45.2586 7.41172 44.6286 7.30996C43.9699 7.20317 43.2937 7.11539 42.6187 7.04904C42.5784 7.04498 42.5382 7.04309 42.4985 7.04309C41.9029 7.04309 41.3942 7.4729 41.2886 8.06488C41.1237 8.9882 40.3235 9.65818 39.3855 9.65818C38.4476 9.65818 37.6472 8.9882 37.4825 8.06502C37.3768 7.4729 36.868 7.04309 36.2725 7.04309C36.2327 7.04309 36.1927 7.04498 36.1524 7.04904C35.4773 7.11539 34.8009 7.20331 34.1429 7.30996C33.5123 7.41172 33.062 7.99486 33.1177 8.63744C33.1985 9.57285 32.599 10.428 31.6918 10.6709C31.5271 10.7151 31.3582 10.7375 31.1899 10.7375C30.4427 10.7375 29.7555 10.2991 29.4395 9.62058C29.2361 9.1841 28.7966 8.90203 28.3197 8.90203C28.1719 8.90203 28.0265 8.92862 27.888 8.98128C27.2652 9.21722 26.6353 9.47909 26.0158 9.75938C25.4345 10.0222 25.1516 10.7002 25.3719 11.3029C25.6951 12.1869 25.338 13.1699 24.5227 13.6405C24.229 13.8101 23.896 13.8998 23.5598 13.8998C22.9863 13.8999 22.4461 13.6492 22.0779 13.2122C21.8405 12.9302 21.4945 12.7686 21.1284 12.7686C20.8708 12.7686 20.6242 12.8483 20.4156 12.9986C19.8705 13.3912 19.3297 13.807 18.8084 14.2342C18.3154 14.6379 18.2169 15.3654 18.584 15.8901C19.1221 16.6597 19.0307 17.7004 18.3665 18.3645C18.0017 18.7292 17.5168 18.9302 17.001 18.9302C16.6012 18.9302 16.2178 18.8098 15.8918 18.5818C15.6829 18.4359 15.4379 18.3587 15.1835 18.3587C14.8145 18.3587 14.4694 18.5217 14.2363 18.8061C13.8095 19.327 13.3938 19.8678 13.0006 20.4137C12.6278 20.9313 12.7217 21.6617 13.2141 22.076C13.9314 22.6802 14.1116 23.7084 13.6425 24.5209C13.2985 25.1168 12.6562 25.487 11.9662 25.487C11.7399 25.487 11.5174 25.4477 11.3048 25.3699C11.168 25.32 11.025 25.2946 10.8797 25.2946C10.3982 25.2946 9.95923 25.5769 9.76141 26.0137C9.48109 26.633 9.21923 27.263 8.98315 27.886C8.75685 28.4837 9.03755 29.1652 9.62247 29.4375C10.4745 29.8345 10.9163 30.7818 10.6729 31.6901C10.4469 32.5337 9.67905 33.123 8.80553 33.123C8.75045 33.123 8.6951 33.1205 8.63947 33.1158C8.60324 33.1127 8.56714 33.111 8.53132 33.111C7.92145 33.111 7.40858 33.5439 7.31185 34.1403C7.20545 34.7968 7.11767 35.4731 7.05079 36.1508C6.9888 36.7837 7.43517 37.368 8.06689 37.4805C8.99006 37.6453 9.66004 38.4457 9.66004 39.3835C9.66004 40.3216 8.99006 41.1219 8.06716 41.2866C7.43531 41.3992 6.9888 41.9832 7.05093 42.617C7.11742 43.2916 7.2052 43.9679 7.31185 44.6265C7.40858 45.2232 7.92131 45.656 8.53107 45.656C8.56714 45.656 8.60352 45.6544 8.63947 45.6514C8.69496 45.6465 8.75032 45.6441 8.80542 45.6441C9.67891 45.6441 10.4469 46.2335 10.6729 47.0771C10.9162 47.9854 10.4744 48.9327 9.62247 49.3294C9.03741 49.6019 8.75657 50.2835 8.98315 50.8808C9.21909 51.5038 9.48096 52.1337 9.76141 52.7534C9.95909 53.1903 10.398 53.4725 10.8797 53.4725C11.025 53.4725 11.168 53.4473 11.3049 53.3971C11.5174 53.3195 11.7399 53.2801 11.9663 53.2801C12.6562 53.2801 13.2985 53.6503 13.6425 54.2462C14.1116 55.0586 13.9314 56.0868 13.2142 56.6909C12.7215 57.1061 12.6278 57.8363 13.0006 58.3535C13.3936 58.8989 13.8093 59.4397 14.2366 59.9613C14.4696 60.2454 14.8148 60.4085 15.1835 60.4085C15.4381 60.4085 15.6832 60.3312 15.892 60.1849C16.2178 59.9572 16.6012 59.8367 17.0009 59.8367C17.5166 59.8367 18.0017 60.0378 18.3665 60.4026C19.0307 61.0668 19.1221 62.1075 18.584 62.8771C18.2169 63.4019 18.3155 64.1294 18.8081 64.5327C19.3288 64.9592 19.8696 65.3749 20.4153 65.7681C20.6242 65.9187 20.8709 65.9985 21.1286 65.9985C21.4946 65.9985 21.8407 65.8365 22.0779 65.5549C22.446 65.118 22.9861 64.8673 23.5598 64.8673C23.896 64.8673 24.229 64.9568 24.5227 65.1264C25.338 65.5972 25.6951 66.5803 25.3718 67.4644C25.1515 68.0674 25.4346 68.7452 26.0156 69.0076C26.6372 69.2888 27.2671 69.5506 27.8884 69.7859C28.0269 69.8383 28.1721 69.8649 28.3197 69.8649C28.7966 69.8649 29.2362 69.583 29.4394 69.1466C29.7555 68.4679 30.4429 68.0294 31.1903 68.0294C31.3584 68.0294 31.5272 68.0519 31.6918 68.0959C32.599 68.339 33.1985 69.1943 33.1177 70.1295C33.062 70.7723 33.5123 71.3555 34.1423 71.4569C34.8009 71.5639 35.4773 71.6515 36.1517 71.718C36.1923 71.7221 36.2327 71.724 36.2728 71.724C36.8681 71.724 37.3768 71.2941 37.4823 70.7023C37.6472 69.7788 38.4476 69.1089 39.3855 69.1089C40.3233 69.1089 41.1237 69.7788 41.2885 70.702C41.3942 71.2941 41.9028 71.724 42.4982 71.724C42.5382 71.724 42.5785 71.7221 42.6185 71.718C43.2937 71.6515 43.9699 71.5639 44.6281 71.4572C45.2586 71.3555 45.7089 70.7723 45.6533 70.1295C45.5724 69.1943 46.172 68.339 47.0789 68.0959C47.2437 68.0519 47.4125 68.0294 47.5806 68.0294C48.3281 68.0294 49.0154 68.4679 49.3314 69.1466C49.5348 69.583 49.9743 69.8649 50.4512 69.8649C50.5988 69.8649 50.744 69.8383 50.8828 69.7859C51.5037 69.5506 52.1338 69.2888 52.7546 69.0079C53.3363 68.7452 53.6195 68.0674 53.399 67.4642C53.0758 66.5803 53.4331 65.5972 54.2482 65.1264C54.5421 64.9568 54.8749 64.8673 55.2111 64.8673C55.7848 64.8673 56.3249 65.118 56.6927 65.5546C56.9302 65.8365 57.2763 65.9985 57.6424 65.9985C57.9 65.9985 58.1467 65.9188 58.3554 65.7684C58.9012 65.375 59.4421 64.9592 59.9625 64.5329C60.4554 64.1294 60.5541 63.4019 60.1869 62.8768C59.6487 62.1075 59.7403 61.0668 60.4044 60.4026C60.7693 60.0378 61.2543 59.8367 61.77 59.8367C62.1699 59.8367 62.5533 59.9572 62.8787 60.1849C63.0878 60.3312 63.3328 60.4085 63.5875 60.4085C63.9561 60.4085 64.3013 60.2454 64.5347 59.961C64.9616 59.4397 65.3774 58.8989 65.7702 58.3535C66.1432 57.8363 66.0494 57.1061 65.5569 56.6911C64.8395 56.0868 64.6595 55.0586 65.1284 54.2462C65.4725 53.6503 66.1148 53.2801 66.8047 53.2801C67.0312 53.2801 67.2537 53.3195 67.4662 53.3971C67.6029 53.4473 67.7459 53.4725 67.8913 53.4725C68.3729 53.4725 68.8118 53.1903 69.0095 52.7534C69.29 52.1339 69.5518 51.5038 69.7875 50.8813C70.0142 50.2835 69.7335 49.6019 69.1486 49.3294C68.2965 48.9327 67.8546 47.9854 68.098 47.0771C68.3241 46.2335 69.092 45.6441 69.9655 45.6441C70.0206 45.6441 70.076 45.6465 70.1309 45.6511C70.1674 45.6544 70.2038 45.656 70.2399 45.656C70.8496 45.656 71.3624 45.2232 71.4591 44.6265C71.5654 43.9701 71.6533 43.2938 71.72 42.6168C71.7824 41.9837 71.336 41.3992 70.7039 41.2866ZM70.6362 44.4934C70.6027 44.7001 70.4119 44.8389 70.2033 44.8208C68.8905 44.7073 67.6457 45.5442 67.2928 46.8613C66.9395 48.1797 67.6007 49.5282 68.7965 50.0852C68.9864 50.1737 69.0824 50.3898 69.0082 50.5857C68.7742 51.2033 68.5209 51.8113 68.2501 52.4097C68.1647 52.5984 67.9469 52.6853 67.7524 52.6142C66.5122 52.1607 65.0895 52.6465 64.4065 53.8294C63.7252 55.0095 64.0128 56.4804 65.0198 57.3286C65.1798 57.4634 65.2162 57.6964 65.0939 57.8662C64.7086 58.4011 64.307 58.9234 63.8898 59.4326C63.7587 59.5926 63.5262 59.6204 63.3566 59.5019C62.2765 58.7466 60.7795 58.8487 59.815 59.8131C58.8507 60.7776 58.7485 62.2745 59.5038 63.3547C59.6224 63.5242 59.5945 63.7568 59.4345 63.8879C58.9253 64.3051 58.403 64.7067 57.8681 65.092C57.6984 65.2143 57.4653 65.1779 57.3306 65.0178C56.4823 64.0109 55.0115 63.7233 53.8314 64.4046C52.6485 65.0875 52.1626 66.5103 52.6161 67.7505C52.6872 67.945 52.6003 68.1628 52.4116 68.2482C51.8132 68.519 51.2052 68.7723 50.5876 69.0063C50.3917 69.0805 50.1756 68.9845 50.0872 68.7946C49.5301 67.5988 48.1816 66.9376 46.8632 67.2909C45.5462 67.6438 44.7092 68.8886 44.8227 70.2014C44.8408 70.41 44.702 70.6009 44.4953 70.6343C43.8489 70.739 43.1958 70.8236 42.5369 70.8885C42.3292 70.909 42.1458 70.7612 42.1091 70.5556C41.8779 69.2597 40.748 68.2754 39.3855 68.2754C38.0229 68.2754 36.8931 69.2597 36.6618 70.5556C36.6251 70.7612 36.4418 70.909 36.234 70.8885C35.5751 70.8236 34.9221 70.739 34.2757 70.6343C34.0689 70.6009 33.9302 70.41 33.9482 70.2014C34.0617 68.8886 33.2248 67.6438 31.9077 67.2909C30.5894 66.9376 29.2409 67.5988 28.6838 68.7946C28.5953 68.9845 28.3792 69.0805 28.1834 69.0063C27.5658 68.7723 26.9577 68.519 26.3593 68.2482C26.1706 68.1628 26.0837 67.945 26.1549 67.7505C26.6083 66.5103 26.1225 65.0875 24.9396 64.4046C23.7595 63.7233 22.2886 64.0109 21.4404 65.0178C21.3056 65.1779 21.0726 65.2143 20.9028 65.092C20.3679 64.7067 19.8456 64.3051 19.3364 63.8879C19.1764 63.7568 19.1486 63.5242 19.2671 63.3547C20.0225 62.2745 19.9203 60.7776 18.9559 59.8131C17.9915 58.8487 16.4945 58.7466 15.4143 59.5019C15.2448 59.6204 15.0122 59.5926 14.8811 59.4326C14.464 58.9234 14.0623 58.4011 13.677 57.8662C13.5547 57.6964 13.5912 57.4634 13.7512 57.3286C14.7581 56.4804 15.0458 55.0095 14.3645 53.8294C13.6815 52.6465 12.2587 52.1607 11.0186 52.6142C10.8241 52.6853 10.6062 52.5984 10.5208 52.4097C10.25 51.8113 9.99671 51.2033 9.76272 50.5857C9.6885 50.3898 9.78453 50.1737 9.97443 50.0852C11.1702 49.5282 11.8314 48.1796 11.4781 46.8613C11.1252 45.5442 9.88042 44.7073 8.56767 44.8208C8.35904 44.8389 8.1682 44.7001 8.13474 44.4934C8.03007 43.847 7.94543 43.1939 7.88052 42.535C7.86007 42.3272 8.00787 42.1439 8.21338 42.1072C9.50932 41.8759 10.4937 40.7461 10.4937 39.3836C10.4937 38.021 9.50932 36.8912 8.21338 36.6599C8.00787 36.6232 7.86007 36.4399 7.88052 36.2321C7.94543 35.5732 8.03004 34.9201 8.13472 34.2737C8.1682 34.067 8.35901 33.9282 8.56767 33.9463C9.88042 34.0598 11.1252 33.2229 11.4781 31.9058C11.8314 30.5875 11.1702 29.2389 9.97443 28.6819C9.78453 28.5934 9.6885 28.3773 9.76272 28.1814C9.99669 27.5638 10.25 26.9558 10.5208 26.3574C10.6062 26.1687 10.8241 26.0818 11.0186 26.1529C12.2587 26.6064 13.6815 26.1206 14.3645 24.9377C15.0458 23.7576 14.7581 22.2867 13.7512 21.4385C13.5912 21.3037 13.5547 21.0706 13.677 20.9009C14.0623 20.366 14.464 19.8437 14.8811 19.3345C15.0122 19.1745 15.2448 19.1467 15.4143 19.2652C16.4945 20.0205 17.9915 19.9184 18.9559 18.954C19.9203 17.9895 20.0225 16.4926 19.2671 15.4124C19.1486 15.2429 19.1764 15.0103 19.3364 14.8792C19.8456 14.462 20.3679 14.0604 20.9028 13.6751C21.0726 13.5528 21.3056 13.5892 21.4404 13.7492C22.2887 14.7562 23.7595 15.0439 24.9396 14.3625C26.1225 13.6796 26.6083 12.2568 26.1549 11.0166C26.0837 10.8221 26.1706 10.6043 26.3593 10.5189C26.9577 10.2481 27.5658 9.9948 28.1834 9.7608C28.3792 9.68658 28.5953 9.78261 28.6838 9.97251C29.2409 11.1683 30.5894 11.8295 31.9077 11.4762C33.2248 11.1233 34.0617 9.87848 33.9482 8.56572C33.9302 8.3571 34.0689 8.16625 34.2757 8.1328C34.9221 8.02812 35.5751 7.94348 36.234 7.8786C36.4418 7.85812 36.6251 8.00595 36.6618 8.21146C36.8931 9.50741 38.0229 10.4917 39.3855 10.4917C40.748 10.4917 41.8779 9.50741 42.1091 8.21146C42.1458 8.00595 42.3292 7.85812 42.5369 7.8786C43.1958 7.94348 43.8489 8.02812 44.4953 8.1328C44.702 8.16625 44.8408 8.3571 44.8227 8.56572C44.7092 9.87848 45.5462 11.1233 46.8632 11.4762C48.1816 11.8295 49.5301 11.1683 50.0872 9.97251C50.1756 9.78261 50.3917 9.68658 50.5876 9.7608C51.2052 9.9948 51.8132 10.2481 52.4116 10.5189C52.6003 10.6043 52.6872 10.8221 52.6161 11.0166C52.1626 12.2568 52.6485 13.6796 53.8314 14.3625C55.0115 15.0439 56.4823 14.7562 57.3306 13.7492C57.4653 13.5892 57.6984 13.5528 57.8681 13.6751C58.403 14.0604 58.9253 14.462 59.4345 14.8792C59.5945 15.0103 59.6224 15.2429 59.5038 15.4124C58.7485 16.4926 58.8507 17.9895 59.815 18.954C60.7795 19.9184 62.2764 20.0205 63.3566 19.2652C63.5262 19.1467 63.7587 19.1745 63.8898 19.3345C64.307 19.8437 64.7086 20.366 65.0939 20.9009C65.2162 21.0706 65.1798 21.3037 65.0198 21.4385C64.0128 22.2867 63.7252 23.7576 64.4065 24.9377C65.0895 26.1206 66.5122 26.6064 67.7524 26.1529C67.9469 26.0818 68.1647 26.1687 68.2501 26.3574C68.5209 26.9558 68.7742 27.5638 69.0082 28.1814C69.0824 28.3773 68.9864 28.5934 68.7965 28.6818C67.6007 29.2389 66.9395 30.5875 67.2928 31.9058C67.6457 33.2229 68.8905 34.0598 70.2033 33.9463C70.4119 33.9282 70.6028 34.067 70.6362 34.2737C70.7409 34.9201 70.8255 35.5732 70.8904 36.2321C70.9109 36.4399 70.7631 36.6232 70.5576 36.6599C69.2616 36.8912 68.2773 38.021 68.2773 39.3836C68.2773 40.7461 69.2616 41.8759 70.5576 42.1072C70.7631 42.1439 70.9109 42.3272 70.8904 42.535C70.8255 43.1939 70.7409 43.847 70.6362 44.4934Z" fill="white"/>
<path d="M62.1051 47.7494C58.3561 44.5595 56.0856 40.825 55.5369 36.9477C54.9889 33.0773 56.1751 29.1828 58.9673 25.6855C59.0582 25.5753 59.0713 25.4211 58.9989 25.295C57.7136 22.9817 55.794 20.8953 53.2949 19.0965C53.2319 19.0528 53.1617 19.0306 53.0889 19.0306C53.0028 19.0306 52.9204 19.062 52.8565 19.119C51.4228 20.385 49.0166 21.2452 46.2557 21.4783C45.7737 21.5188 45.2872 21.5392 44.8101 21.5392C42.7262 21.5392 40.8109 21.1446 39.5554 20.4565C39.5046 20.4285 39.4462 20.4136 39.3874 20.4136C39.3295 20.4136 39.2719 20.428 39.2206 20.4554C37.95 21.1505 36.0166 21.5486 33.9145 21.5486C30.6262 21.5486 27.6338 20.6401 25.9095 19.1183C25.8459 19.0619 25.7635 19.0308 25.6775 19.0308C25.6033 19.0308 25.5322 19.0535 25.472 19.0968C22.9707 20.9003 21.0522 22.9865 19.7694 25.2977C19.7006 25.4221 19.7135 25.574 19.8018 25.6851C22.5949 29.1828 23.7816 33.0773 23.2339 36.9478C22.6851 40.825 20.4147 44.5595 16.6679 47.7474C16.5541 47.8458 16.514 47.9979 16.5644 48.1356C19.2352 55.4183 25.9236 57.8996 31.2977 59.8934C34.7946 61.191 37.8146 62.3115 39.0875 64.3875C39.1492 64.4901 39.2644 64.5545 39.3874 64.5545C39.5088 64.5545 39.6203 64.4932 39.6857 64.3906C40.9597 62.3101 43.9791 61.19 47.4752 59.8929C52.8485 57.8993 59.5358 55.4183 62.2055 48.1358C62.257 48.001 62.218 47.8483 62.1051 47.7494ZM20.4988 25.4351C21.6919 23.3615 23.428 21.4764 25.6621 19.8287C27.5261 21.3418 30.5972 22.2412 33.9232 22.2412C36.0816 22.2412 38.0161 21.8579 39.3874 21.1601C40.7585 21.859 42.6924 22.243 44.8501 22.243C48.1729 22.243 51.2417 21.3428 53.1049 19.8287C55.339 21.4736 57.0763 23.3586 58.2718 25.4351C52.5418 32.7802 53.7604 41.4507 61.4611 48.1217C58.8505 54.9231 52.68 57.2125 47.2319 59.2339L47.2158 59.24C43.8356 60.4961 40.8988 61.5872 39.3874 63.5827C37.8742 61.5867 34.9362 60.4955 31.5543 59.2394L31.5407 59.2345C26.0917 57.2128 19.9204 54.9231 17.3099 48.1217C25.0107 41.4504 26.2292 32.7799 20.4988 25.4351Z" fill="white"/>
<path fill-rule="evenodd" clip-rule="evenodd" d="M34.4611 23.1841H33.4086C30.7107 23.0694 27.9096 22.5184 25.6797 21.0665C24.1206 22.3167 22.7713 23.7367 21.7389 25.3805C22.6716 26.6041 23.3731 27.9521 23.9757 29.3306L24.5324 30.9205L24.9052 32.5241L25.1005 34.132L25.1148 35.7382L24.9561 37.3339L24.6452 38.8166H38.6198V22.5225C37.2982 22.9641 35.8422 23.127 34.4611 23.1841ZM35.6433 25.3613L36.4854 25.8776L36.2289 26.282L35.3783 25.7488L35.6433 25.3613ZM26.1266 27.8462L26.4522 26.908L29.1003 25.3805L30.1647 25.4574L30.4812 25.7696L26.4425 28.2587L26.1266 27.8462ZM29.3089 27.166L28.4235 27.7187L28.1743 27.3497L29.0419 26.8137L29.3089 27.166ZM26.9618 28.7848L30.8779 26.3442L31.1926 26.7559L31.0018 27.6085L28.3718 29.2576L27.346 29.2091L26.9618 28.7848ZM34.7285 37.1459L31.9123 33.0761L28.7244 37.617L27.5046 36.9329L31.2106 31.7263L29.2407 28.875L30.1594 28.2973L31.8661 30.5904L34.0379 27.5875L34.9067 28.179L32.592 31.555L36.0869 36.4613C36.7929 37.4522 35.3688 38.0741 34.7285 37.1459ZM35.5933 28.448L32.8185 26.5487C32.8185 26.5487 34.0601 25.065 34.0699 25.1037L36.7345 26.767L37.6781 28.5507L35.5933 28.448Z" fill="white"/>
<path fill-rule="evenodd" clip-rule="evenodd" d="M57.0823 44.9279L56.106 43.4819L55.2864 41.9919L54.6234 40.469L54.5369 40.1987H40.1326V61.4746C41.4791 60.4788 43.0882 59.8042 44.6645 59.1695C46.3375 58.5231 48.0264 57.9119 49.6965 57.2524L51.3858 56.5293C52.2188 56.1344 53.0242 55.7241 53.8238 55.2767L55.3475 54.2909L56.7605 53.161L57.4163 52.5337L58.0369 51.8553L58.6217 51.1282C59.234 50.2418 59.8022 49.3487 60.2015 48.3605C59.0283 47.3261 58.0145 46.1422 57.0823 44.9279ZM51.6843 45.3235L53.5183 46.0098L53.636 47.3329L53.1058 47.1146L53.1507 46.21L51.7461 45.6725L50.9465 46.2253L50.4164 46.0056L51.6843 45.3235ZM49.5755 45.493L49.6257 45.453L49.6744 45.419L49.7327 45.3953L49.7958 45.3841L49.8596 45.3812L49.9205 45.3901L49.9824 45.4116L50.0405 45.4469L50.0821 45.4873L50.1196 45.5331L50.1453 45.5859L50.1588 45.6432V45.7003L50.152 45.7574L50.1283 45.8177L48.8055 48.2002L48.7709 48.2532L48.7238 48.2953L48.6732 48.33L48.6148 48.3525L48.5539 48.3648H48.4908L48.4271 48.3564L48.3661 48.3346L48.3114 48.3034L48.2642 48.26L48.2296 48.2132L48.2032 48.1605L48.1906 48.1065V48.0473L48.2005 47.9892L48.2211 47.9309L49.5406 45.5484L49.5755 45.493ZM48.1824 47.6079L47.8496 47.4362L48.8758 45.5747L49.2268 45.7188L48.1824 47.6079ZM47.9786 45.1965L46.9849 46.9905L43.5239 45.2102L44.3562 43.7068L47.9786 45.1965ZM44.9356 47.9892C44.9356 48.3953 44.5694 48.7308 44.1228 48.7308C43.6726 48.7308 43.308 48.3953 43.308 47.9892C43.308 47.5796 43.6726 47.246 44.1228 47.246C44.5694 47.246 44.9356 47.5796 44.9356 47.9892ZM43.8107 43.1139L43.8636 43.0902L43.9266 43.0783L43.9901 43.0776L44.0514 43.0856L44.1173 43.108L44.1729 43.1419L44.2185 43.1822L44.2546 43.2292L44.2773 43.2817L44.2927 43.3395L44.2954 43.3967L44.2844 43.453L44.2576 43.5137L43.2817 45.2771L43.2473 45.3301L43.2033 45.372L43.1479 45.4038L43.0913 45.427L43.0293 45.4413L42.9667 45.4442L42.9034 45.4347L42.8406 45.4106L42.7875 45.3786L42.7403 45.3382L42.7057 45.2912L42.6786 45.2377L42.6637 45.182V45.124L42.6754 45.0651L42.6999 45.0057L43.6726 43.2428L43.7115 43.1904L43.7566 43.149L43.8107 43.1139ZM43.236 42.4527L43.2946 42.4302L43.3541 42.418L43.421 42.4149L43.4821 42.4252L43.5417 42.4474L43.6021 42.4776L43.645 42.5179L43.6796 42.5665L43.7061 42.6213L43.7188 42.6754V42.7321L43.7115 42.7925L43.6866 42.8509L42.3689 45.232L42.3328 45.2874L42.2832 45.3301L42.2333 45.3606L42.1766 45.3841L42.1135 45.3967L42.0526 45.3995L41.9886 45.3901L41.9255 45.3674L41.8727 45.3358L41.8257 45.2954L41.7903 45.2463L41.7641 45.1937L41.7488 45.138V45.0825L41.7602 45.0224L41.7818 44.9625L43.1022 42.5787L43.1369 42.5263L43.1839 42.4858L43.236 42.4527ZM41.3731 45.2817L41.3312 45.3235L41.277 45.3569L41.2169 45.3786L41.1558 45.3907L41.0948 45.3938L41.029 45.3841L40.968 45.3621L40.9154 45.3301L40.8662 45.2897L40.8315 45.2406L40.8063 45.1892L40.7925 45.1339V45.0771L40.8023 45.0167L40.823 44.9584L42.5301 41.8803L42.5675 41.8274L42.6091 41.7863L42.6597 41.7523L42.7222 41.7306L42.7791 41.7177L42.8448 41.7146L42.906 41.7249L42.9667 41.7466L43.0265 41.7791L43.0729 41.8195L43.1092 41.8649L43.1342 41.9195L43.1479 41.9747V42.033L43.1369 42.0925L43.112 42.1488L41.4092 45.2269L41.3731 45.2817ZM42.2809 51.6552C41.8341 51.6552 41.4681 51.3218 41.4681 50.9093C41.4681 50.5017 41.8341 50.1675 42.2809 50.1675C42.7306 50.1675 43.0941 50.5017 43.0941 50.9093C43.0941 51.3218 42.7306 51.6552 42.2809 51.6552ZM42.3826 49.4622C42.3826 49.0527 42.7514 48.7186 43.196 48.7186C43.645 48.7186 44.0085 49.0527 44.0085 49.4622C44.0085 49.8715 43.645 50.2034 43.196 50.2034C42.7514 50.2034 42.3826 49.8715 42.3826 49.4622ZM44.1116 51.6552C43.6659 51.6552 43.2998 51.3218 43.2998 50.9093C43.2998 50.5017 43.6659 50.1675 44.1116 50.1675C44.5624 50.1675 44.9271 50.5017 44.9271 50.9093C44.9271 51.3218 44.5624 51.6552 44.1116 51.6552ZM44.345 49.4123C44.345 49.0279 44.6864 48.7158 45.1053 48.7158C45.5244 48.7158 45.8634 49.0279 45.8634 49.4123C45.8634 49.7927 45.5244 50.1054 45.1053 50.1054C44.6864 50.1054 44.345 49.7927 44.345 49.4123ZM45.9615 51.7159C45.51 51.7159 45.1449 51.383 45.1449 50.9735C45.1449 50.5643 45.51 50.2312 45.9615 50.2312C46.4076 50.2312 46.7721 50.5643 46.7721 50.9735C46.7721 51.383 46.4076 51.7159 45.9615 51.7159ZM47.2337 47.7764L47.1727 47.7665L47.1082 47.7457L47.0527 47.7105L47.0069 47.6705L46.971 47.6233L46.9458 47.5719L46.9301 47.5144V47.4558L46.9419 47.4008L46.9668 47.3389L48.2824 44.9576L48.3182 44.9062L48.3661 44.861L48.4176 44.8273L48.4742 44.8053L48.5359 44.7927L48.6011 44.7915L48.6618 44.8014L48.7238 44.8218L48.782 44.8537L48.8279 44.8949L48.8638 44.943L48.8862 44.9957L48.9021 45.0514L48.9048 45.1108L48.8951 45.1686L48.8669 45.2269L47.5486 47.6094L47.5124 47.6621L47.469 47.7047L47.4144 47.7389L47.3578 47.7611L47.2969 47.7749L47.2337 47.7764ZM47.8967 51.557L49.0339 50.1344L49.1146 50.0362L49.1895 49.9614L49.2629 49.9047L49.3279 49.8616L49.3915 49.8316L49.459 49.8138L49.5297 49.8043L49.6076 49.7999L49.6816 49.8043L49.7509 49.8138L49.8164 49.8332L49.8774 49.8643L49.9454 49.9061L50.0142 49.9661L50.093 50.047L50.177 50.145L51.3044 51.557H47.8967ZM51.9132 51.3514L51.8721 51.4257L51.8111 51.485L51.7292 51.5251L51.6414 51.5498L51.5585 51.557H51.4675L50.2809 50.0723L50.1951 49.9669L50.1089 49.8807L50.0294 49.8132L49.9454 49.7601L49.8664 49.7226L49.7805 49.6991L49.6925 49.6857L49.6076 49.6786L49.5156 49.6857L49.4295 49.6974L49.346 49.7226L49.2629 49.7573L49.1785 49.8084L49.0969 49.8772L49.0114 49.9603L48.927 50.0635L47.7339 51.5543L47.6616 51.5471L47.5597 51.515L47.469 51.4601L47.3969 51.3846L47.3538 51.2926L47.3468 51.18L47.3857 51.0446L47.4874 50.8847L49.0339 48.9481L49.1146 48.8526L49.1895 48.777L49.2629 48.7186L49.3279 48.6767L49.3915 48.648L49.459 48.6297L49.5297 48.618L49.6076 48.6139L49.6816 48.618L49.7509 48.6312L49.8164 48.6495L49.8774 48.6782L49.9454 48.7201L50.0142 48.7795L50.093 48.8595L50.177 48.9573L51.7572 50.9365L51.8721 51.1129L51.9214 51.2478L51.9132 51.3514ZM49.0926 48.0502L50.1742 46.0985L53.6785 47.555L52.4423 49.7889L49.0926 48.0502ZM53.0626 50.3762L53.0185 50.4204L52.9653 50.4536L52.9067 50.4754L52.8457 50.4877L52.7839 50.4907L52.7215 50.4811L52.658 50.4584L52.6031 50.4268L52.5562 50.385L52.5199 50.3373L52.4948 50.2859L52.4839 50.2294L52.481 50.1703L52.4908 50.1134L52.5156 50.0556L53.958 47.4435L53.9942 47.3909L54.0432 47.3469L54.0934 47.3169L54.15 47.2929L54.2131 47.2806L54.2768 47.278L54.3378 47.2872L54.4011 47.3095L54.4579 47.3415L54.5008 47.3841L54.5369 47.4313L54.5635 47.4824L54.5775 47.5388L54.5818 47.5966L54.5708 47.6549L54.5442 47.7137L53.0974 50.3238L53.0626 50.3762ZM53.3414 50.2349L54.6137 47.935L54.7906 48.0076L53.5113 50.3206L53.3414 50.2349ZM54.154 50.8913L54.1112 50.9355L54.0572 50.9685L53.998 50.9903L53.9372 51.0033L53.8772 51.0044L53.8088 50.9953L53.7491 50.9728L53.6963 50.9419L53.6469 50.8987L53.6112 50.8513L53.5863 50.8004L53.5722 50.7441V50.6857L53.5819 50.6271L53.6083 50.5677L55.0506 47.9584L55.0882 47.9036L55.1318 47.8621L55.1845 47.8305L55.2413 47.8068L55.3043 47.7957L55.3679 47.793L55.4297 47.8029L55.4921 47.8235L55.5464 47.8553L55.5922 47.8967L55.6302 47.9461L55.6553 47.9972L55.6703 48.0529L55.6733 48.1122L55.662 48.1685L55.6372 48.2271L54.1909 50.8372L54.154 50.8913ZM56.3075 50.1882L56.2369 50.3084L56.1543 50.4227L56.0628 50.5254L55.9688 50.622L55.8682 50.7049L55.7592 50.782L55.6527 50.8472L55.5383 50.9005L55.422 50.9477L55.3069 50.9796L55.1925 51.0002L55.076 51.0097L54.9645 51.0067L54.8558 50.9939L54.7476 50.9656L54.6415 50.9238L54.3967 50.8004L55.7134 48.419L55.9688 48.5251L56.0669 48.5777L56.1543 48.6423L56.2339 48.7144L56.3009 48.7956L56.3635 48.887L56.4096 48.985L56.4525 49.0874L56.4816 49.1989L56.4959 49.3135L56.5079 49.4324L56.5049 49.5558L56.4856 49.6801L56.4609 49.8084L56.422 49.9352L56.3708 50.0635L56.3075 50.1882ZM57.842 50.7257L57.7879 50.8536L57.7039 50.9702L57.607 51.0625L57.4883 51.1397L57.3574 51.1895L57.2215 51.2184L57.0765 51.2211L56.9303 51.1991L56.7938 51.1521L56.6655 51.0776L56.5628 50.9865L56.4816 50.8792L56.4246 50.76L56.3956 50.6343L56.3887 50.5033L56.4137 50.3707L56.4677 50.244L56.5489 50.1303L56.6488 50.0332L56.7645 49.9603L56.8941 49.9104L57.035 49.8807L57.1765 49.8757L57.3213 49.8984L57.4578 49.9463L57.5858 50.0188L57.6901 50.112L57.7741 50.2207L57.8268 50.3373L57.8599 50.4657L57.863 50.5969L57.842 50.7257Z" fill="white"/>
<path fill-rule="evenodd" clip-rule="evenodd" d="M30.5271 42.6335V50.2035L36.1132 50.928L34.8076 42.8137C33.1525 41.684 31.9582 41.4188 30.5271 42.6335Z" fill="#D25613"/>
<path fill-rule="evenodd" clip-rule="evenodd" d="M25.6029 42.8137L24.2986 50.928L29.9632 50.2035L29.9672 42.6336C28.503 41.3768 27.2336 41.626 25.6029 42.8137Z" fill="#D25613"/>
<path fill-rule="evenodd" clip-rule="evenodd" d="M24.2137 40.1989L24.1274 40.4691L23.4659 41.992L22.6464 43.4828L21.6686 44.9281C20.7332 46.1424 19.7211 47.3262 18.5497 48.3606C18.9516 49.3488 19.5179 50.2419 20.129 51.1283L20.7127 51.8554L21.3318 52.5339L21.9918 53.1611L23.4023 54.2911C24.1607 54.8062 24.9149 55.2703 25.7229 55.7212L27.3642 56.5295C29.5693 57.5008 31.8352 58.3006 34.0879 59.1696C35.6652 59.8043 37.2731 60.4789 38.6198 61.4747V40.1989H24.2137ZM31.6196 51.283C31.3417 51.7217 30.8751 51.9427 30.2164 51.951C29.5594 51.9427 29.089 51.7217 28.8134 51.283L22.8524 52.1853L24.5073 43.3034C26.2573 41.5829 28.3541 40.8152 30.2164 42.4182C32.075 40.8152 34.1719 41.5829 35.92 43.3034L37.5808 52.1853L31.6196 51.283Z" fill="#D25613"/>
<path d="M44.5249 29.8806C44.5705 29.9409 44.617 30.0019 44.6641 30.0637C44.7163 29.9946 44.7699 29.9251 44.8245 29.8556C44.7233 29.8634 44.6238 29.8717 44.5249 29.8806Z" fill="#D25613"/>
<path d="M44.3065 30.56C44.1444 30.3493 43.9937 30.1489 43.8462 29.9515C43.6085 29.9803 43.3373 30.0164 43.0871 30.0664C41.9195 30.2905 41.7288 30.5288 41.7056 30.5658C41.7056 30.5681 41.7055 30.5703 41.7054 30.5724C41.7054 30.5724 41.7054 30.5723 41.7054 30.5724C41.7097 30.5724 41.818 30.8133 43.0662 31.0767L43.1721 31.0946C43.3802 31.1299 43.595 31.1665 43.8178 31.2176C43.9953 30.9686 44.1596 30.7476 44.3065 30.56Z" fill="#D25613"/>
<path d="M44.9126 31.343C44.8314 31.242 44.7518 31.142 44.6739 31.0427C44.6116 31.1239 44.5471 31.2098 44.4806 31.3003C44.62 31.3154 44.763 31.3295 44.9126 31.343Z" fill="#D25613"/>
<path d="M46.9484 29.2158H46.9513C47.1785 29.2158 47.4118 29.2205 47.6482 29.2299C47.3923 28.9219 47.1202 28.6092 46.837 28.2977C46.5993 28.5649 46.3471 28.8654 46.069 29.2124C46.4035 29.2046 46.6801 29.2057 46.9484 29.2158Z" fill="#D25613"/>
<path d="M45.3011 29.2394C45.7218 28.7007 46.0749 28.273 46.4113 27.8953C46.418 27.8853 46.4257 27.8746 46.4339 27.8636L46.4177 27.8466C46.3525 27.7773 46.2872 27.7079 46.2208 27.6396C45.4451 26.8168 44.6729 26.1061 43.8573 25.4631C42.7577 24.5833 42.1435 24.3464 41.868 24.3464C41.8008 24.3464 41.7538 24.3604 41.7247 24.3827C41.6975 24.4122 41.4162 24.7905 42.4608 26.7091C42.8767 27.4793 43.4036 28.3136 44.117 29.3318C44.4832 29.295 44.8787 29.2591 45.3011 29.2394Z" fill="#D25613"/>
<path d="M48.7196 30.5223C48.5466 30.2819 48.3527 30.0473 48.183 29.8469C47.7872 29.8168 47.3573 29.801 46.9375 29.801C46.4669 29.7835 46.0139 29.7963 45.5933 29.8131C45.575 29.8348 45.5377 29.8807 45.4619 29.9769C45.3113 30.1681 45.1562 30.3791 45.0317 30.5504C45.2299 30.8067 45.442 31.0673 45.6474 31.3199L45.7155 31.4037L45.7238 31.4043C45.9167 31.4146 46.1099 31.4198 46.306 31.4248C46.5014 31.4301 46.6997 31.4354 46.9039 31.4457C47.3872 31.4453 47.7934 31.444 48.1931 31.4315C48.3241 31.2698 48.4627 31.0896 48.6054 30.8958C48.6721 30.809 48.7387 30.7216 48.806 30.6325L48.7966 30.6204C48.7756 30.5933 48.7546 30.5663 48.7327 30.5395L48.779 30.4795L48.7196 30.5223ZM47.4189 31.1504C47.2674 31.2768 47.0902 31.3529 46.9128 31.3529C46.6853 31.3529 46.5333 31.2768 46.3815 31.1251C46.2549 30.9732 46.179 30.7963 46.179 30.6188C46.179 30.391 46.2549 30.2393 46.4067 30.0874C46.5333 29.9609 46.7105 29.8848 46.9128 29.8848C47.1156 29.8848 47.2926 29.9609 47.4445 30.1127C47.5713 30.2393 47.647 30.4167 47.647 30.6188C47.647 30.8215 47.5713 30.9986 47.4189 31.1504Z" fill="#D25613"/>
<path d="M44.1018 31.8453L44.0734 31.8868C44.0375 31.9381 44.008 31.98 43.9789 32.0263C43.2965 33.053 42.758 33.9725 42.3279 34.8439C41.3287 36.8342 41.5677 37.2353 41.6646 37.3108C41.7303 37.3609 42.1467 37.5397 43.8962 36.0947C44.7242 35.3694 45.5685 34.5218 46.4761 33.5052C46.4771 33.5044 46.4778 33.5034 46.4787 33.5025C46.5272 33.4486 46.5764 33.3923 46.6259 33.3359L46.6289 33.3325C46.2316 32.8949 45.8298 32.4518 45.4223 31.9705C44.9637 31.9388 44.5309 31.8979 44.1018 31.8453Z" fill="#D25613"/>
<path d="M52.118 23.9443C52.0799 23.9153 51.6677 23.6867 49.9178 25.185C49.0925 25.8673 48.1936 26.7603 47.245 27.8399C47.2396 27.846 47.2339 27.8519 47.228 27.8575C47.586 28.2494 47.9261 28.6422 48.2396 29.0259C48.3155 29.0958 48.3928 29.1885 48.4676 29.2782L48.4696 29.2805C48.8725 29.296 49.2732 29.3314 49.6913 29.3883C50.4068 28.3442 51.0097 27.3434 51.4844 26.4131C52.4751 24.3828 52.186 24.0003 52.118 23.9443Z" fill="#D25613"/>
<path d="M49.9649 30.0206L49.9642 30.0217C49.8999 30.1139 49.8357 30.2061 49.7694 30.2991C49.6962 30.4072 49.6193 30.5154 49.5419 30.6224C49.6805 30.8031 49.8164 30.9832 49.9481 31.1601L50.0381 31.2808L50.1152 31.2674C50.3303 31.2299 50.5331 31.1946 50.718 31.1592C51.8427 30.9433 52.0744 30.7375 52.1156 30.6876C52.0862 30.6416 51.8933 30.4146 50.7597 30.1697C50.7597 30.1697 50.7589 30.1696 50.7583 30.1695C50.5078 30.1104 50.2754 30.0695 50.0036 30.0266L49.9649 30.0206Z" fill="#D25613"/>
<path d="M46.8891 32.0307C46.6752 32.0204 46.4817 32.0153 46.291 32.0102C46.2699 32.0097 46.249 32.009 46.2281 32.0082C46.49 32.3073 46.7505 32.5954 47.0148 32.8866C47.255 32.6047 47.4975 32.3139 47.736 32.0269C47.461 32.0304 47.1798 32.0307 46.8891 32.0307Z" fill="#D25613"/>
<path d="M53.0413 21.0674C50.6671 22.6101 47.6379 23.1529 44.7748 23.1942L43.7262 23.1632C42.5117 23.076 41.2478 22.9115 40.0907 22.5242V38.8325H54.0757L53.7656 37.3488L53.6058 35.7505L53.6202 34.1431L53.8145 32.5341L54.1883 30.9291L54.7472 29.3379C55.3497 27.9566 56.0527 26.6095 56.9845 25.3848C55.9506 23.7411 54.5987 22.317 53.0413 21.0674ZM50.8888 29.5986C52.1452 29.87 52.7061 30.2085 52.7061 30.696C52.7061 31.1773 52.1621 31.4781 50.8284 31.7342C50.7008 31.7586 50.5643 31.7829 50.4247 31.8075C51.0316 32.6553 51.5372 33.467 51.9284 34.2215C52.8137 35.8487 53.0108 36.8449 52.5303 37.2655C52.3872 37.3939 52.2091 37.4592 52.0017 37.4592C51.4841 37.4592 50.7598 37.0714 49.653 36.2022C48.8227 35.5431 47.9499 34.7337 47.0588 33.7961L47.0485 33.7874C47.0409 33.7805 47.0335 33.7738 47.0262 33.767L47.0222 33.7716C46.9855 33.8136 46.9487 33.8555 46.9126 33.8956C45.9881 34.931 45.1255 35.7963 44.2756 36.5405C43.1268 37.4895 42.3389 37.9309 41.7943 37.9309C41.607 37.9309 41.443 37.8781 41.307 37.7742C40.7573 37.3462 40.9108 36.3621 41.8039 34.583C42.2401 33.6993 42.7834 32.7699 43.4643 31.7431C43.3325 31.717 43.2018 31.6935 43.0739 31.6718L42.9562 31.6516C41.6555 31.3774 41.0904 31.0338 41.1209 30.5373C41.129 30.06 41.7007 29.7365 42.9746 29.4919C43.1151 29.4639 43.2715 29.438 43.4599 29.4117C42.8191 28.484 42.3367 27.7116 41.9461 26.9883C41.0589 25.3586 40.8642 24.3925 41.3331 23.9477C41.3376 23.9432 41.343 23.9386 41.3484 23.9343C41.8556 23.5139 42.7957 23.8642 44.2215 25.0046C45.0585 25.6644 45.8506 26.3935 46.6425 27.2334C46.6995 27.2922 46.7563 27.3525 46.8134 27.413L46.8264 27.4269C46.8286 27.4252 46.8307 27.4236 46.8328 27.4221C47.7912 26.3338 48.7022 25.4305 49.5409 24.7371C51.0136 23.4759 51.9483 23.0783 52.482 23.4858C53.024 23.932 52.8816 24.8851 52.0082 26.6744C51.5585 27.5566 50.9946 28.502 50.3312 29.4873C50.5467 29.5241 50.7182 29.5584 50.8888 29.5986Z" fill="#D25613"/>
<path d="M49.2865 29.9678L49.287 29.968C49.2884 29.9653 49.2901 29.9627 49.2918 29.9602L49.312 29.9317C49.1961 29.9185 49.0866 29.9074 48.9817 29.8983C49.0502 29.9854 49.1106 30.065 49.1664 30.1413C49.2071 30.0837 49.2473 30.0258 49.2865 29.9678Z" fill="#D25613"/>
<path d="M49.3591 31.3502C49.2996 31.2705 49.2398 31.1905 49.179 31.1101C49.1437 31.1562 49.1091 31.2011 49.0755 31.2448C49.0408 31.292 49.0066 31.3377 48.973 31.3823C49.1028 31.3722 49.2317 31.3614 49.3591 31.3502Z" fill="#D25613"/>
<path d="M48.4846 32.0053L48.2072 32.3752C48.205 32.378 48.1985 32.3862 48.1961 32.3887C47.9368 32.7011 47.6725 33.0182 47.4111 33.3242C47.4211 33.3345 47.4316 33.3445 47.4425 33.3544L47.4707 33.3806C48.3537 34.3086 49.2089 35.1023 50.0157 35.7428C51.6661 37.0388 52.0609 36.9004 52.1422 36.8275C52.1425 36.8274 52.1426 36.8271 52.1429 36.8269C52.2687 36.7168 52.2772 36.0882 51.4113 34.4962C50.9911 33.6856 50.4388 32.8125 49.7687 31.8994C49.362 31.9411 48.9292 31.9735 48.4846 32.0053Z" fill="#D25613"/>
</g>
<defs>
<clipPath id="clip0_706_322">
<rect width="230" height="78.7671" fill="white"/>
</clipPath>
</defs>
</svg>
