<svg width="230" height="79" viewBox="0 0 230 79" fill="none" xmlns="http://www.w3.org/2000/svg">
<g clip-path="url(#clip0_532_3604)">
<path d="M89.7324 71.0462C89.7324 73.2055 88.3653 74.7134 86.4079 74.7134C84.5732 74.7134 83.3034 73.2873 83.0112 70.8986C83.0069 70.8637 83.0177 70.8288 83.0409 70.8025C83.0642 70.7761 83.0975 70.7611 83.1325 70.7611H85.2511C85.3083 70.7611 85.3579 70.8009 85.3705 70.8568C85.5453 71.6346 85.8711 71.997 86.3957 71.997C86.99 71.997 87.3448 71.605 87.3448 70.9486C87.3448 70.4482 87.1844 69.8516 86.42 69.8516H85.2755C85.2078 69.8516 85.1532 69.7968 85.1532 69.7291V67.4202C85.1532 67.3525 85.2078 67.2977 85.2755 67.2977H86.42C86.9382 67.2977 87.2475 66.9302 87.2475 66.3144C87.2475 65.7468 86.9179 65.38 86.4079 65.38C85.8882 65.38 85.5624 65.7527 85.3826 66.5528C85.3701 66.6087 85.3205 66.6484 85.2633 66.6484H83.1447C83.1097 66.6484 83.0764 66.6333 83.0531 66.607C83.0299 66.5808 83.0191 66.5457 83.0233 66.511C83.3155 64.1221 84.5853 62.6959 86.42 62.6959C88.2986 62.6959 89.6107 64.097 89.6107 66.103C89.6107 67.0501 89.2497 67.9335 88.6381 68.5005C89.3261 69.0331 89.7324 69.9712 89.7324 71.0462ZM97.7881 74.4611C97.7982 74.498 97.7905 74.5374 97.7673 74.5678C97.7442 74.5981 97.7081 74.616 97.6701 74.616H95.4419C95.3851 74.616 95.3358 74.5767 95.3229 74.5214L94.943 72.8923H92.4692L92.0661 74.5229C92.0526 74.5776 92.0037 74.616 91.9474 74.616H89.7192C89.6811 74.616 89.645 74.5981 89.6219 74.5678C89.5988 74.5374 89.5911 74.498 89.6011 74.4611L92.7547 62.8838C92.7693 62.8306 92.8175 62.7935 92.8728 62.7935H94.5165C94.5717 62.7935 94.62 62.8306 94.6345 62.8838L97.7881 74.4611ZM93.7456 67.8217L93.1273 70.2733H94.3254L93.7456 67.8217ZM104.83 62.7935H98.3039C98.2364 62.7935 98.1816 62.8484 98.1816 62.9161V74.4934C98.1816 74.5612 98.2364 74.616 98.3039 74.616H100.435C100.502 74.616 100.557 74.5612 100.557 74.4934V65.5752H102.577V74.4934C102.577 74.5612 102.632 74.616 102.699 74.616H104.83C104.898 74.616 104.953 74.5612 104.953 74.4934V62.9161C104.953 62.8484 104.898 62.7935 104.83 62.7935ZM111.516 64.0476C112.146 64.9236 112.416 66.0099 112.416 67.6803V69.1763C112.416 70.8374 112.349 72.2003 111.516 73.3617C110.882 74.2585 110.037 74.7134 109.006 74.7134C107.956 74.7134 107.127 74.2714 106.471 73.362C105.571 72.1094 105.571 70.5338 105.571 69.1438V68.2983C105.571 65.9945 105.782 65.0013 106.471 64.0475C107.105 63.151 107.95 62.6959 108.981 62.6959C110.031 62.6959 110.86 63.138 111.516 64.0476ZM108.246 71.4715C108.419 71.7596 108.698 71.9319 108.994 71.9319C109.289 71.9319 109.568 71.7596 109.741 71.471C109.962 71.0985 110.04 70.4553 110.04 69.0138V68.2169C110.04 67.0431 109.939 66.2703 109.739 65.9199C109.569 65.6355 109.304 65.4777 108.994 65.4777C108.683 65.4777 108.418 65.6355 108.246 65.9222C108.048 66.2701 107.947 67.043 107.947 68.2169V69.0138C107.947 70.4555 108.025 71.0986 108.246 71.4715ZM119.671 66.6396C119.671 68.8683 118.376 70.4858 116.59 70.4858H115.41V74.4934C115.41 74.5612 115.355 74.616 115.287 74.616H113.157C113.089 74.616 113.034 74.5612 113.034 74.4934V62.9161C113.034 62.8484 113.089 62.7935 113.157 62.7935H116.59C118.376 62.7935 119.671 64.4111 119.671 66.6396ZM115.41 67.688H116.493C116.958 67.688 117.296 67.2471 117.296 66.6396C117.296 66.0323 116.958 65.5914 116.493 65.5914H115.41V67.688ZM122.434 62.7935H120.304C120.236 62.7935 120.181 62.8484 120.181 62.9161V74.4934C120.181 74.5612 120.236 74.616 120.304 74.616H122.434C122.502 74.616 122.557 74.5612 122.557 74.4934V62.9161C122.557 62.8484 122.502 62.7935 122.434 62.7935ZM128.805 68.5005C129.417 67.9335 129.778 67.0501 129.778 66.103C129.778 64.097 128.465 62.6959 126.587 62.6959C124.752 62.6959 123.482 64.1221 123.19 66.511C123.186 66.5457 123.197 66.5808 123.22 66.607C123.243 66.6333 123.277 66.6484 123.312 66.6484H125.43C125.487 66.6484 125.537 66.6087 125.55 66.5528C125.729 65.7527 126.055 65.38 126.575 65.38C127.085 65.38 127.414 65.7468 127.414 66.3144C127.414 66.9302 127.105 67.2977 126.587 67.2977H125.442C125.375 67.2977 125.32 67.3525 125.32 67.4202V69.7291C125.32 69.7968 125.375 69.8516 125.442 69.8516H126.587C127.351 69.8516 127.512 70.4482 127.512 70.9486C127.512 71.605 127.157 71.997 126.563 71.997C126.038 71.997 125.712 71.6346 125.537 70.8568C125.525 70.8009 125.475 70.7611 125.418 70.7611H123.299C123.264 70.7611 123.231 70.7761 123.208 70.8025C123.185 70.8288 123.174 70.8637 123.178 70.8986C123.47 73.2873 124.74 74.7134 126.575 74.7134C128.532 74.7134 129.899 73.2055 129.899 71.0462C129.899 69.9712 129.493 69.0331 128.805 68.5005ZM137.277 70.7698C137.277 73.0343 136.036 74.616 134.257 74.616H130.763C130.695 74.616 130.64 74.5612 130.64 74.4934V62.9161C130.64 62.8484 130.695 62.7935 130.763 62.7935H132.894C132.961 62.7935 133.016 62.8484 133.016 62.9161V66.9237H134.257C136.036 66.9237 137.277 68.5053 137.277 70.7698ZM134.099 69.7216H133.016V71.8343H134.099C134.557 71.8343 134.902 71.3767 134.902 70.7698C134.902 70.1624 134.564 69.7216 134.099 69.7216ZM142.526 68.2992L145.058 62.9687C145.076 62.9308 145.074 62.8862 145.051 62.8506C145.029 62.8151 144.99 62.7935 144.948 62.7935H142.5C142.451 62.7935 142.407 62.8229 142.388 62.8679L140.285 67.7972V62.9161C140.285 62.8484 140.23 62.7935 140.163 62.7935H138.032C137.964 62.7935 137.91 62.8484 137.91 62.9161V74.4934C137.91 74.5612 137.964 74.616 138.032 74.616H140.163C140.23 74.616 140.285 74.5612 140.285 74.4934V69.0335L142.607 74.5411C142.626 74.5865 142.67 74.616 142.72 74.616H145.228C145.27 74.616 145.308 74.5947 145.331 74.5597C145.353 74.5244 145.356 74.4803 145.339 74.4424L142.526 68.2992ZM153.789 74.4611C153.799 74.498 153.791 74.5374 153.768 74.5678C153.745 74.5981 153.709 74.616 153.671 74.616H151.443C151.386 74.616 151.336 74.5767 151.323 74.5214L150.944 72.8923H148.47L148.067 74.5229C148.053 74.5776 148.004 74.616 147.948 74.616H145.72C145.682 74.616 145.646 74.5981 145.623 74.5678C145.599 74.5374 145.592 74.498 145.602 74.4611L148.755 62.8838C148.77 62.8306 148.818 62.7935 148.873 62.7935H150.517C150.572 62.7935 150.621 62.8306 150.635 62.8838L153.789 74.4611ZM149.746 67.8217L149.128 70.2733H150.326L149.746 67.8217ZM162.924 62.7935H156.398C156.33 62.7935 156.275 62.8484 156.275 62.9161V74.4934C156.275 74.5612 156.33 74.616 156.398 74.616H158.528C158.596 74.616 158.651 74.5612 158.651 74.4934V65.5752H160.671V74.4934C160.671 74.5612 160.726 74.616 160.793 74.616H162.924C162.992 74.616 163.046 74.5612 163.046 74.4934V62.9161C163.046 62.8484 162.992 62.7935 162.924 62.7935ZM169.609 64.0476C170.24 64.9235 170.509 66.0099 170.509 67.6803V69.1763C170.509 70.8375 170.443 72.2003 169.609 73.3617C168.975 74.2585 168.13 74.7134 167.099 74.7134C166.049 74.7134 165.22 74.2714 164.565 73.3619C163.665 72.1094 163.665 70.5338 163.665 69.1438V68.2983C163.665 65.9945 163.875 65.0013 164.565 64.0475C165.199 63.151 166.044 62.6959 167.075 62.6959C168.124 62.6959 168.953 63.138 169.609 64.0476ZM166.34 71.4715C166.512 71.7596 166.792 71.9319 167.087 71.9319C167.382 71.9319 167.662 71.7596 167.834 71.471C168.055 71.0985 168.134 70.4553 168.134 69.0138V68.2169C168.134 67.0431 168.033 66.2703 167.833 65.9199C167.663 65.6355 167.397 65.4777 167.087 65.4777C166.777 65.4777 166.511 65.6355 166.339 65.9222C166.141 66.2703 166.04 67.0431 166.04 68.2169V69.0138C166.04 70.4553 166.119 71.0985 166.34 71.4715ZM177.974 62.7935H172.276C172.208 62.7935 172.153 62.8484 172.153 62.9161V68.4771C172.153 71.5749 171.556 71.8343 170.997 71.8343H170.741C170.674 71.8343 170.619 71.8892 170.619 71.9568V74.4934C170.619 74.5612 170.674 74.616 170.741 74.616H171.557C173.393 74.616 174.456 73.6115 174.456 68.4771V65.5752H175.721V74.4934C175.721 74.5612 175.775 74.616 175.843 74.616H177.974C178.042 74.616 178.096 74.5612 178.096 74.4934V62.9161C178.096 62.8484 178.042 62.7935 177.974 62.7935ZM181.003 62.7935H178.873C178.805 62.7935 178.75 62.8484 178.75 62.9161V74.4934C178.75 74.5612 178.805 74.616 178.873 74.616H181.003C181.071 74.616 181.126 74.5612 181.126 74.4934V62.9161C181.126 62.8484 181.071 62.7935 181.003 62.7935ZM188.272 62.7935H181.88C181.812 62.7935 181.758 62.8484 181.758 62.9161V65.4526C181.758 65.5203 181.812 65.5752 181.88 65.5752H183.888V74.4934C183.888 74.5612 183.943 74.616 184.011 74.616H186.141C186.209 74.616 186.264 74.5612 186.264 74.4934V65.5752H188.272C188.34 65.5752 188.395 65.5203 188.395 65.4526V62.9161C188.395 62.8484 188.34 62.7935 188.272 62.7935ZM195.042 62.7935H189.149C189.081 62.7935 189.027 62.8484 189.027 62.9161V74.4934C189.027 74.5612 189.081 74.616 189.149 74.616H195.042C195.11 74.616 195.165 74.5612 195.165 74.4934V71.9568C195.165 71.8892 195.11 71.8343 195.042 71.8343H191.402V70.0467H194.494C194.562 70.0467 194.617 69.9919 194.617 69.9242V67.3877C194.617 67.32 194.562 67.2651 194.494 67.2651H191.402V65.5752H195.042C195.11 65.5752 195.165 65.5203 195.165 65.4526V62.9161C195.165 62.8484 195.11 62.7935 195.042 62.7935ZM200.583 68.558L203.093 62.9663C203.11 62.9284 203.107 62.8844 203.084 62.8495C203.062 62.8146 203.023 62.7935 202.982 62.7935H200.559C200.508 62.7935 200.463 62.8246 200.445 62.8718L199.292 65.8457L198.14 62.8718C198.122 62.8246 198.077 62.7935 198.026 62.7935H195.603C195.562 62.7935 195.523 62.8146 195.5 62.8495C195.478 62.8844 195.474 62.9284 195.491 62.9663L198.001 68.558L195.321 74.4426C195.304 74.4805 195.307 74.5247 195.33 74.5597C195.352 74.5947 195.391 74.616 195.433 74.616H197.868C197.918 74.616 197.963 74.5854 197.981 74.539L199.292 71.2618L200.603 74.539C200.622 74.5854 200.667 74.616 200.717 74.616H203.152C203.194 74.616 203.232 74.5947 203.255 74.5597C203.277 74.5247 203.281 74.4805 203.263 74.4426L200.583 68.558ZM210.19 62.7935H208.059C207.991 62.7935 207.937 62.8484 207.937 62.9161V67.2489H205.917V62.9161C205.917 62.8484 205.862 62.7935 205.794 62.7935H203.663C203.596 62.7935 203.541 62.8484 203.541 62.9161V74.4934C203.541 74.5612 203.596 74.616 203.663 74.616H205.794C205.862 74.616 205.917 74.5612 205.917 74.4934V70.0304H207.937V74.4934C207.937 74.5612 207.991 74.616 208.059 74.616H210.19C210.258 74.616 210.312 74.5612 210.312 74.4934V62.9161C210.312 62.8484 210.258 62.7935 210.19 62.7935ZM213.193 62.82H211.062C210.995 62.82 210.94 62.8748 210.94 62.9425V74.5199C210.94 74.5876 210.995 74.6424 211.062 74.6424H213.193C213.261 74.6424 213.315 74.5876 213.315 74.5199V62.9425C213.315 62.8748 213.261 62.82 213.193 62.82ZM218.543 68.3257L221.076 62.9952C221.094 62.9572 221.091 62.9126 221.069 62.8771C221.046 62.8415 221.007 62.82 220.965 62.82H218.518C218.469 62.82 218.425 62.8493 218.406 62.8944L216.303 67.8236V62.9425C216.303 62.8748 216.248 62.82 216.18 62.82H214.049C213.982 62.82 213.927 62.8748 213.927 62.9425V74.5199C213.927 74.5876 213.982 74.6424 214.049 74.6424H216.18C216.248 74.6424 216.303 74.5876 216.303 74.5199V69.0599L218.624 74.5675C218.644 74.613 218.688 74.6424 218.737 74.6424H221.245C221.287 74.6424 221.326 74.6211 221.348 74.5861C221.371 74.5508 221.374 74.5067 221.357 74.4688L218.543 68.3257ZM229.807 74.5678C229.784 74.5981 229.748 74.616 229.71 74.616H227.482C227.425 74.616 227.375 74.5767 227.362 74.5214L226.983 72.8923H224.509L224.106 74.5229C224.092 74.5776 224.043 74.616 223.987 74.616H221.759C221.721 74.616 221.685 74.5981 221.662 74.5678C221.638 74.5374 221.631 74.498 221.641 74.4611L224.794 62.8838C224.809 62.8306 224.857 62.7935 224.912 62.7935H226.556C226.611 62.7935 226.66 62.8306 226.674 62.8838L229.828 74.4611C229.838 74.498 229.83 74.5374 229.807 74.5678ZM225.785 67.8217L225.167 70.2733H226.365L225.785 67.8217Z" fill="#23354F"/>
<path d="M206.753 49.3265H89.3498C89.2206 49.3265 89.1159 49.2217 89.1159 49.0925V48.31C89.1159 48.1808 89.2206 48.076 89.3498 48.076H206.753C206.882 48.076 206.987 48.1808 206.987 48.31V49.0925C206.987 49.2217 206.882 49.3265 206.753 49.3265ZM206.987 53.544V52.2613C206.987 52.1321 206.882 52.0273 206.753 52.0273H86.8156C86.6864 52.0273 86.5817 52.1321 86.5817 52.2613V53.544C86.5817 53.6732 86.6864 53.7779 86.8156 53.7779H206.753C206.882 53.7779 206.987 53.6732 206.987 53.544ZM206.987 58.554V56.5211C206.987 56.3918 206.882 56.2871 206.753 56.2871H83.244C83.1148 56.2871 83.01 56.3918 83.01 56.5211V58.554C83.01 58.6832 83.1148 58.788 83.244 58.788H206.753C206.882 58.788 206.987 58.6832 206.987 58.554Z" fill="#D25613"/>
<path d="M99.4654 11.7964V43.724C99.4654 43.8547 99.3594 43.9607 99.2287 43.9607H92.0426C91.912 43.9607 91.806 43.8547 91.806 43.724V11.7964C91.806 11.6657 91.7 11.5597 91.5693 11.5597H81.7933C81.6626 11.5597 81.5566 11.4538 81.5566 11.323V4.9635C81.5566 4.83278 81.6626 4.72683 81.7933 4.72683H109.478C109.609 4.72683 109.715 4.83278 109.715 4.9635V11.323C109.715 11.4538 109.609 11.5597 109.478 11.5597H99.702C99.5713 11.5597 99.4654 11.6657 99.4654 11.7964ZM140.661 4.86097L131.993 22.8999C131.907 23.0786 131.653 23.0788 131.567 22.9004L122.851 4.86052C122.812 4.77876 122.729 4.72683 122.638 4.72683H115.474C115.343 4.72683 115.237 4.83278 115.237 4.9635V43.724C115.237 43.8547 115.343 43.9607 115.474 43.9607H122.66C122.791 43.9607 122.897 43.8547 122.897 43.724V22.0822C122.897 21.8332 123.232 21.7531 123.345 21.9752L130.38 35.8411C130.421 35.9206 130.502 35.9707 130.591 35.9707H132.976C133.065 35.9707 133.147 35.9203 133.187 35.8405L140.167 21.9823C140.28 21.7596 140.615 21.8393 140.615 22.0887V43.724C140.615 43.8547 140.721 43.9607 140.852 43.9607H148.038C148.169 43.9607 148.275 43.8547 148.275 43.724V4.9635C148.275 4.83278 148.169 4.72683 148.038 4.72683H140.874C140.783 4.72683 140.7 4.77898 140.661 4.86097ZM170.06 43.9996V39.775C170.06 39.65 169.961 39.5474 169.836 39.54C158.537 38.8693 153.914 32.9837 153.914 22.8561C153.914 12.7865 159.186 7.49978 169.838 6.78C169.962 6.77162 170.06 6.66945 170.06 6.54525V3.08994C170.06 2.95925 170.166 2.85327 170.296 2.85327H177.427C177.558 2.85327 177.664 2.95925 177.664 3.08994V6.54516C177.664 6.66943 177.762 6.77159 177.886 6.77991C188.592 7.49945 193.81 12.7862 193.81 22.8561C193.81 32.984 189.241 38.8696 177.888 39.5401C177.763 39.5474 177.664 39.65 177.664 39.7751V43.9996C177.664 44.1303 177.558 44.2363 177.427 44.2363H170.296C170.166 44.2363 170.06 44.1303 170.06 43.9996ZM170.17 13.5732C170.17 13.4374 170.054 13.3279 169.918 13.3356C163.773 13.6831 161.574 16.8256 161.574 23.1866C161.574 29.3273 163.878 32.6813 169.914 33.1428C170.051 33.1532 170.17 33.0431 170.17 32.9054V13.5732ZM177.609 32.9054C177.609 33.0431 177.728 33.1532 177.865 33.1428C183.901 32.6813 186.205 29.3273 186.205 23.1866C186.205 16.8256 184.006 13.6831 177.861 13.3356C177.725 13.3279 177.609 13.4374 177.609 13.5732V32.9054ZM229.95 43.5889L215.812 23.2686C215.755 23.1865 215.756 23.0772 215.814 22.9957L228.619 5.1012C228.731 4.94457 228.619 4.72683 228.426 4.72683H219.865C219.786 4.72683 219.713 4.76557 219.669 4.83033L209.684 19.504C209.64 19.5688 209.567 19.6075 209.488 19.6075H207.231C207.101 19.6075 206.995 19.5016 206.995 19.3709V4.9635C206.995 4.83278 206.889 4.72682 206.758 4.72682H199.572C199.441 4.72682 199.335 4.83278 199.335 4.9635V43.724C199.335 43.8547 199.441 43.9607 199.572 43.9607H206.758C206.889 43.9607 206.995 43.8547 206.995 43.724V27.5036C206.995 27.3729 207.101 27.2669 207.231 27.2669H209.496C209.575 27.2669 209.649 27.3062 209.693 27.3716L220.771 43.856C220.815 43.9215 220.889 43.9607 220.967 43.9607H229.756C229.947 43.9607 230.06 43.7458 229.95 43.5889Z" fill="#23354F"/>
<path d="M210.756 49.8627L209.658 50.6704C209.58 50.7278 209.469 50.6721 209.469 50.5753V49.307C209.469 49.2695 209.487 49.2341 209.518 49.2119L210.913 48.1856C210.933 48.1707 210.958 48.1626 210.983 48.1626H212.301C212.366 48.1626 212.419 48.2155 212.419 48.2808V58.3396C212.419 58.4049 212.366 58.4578 212.301 58.4578H211.063C210.997 58.4578 210.944 58.4049 210.944 58.3396V49.9579C210.944 49.8611 210.834 49.8054 210.756 49.8627ZM216.262 54.1345L216.233 54.1055C216.185 54.1441 216.11 54.1756 216.009 54.1995C215.908 54.2238 215.775 54.2358 215.611 54.2358C215.351 54.2358 215.11 54.1732 214.888 54.0477C214.666 53.9225 214.493 53.7634 214.368 53.5705C214.3 53.4743 214.247 53.3707 214.209 53.2596C214.17 53.149 214.139 53.0065 214.115 52.8331C214.091 52.6596 214.074 52.4403 214.064 52.1753C214.054 51.9102 214.05 51.5753 214.05 51.1703C214.05 50.833 214.054 50.5556 214.064 50.3388C214.074 50.1219 214.091 49.9389 214.115 49.7894C214.139 49.64 214.173 49.5123 214.216 49.4063C214.259 49.3003 214.315 49.1894 214.382 49.0735C214.575 48.7554 214.833 48.5098 215.156 48.3364C215.479 48.1626 215.843 48.076 216.248 48.076C216.652 48.076 217.014 48.1653 217.332 48.3435C217.65 48.522 217.905 48.7653 218.098 49.0735C218.166 49.1894 218.223 49.3003 218.272 49.4063C218.32 49.5123 218.356 49.64 218.38 49.7894C218.404 49.9389 218.421 50.1219 218.431 50.3388C218.44 50.5556 218.445 50.833 218.445 51.1703C218.445 51.4884 218.44 51.7511 218.431 51.9584C218.421 52.1657 218.404 52.3439 218.38 52.4934C218.356 52.6428 218.327 52.7776 218.294 52.8981C218.26 53.0187 218.219 53.1464 218.171 53.2814L216.262 58.3811C216.244 58.4272 216.2 58.4578 216.151 58.4578H214.757C214.674 58.4578 214.617 58.3744 214.647 58.2969L216.262 54.1345ZM215.525 52.1968C215.525 52.4188 215.597 52.597 215.741 52.7318C215.886 52.8669 216.055 52.9343 216.248 52.9343C216.44 52.9343 216.609 52.8669 216.754 52.7318C216.898 52.597 216.97 52.4188 216.97 52.1968V50.2882C216.97 50.0665 216.898 49.8883 216.754 49.7532C216.609 49.6184 216.44 49.5507 216.248 49.5507C216.055 49.5507 215.886 49.6184 215.741 49.7532C215.597 49.8883 215.525 50.0665 215.525 50.2882V52.1968ZM221.431 52.6169C221.431 52.5525 221.485 52.501 221.549 52.4995C221.929 52.4908 222.196 52.4384 222.349 52.3418C222.518 52.2358 222.602 51.9901 222.602 51.6043V50.2741C222.602 50.0623 222.537 49.8886 222.407 49.7535C222.277 49.6187 222.101 49.551 221.88 49.551C221.619 49.551 221.434 49.6331 221.323 49.7969C221.212 49.961 221.156 50.1201 221.156 50.2741V50.9946C221.156 51.0599 221.104 51.1128 221.038 51.1128H219.8C219.734 51.1128 219.682 51.0599 219.682 50.9946V50.2597C219.682 49.961 219.739 49.6765 219.855 49.4066C219.971 49.1367 220.13 48.9055 220.332 48.7126C220.535 48.5197 220.771 48.3654 221.041 48.2498C221.31 48.1342 221.6 48.0764 221.908 48.0764C222.313 48.0764 222.648 48.1557 222.913 48.3148C223.178 48.4739 223.378 48.6356 223.513 48.7992C223.61 48.9148 223.694 49.0331 223.766 49.1535C223.839 49.2742 223.897 49.4138 223.94 49.5729C223.983 49.7319 224.017 49.9248 224.041 50.1513C224.065 50.3777 224.077 50.6551 224.077 50.9825C224.077 51.3393 224.07 51.6286 224.056 51.8503C224.041 52.0719 224.002 52.2576 223.94 52.4068C223.877 52.5566 223.786 52.6842 223.665 52.7899C223.576 52.8687 223.461 52.9526 223.322 53.0417C223.25 53.0874 223.253 53.1912 223.323 53.2391C223.479 53.3457 223.602 53.4467 223.694 53.5421C223.815 53.6673 223.904 53.8143 223.962 53.983C224.019 54.1516 224.053 54.3541 224.063 54.5902C224.072 54.8265 224.077 55.1278 224.077 55.4939C224.077 55.8314 224.07 56.1109 224.056 56.3326C224.041 56.5545 224.019 56.7399 223.99 56.8891C223.962 57.0389 223.923 57.1665 223.875 57.2725C223.827 57.3786 223.764 57.4894 223.687 57.605C223.504 57.8749 223.268 58.0992 222.978 58.2775C222.689 58.456 222.318 58.545 221.865 58.545C221.634 58.545 221.388 58.5063 221.127 58.4291C220.867 58.3521 220.631 58.2269 220.419 58.0531C220.207 57.8797 220.031 57.6532 219.891 57.3738C219.751 57.0943 219.682 56.7519 219.682 56.347V55.6267C219.682 55.5614 219.734 55.5085 219.8 55.5085H221.038C221.104 55.5085 221.156 55.5614 221.156 55.6267V56.2748C221.156 56.506 221.221 56.6965 221.352 56.846C221.482 56.9954 221.658 57.07 221.88 57.07C222.101 57.07 222.277 56.9954 222.407 56.846C222.537 56.6965 222.602 56.4967 222.602 56.2457V54.7711C222.602 54.5686 222.586 54.4047 222.552 54.2793C222.518 54.1543 222.458 54.0552 222.371 53.983C222.284 53.9105 222.166 53.8626 222.017 53.8383C221.893 53.8184 221.737 53.8065 221.55 53.8031C221.485 53.8019 221.431 53.7501 221.431 53.6855V52.6169ZM225.582 50.2882C225.582 49.9413 225.643 49.6328 225.763 49.3629C225.884 49.093 226.045 48.8617 226.248 48.6688C226.45 48.4762 226.684 48.3289 226.949 48.2279C227.214 48.1267 227.491 48.076 227.78 48.076C228.069 48.076 228.347 48.1267 228.612 48.2279C228.877 48.3289 229.111 48.4762 229.313 48.6688C229.515 48.8617 229.677 49.093 229.797 49.3629C229.918 49.6328 229.978 49.9413 229.978 50.2882V56.3323C229.978 56.6794 229.918 56.9879 229.797 57.2576C229.677 57.5277 229.515 57.759 229.313 57.9516C229.111 58.1447 228.877 58.2915 228.612 58.3928C228.347 58.494 228.069 58.5447 227.78 58.5447C227.491 58.5447 227.214 58.494 226.949 58.3928C226.684 58.2915 226.45 58.1447 226.248 57.9516C226.045 57.759 225.884 57.5277 225.763 57.2576C225.643 56.9879 225.582 56.6794 225.582 56.3323V50.2882ZM227.057 56.3323C227.057 56.5443 227.125 56.7205 227.26 56.8601C227.395 56.9999 227.568 57.0697 227.78 57.0697C227.992 57.0697 228.166 56.9999 228.301 56.8601C228.436 56.7205 228.503 56.5443 228.503 56.3323V50.2882C228.503 50.0764 228.436 49.9003 228.301 49.7604C228.166 49.6208 227.992 49.5507 227.78 49.5507C227.568 49.5507 227.395 49.6208 227.26 49.7604C227.125 49.9003 227.057 50.0764 227.057 50.2882V56.3323Z" fill="#D25613"/>
<path d="M78.7169 37.3704C78.67 36.4639 78.0028 35.7383 77.1185 35.5332C75.6586 35.1946 74.4586 34.0347 74.1472 32.469C73.8358 30.9033 74.5006 29.3725 75.7197 28.501C76.4582 27.9732 76.7969 27.0475 76.4934 26.192C76.0403 24.9151 75.5246 23.6732 74.9516 22.4684C74.5767 21.6799 73.7215 21.2067 72.8639 21.3702C71.3586 21.6572 69.7602 21.0473 68.855 19.6927C67.9683 18.3656 67.9965 16.6973 68.7889 15.4257C69.2697 14.6542 69.2293 13.6683 68.6196 12.9941C67.7143 11.9929 66.7598 11.0408 65.7607 10.141C65.112 9.55671 64.1408 9.44706 63.4111 9.92648C62.1325 10.7664 60.4292 10.8179 59.0764 9.91403C57.7236 9.01013 57.1194 7.41676 57.4061 5.9141C57.5698 5.05645 57.0969 4.20118 56.3087 3.82539C55.0951 3.24672 53.8502 2.72926 52.5788 2.27594C51.7226 1.97067 50.7963 2.31067 50.2675 3.05007C49.3959 4.26879 47.8655 4.93327 46.3 4.62188C44.7021 4.30402 43.5269 3.06071 43.216 1.56014C43.0389 0.705207 42.2744 0.0963041 41.4025 0.0515944C40.0701 -0.016679 38.7255 -0.0179017 37.3723 0.0521501C36.4658 0.0991106 35.7403 0.766311 35.5352 1.65056C35.1965 3.11045 34.0367 4.31044 32.471 4.62188C30.9053 4.93332 29.3745 4.26854 28.503 3.04934C27.9751 2.3109 27.0494 1.97214 26.194 2.27569C24.917 2.72879 23.6752 3.24447 22.4704 3.81744C21.6819 4.1924 21.2087 5.04753 21.3722 5.90515C21.6592 7.41048 21.0493 9.00888 19.6946 9.91403C18.3675 10.8008 16.6992 10.7726 15.4276 9.98016C14.6561 9.49938 13.6702 9.53973 12.996 10.1494C11.9949 11.0548 11.0428 12.0093 10.143 13.0083C9.55866 13.6571 9.44901 14.6283 9.92843 15.358C10.7684 16.6365 10.8199 18.3399 9.91598 19.6927C9.01208 21.0454 7.4187 21.6497 5.91605 21.3629C5.0584 21.1993 4.20313 21.6722 3.82736 22.4604C3.24867 23.674 2.73121 24.9188 2.27789 26.1902C1.97262 27.0465 2.31262 27.9728 3.05202 28.5016C4.27074 29.3731 4.93522 30.9036 4.62383 32.4691C4.30597 34.067 3.06266 35.2421 1.56209 35.553C0.707157 35.7302 0.0982538 36.4946 0.053544 37.3665C-0.0147294 38.6989 -0.015952 40.0436 0.0541275 41.3967C0.10106 42.3032 0.768261 43.0288 1.65251 43.2339C3.1124 43.5725 4.31242 44.7324 4.62383 46.2981C4.93527 47.8638 4.27049 49.3946 3.05129 50.2661C2.31284 50.794 1.97409 51.7196 2.27764 52.5751C2.73074 53.8521 3.24641 55.0939 3.81939 56.2987C4.19435 57.0872 5.04948 57.5604 5.9071 57.3969C7.41242 57.1099 9.01083 57.7198 9.91598 59.0745C10.8027 60.4016 10.7745 62.0698 9.98211 63.3414C9.50133 64.1129 9.54171 65.0988 10.1514 65.773C11.0568 66.7742 12.0112 67.7263 13.0103 68.6261C13.6591 69.2104 14.6302 69.3201 15.36 68.8406C16.6385 68.0007 18.3418 67.9492 19.6946 68.8531C21.0474 69.757 21.6517 71.3504 21.3649 72.853C21.2012 73.7107 21.6742 74.5659 22.4623 74.9417C23.676 75.5204 24.9208 76.0379 26.1922 76.4912C27.0484 76.7965 27.9747 76.4565 28.5035 75.717C29.3751 74.4983 30.9056 73.8338 32.471 74.1452C34.0689 74.4631 35.2441 75.7064 35.555 77.207C35.7321 78.0619 36.4965 78.6709 37.3685 78.7155C38.7009 78.7838 40.0455 78.785 41.3987 78.715C42.3052 78.668 43.0308 78.0008 43.2359 77.1166C43.5745 75.6567 44.7343 74.4567 46.3 74.1452C47.8657 73.8338 49.3965 74.4986 50.268 75.7178C50.7959 76.4562 51.7216 76.795 52.5771 76.4914C53.854 76.0383 55.0959 75.5227 56.3007 74.9497C57.0892 74.5747 57.5624 73.7196 57.3989 72.8619C57.1119 71.3566 57.7218 69.7582 59.0764 68.8531C60.4035 67.9663 62.0718 67.9945 63.3434 68.787C64.1149 69.2677 65.1008 69.2274 65.775 68.6177C66.7762 67.7123 67.7282 66.7579 68.628 65.7588C69.2124 65.11 69.322 64.1389 68.8426 63.4091C68.0026 62.1306 67.9511 60.4272 68.855 59.0745C69.7589 57.7217 71.3523 57.1174 72.855 57.4042C73.7126 57.5678 74.5679 57.0949 74.9437 56.3067C75.5224 55.0931 76.0398 53.8483 76.4931 52.5769C76.7984 51.7206 76.4584 50.7944 75.719 50.2656C74.5003 49.394 73.8358 47.8635 74.1472 46.2981C74.465 44.7002 75.7084 43.525 77.2089 43.2141C78.0639 43.037 78.6728 42.2725 78.7175 41.4006C78.7858 40.0682 78.787 38.7235 78.7169 37.3704ZM70.5576 42.1072C70.7631 42.1439 70.9109 42.3272 70.8905 42.535C70.8256 43.1939 70.7409 43.847 70.6363 44.4934C70.6028 44.7001 70.412 44.8389 70.2033 44.8208C68.8906 44.7073 67.6457 45.5443 67.2928 46.8613C66.9396 48.1797 67.6008 49.5282 68.7966 50.0853C68.9865 50.1737 69.0825 50.3898 69.0083 50.5857C68.7743 51.2033 68.521 51.8113 68.2501 52.4097C68.1648 52.5984 67.947 52.6853 67.7524 52.6142C66.5122 52.1607 65.0895 52.6465 64.4065 53.8294C63.7252 55.0095 64.0129 56.4804 65.0198 57.3286C65.1798 57.4634 65.2163 57.6964 65.094 57.8662C64.7087 58.4011 64.307 58.9234 63.8899 59.4326C63.7588 59.5926 63.5262 59.6204 63.3567 59.5019C62.2765 58.7466 60.7795 58.8487 59.8151 59.8131C58.8507 60.7776 58.7486 62.2745 59.5039 63.3547C59.6224 63.5242 59.5945 63.7568 59.4345 63.8879C58.9254 64.3051 58.4031 64.7067 57.8681 65.0921C57.6984 65.2143 57.4654 65.1779 57.3306 65.0178C56.4824 64.0109 55.0115 63.7233 53.8314 64.4046C52.6485 65.0876 52.1627 66.5103 52.6161 67.7505C52.6873 67.945 52.6004 68.1628 52.4117 68.2482C51.8132 68.519 51.2052 68.7723 50.5876 69.0063C50.3918 69.0805 50.1757 68.9845 50.0872 68.7946C49.5301 67.5988 48.1816 66.9376 46.8633 67.2909C45.5462 67.6438 44.7093 68.8886 44.8228 70.2014C44.8408 70.41 44.7021 70.6009 44.4953 70.6343C43.8489 70.739 43.1959 70.8236 42.5369 70.8885C42.3292 70.909 42.1458 70.7612 42.1092 70.5556C41.8779 69.2597 40.748 68.2754 39.3855 68.2754C38.023 68.2754 36.8932 69.2597 36.6619 70.5556C36.6252 70.7612 36.4418 70.909 36.2341 70.8885C35.5752 70.8236 34.9221 70.739 34.2757 70.6343C34.069 70.6009 33.9302 70.41 33.9482 70.2014C34.0618 68.8886 33.2248 67.6438 31.9078 67.2909C30.5894 66.9376 29.2409 67.5988 28.6838 68.7946C28.5953 68.9845 28.3793 69.0805 28.1834 69.0063C27.5658 68.7723 26.9578 68.519 26.3594 68.2482C26.1707 68.1628 26.0838 67.945 26.1549 67.7505C26.6084 66.5103 26.1226 65.0876 24.9396 64.4046C23.7595 63.7233 22.2887 64.0109 21.4404 65.0178C21.3057 65.1779 21.0726 65.2143 20.9029 65.0921C20.368 64.7067 19.8457 64.3051 19.3365 63.8879C19.1765 63.7568 19.1486 63.5242 19.2672 63.3547C20.0225 62.2745 19.9203 60.7776 18.9559 59.8131C17.9915 58.8487 16.4945 58.7466 15.4143 59.5019C15.2448 59.6204 15.0122 59.5926 14.8812 59.4326C14.464 58.9234 14.0624 58.4011 13.677 57.8662C13.5548 57.6964 13.5912 57.4634 13.7512 57.3286C14.7582 56.4804 15.0458 55.0095 14.3645 53.8294C13.6815 52.6465 12.2588 52.1607 11.0186 52.6142C10.8241 52.6853 10.6063 52.5984 10.5209 52.4097C10.2501 51.8113 9.99675 51.2033 9.76276 50.5857C9.68854 50.3898 9.78457 50.1737 9.97447 50.0853C11.1703 49.5282 11.8314 48.1796 11.4782 46.8613C11.1253 45.5443 9.88046 44.7073 8.56771 44.8208C8.35908 44.8389 8.16824 44.7001 8.13478 44.4934C8.03011 43.847 7.94547 43.1939 7.88056 42.535C7.86011 42.3272 8.00791 42.1439 8.21342 42.1072C9.50936 41.8759 10.4937 40.7461 10.4937 39.3836C10.4937 38.021 9.50936 36.8912 8.21342 36.6599C8.00791 36.6232 7.86011 36.4399 7.88056 36.2321C7.94547 35.5732 8.03008 34.9201 8.13476 34.2737C8.16824 34.067 8.35905 33.9282 8.56771 33.9463C9.88046 34.0598 11.1253 33.2229 11.4782 31.9058C11.8314 30.5875 11.1703 29.2389 9.97447 28.6819C9.78457 28.5934 9.68854 28.3773 9.76276 28.1814C9.99673 27.5638 10.2501 26.9558 10.5209 26.3574C10.6063 26.1687 10.8241 26.0818 11.0186 26.1529C12.2588 26.6064 13.6815 26.1206 14.3645 24.9377C15.0458 23.7576 14.7582 22.2867 13.7512 21.4385C13.5912 21.3037 13.5548 21.0707 13.677 20.9009C14.0624 20.366 14.464 19.8437 14.8812 19.3345C15.0122 19.1745 15.2448 19.1467 15.4143 19.2652C16.4945 20.0205 17.9915 19.9184 18.9559 18.954C19.9203 17.9895 20.0225 16.4926 19.2672 15.4124C19.1486 15.2429 19.1765 15.0103 19.3365 14.8792C19.8457 14.4621 20.368 14.0604 20.9029 13.6751C21.0726 13.5528 21.3057 13.5893 21.4404 13.7493C22.2887 14.7562 23.7595 15.0439 24.9396 14.3625C26.1226 13.6796 26.6084 12.2568 26.1549 11.0166C26.0838 10.8221 26.1707 10.6043 26.3593 10.5189C26.9578 10.2481 27.5658 9.9948 28.1834 9.76081C28.3793 9.68659 28.5953 9.78262 28.6838 9.97252C29.2409 11.1683 30.5894 11.8295 31.9078 11.4762C33.2248 11.1233 34.0618 9.87849 33.9482 8.56573C33.9302 8.35711 34.069 8.16626 34.2757 8.13281C34.9221 8.02813 35.5752 7.94349 36.2341 7.87861C36.4418 7.85813 36.6252 8.00596 36.6619 8.21147C36.8932 9.50742 38.023 10.4918 39.3855 10.4918C40.748 10.4918 41.8779 9.50742 42.1092 8.21147C42.1458 8.00596 42.3292 7.85813 42.5369 7.87861C43.1959 7.94349 43.8489 8.02813 44.4953 8.13281C44.7021 8.16626 44.8408 8.35711 44.8228 8.56573C44.7093 9.87849 45.5462 11.1233 46.8633 11.4762C48.1816 11.8295 49.5302 11.1683 50.0872 9.97252C50.1757 9.78262 50.3918 9.68659 50.5876 9.76081C51.2052 9.9948 51.8133 10.2481 52.4117 10.5189C52.6004 10.6043 52.6873 10.8221 52.6161 11.0166C52.1627 12.2568 52.6485 13.6796 53.8314 14.3625C55.0115 15.0439 56.4824 14.7562 57.3306 13.7493C57.4654 13.5893 57.6984 13.5528 57.8681 13.6751C58.4031 14.0604 58.9254 14.4621 59.4345 14.8792C59.5945 15.0103 59.6224 15.2429 59.5039 15.4124C58.7486 16.4926 58.8507 17.9895 59.8151 18.954C60.7795 19.9184 62.2765 20.0205 63.3567 19.2652C63.5262 19.1467 63.7588 19.1745 63.8899 19.3345C64.307 19.8437 64.7087 20.366 65.094 20.9009C65.2163 21.0707 65.1798 21.3037 65.0198 21.4385C64.0129 22.2867 63.7252 23.7576 64.4065 24.9377C65.0895 26.1206 66.5123 26.6064 67.7524 26.1529C67.9469 26.0818 68.1648 26.1687 68.2501 26.3574C68.521 26.9558 68.7743 27.5638 69.0083 28.1814C69.0825 28.3773 68.9865 28.5934 68.7966 28.6818C67.6008 29.2389 66.9396 30.5875 67.2928 31.9058C67.6457 33.2229 68.8906 34.0598 70.2033 33.9463C70.412 33.9282 70.6028 34.067 70.6363 34.2737C70.7409 34.9201 70.8256 35.5732 70.8905 36.2321C70.9109 36.4399 70.7631 36.6232 70.5576 36.6599C69.2617 36.8912 68.2773 38.021 68.2773 39.3836C68.2773 40.7461 69.2617 41.8759 70.5576 42.1072Z" fill="#D25613"/>
<path d="M70.7038 41.2866C69.7807 41.1219 69.1107 40.3216 69.1107 39.3835C69.1107 38.4457 69.7807 37.6453 70.7036 37.4806C71.336 37.3679 71.7824 36.7835 71.7199 36.1503C71.6531 35.4732 71.5653 34.797 71.459 34.1407C71.3626 33.5441 70.8498 33.111 70.2395 33.111C70.2037 33.111 70.1676 33.1127 70.1312 33.1158C70.0757 33.1205 70.0202 33.123 69.9651 33.123C69.0918 33.123 68.3239 32.5337 68.0979 31.6901C67.8545 30.7818 68.2963 29.8345 69.1483 29.4376C69.7333 29.1652 70.014 28.4837 69.7877 27.886C69.5516 27.263 69.2897 26.633 69.0094 26.0135C68.8116 25.5769 68.3727 25.2946 67.8911 25.2946C67.7458 25.2946 67.6028 25.32 67.466 25.3701C67.2536 25.4477 67.0311 25.487 66.8046 25.487C66.1148 25.487 65.4724 25.1168 65.1283 24.5209C64.6594 23.7084 64.8394 22.6802 65.5563 22.0763C66.0491 21.6617 66.143 20.9313 65.7702 20.4137C65.3768 19.8677 64.9611 19.3269 64.5344 18.8061C64.3014 18.5217 63.9563 18.3587 63.5873 18.3587C63.3328 18.3587 63.0879 18.4359 62.8788 18.582C62.5532 18.8097 62.1696 18.9302 61.7698 18.9302C61.2541 18.9302 60.7691 18.7293 60.4044 18.3646C59.7401 17.7004 59.6487 16.6597 60.1867 15.8902C60.554 15.3653 60.4554 14.6379 59.9628 14.2345C59.441 13.807 58.9001 13.3912 58.3555 12.9989C58.1466 12.8483 57.9 12.7686 57.6424 12.7686C57.2763 12.7686 56.9303 12.9302 56.6929 13.2122C56.3248 13.6492 55.7847 13.8998 55.211 13.8998C54.8748 13.8998 54.542 13.8103 54.2481 13.6405C53.4328 13.17 53.0757 12.1869 53.399 11.3027C53.6192 10.7002 53.3363 10.0222 52.7552 9.75938C52.1355 9.47909 51.5056 9.21722 50.8829 8.98128C50.7443 8.92862 50.599 8.90203 50.4511 8.90203C49.9742 8.90203 49.5347 9.1841 49.3314 9.62045C49.0153 10.299 48.3281 10.7375 47.5808 10.7375C47.4127 10.7375 47.2439 10.7151 47.0789 10.6709C46.1719 10.428 45.5723 9.57285 45.6532 8.63758C45.7088 7.99486 45.2585 7.41172 44.6285 7.30996C43.9698 7.20317 43.2935 7.11539 42.6185 7.04904C42.5782 7.04498 42.5381 7.04309 42.4983 7.04309C41.9028 7.04309 41.394 7.4729 41.2885 8.06488C41.1236 8.9882 40.3234 9.65818 39.3854 9.65818C38.4475 9.65818 37.6471 8.9882 37.4824 8.06502C37.3767 7.4729 36.8679 7.04309 36.2724 7.04309C36.2326 7.04309 36.1926 7.04498 36.1523 7.04904C35.4771 7.11539 34.8008 7.20331 34.1427 7.30996C33.5122 7.41172 33.0619 7.99486 33.1175 8.63744C33.1984 9.57285 32.5988 10.428 31.6917 10.6709C31.527 10.7151 31.358 10.7375 31.1898 10.7375C30.4426 10.7375 29.7554 10.2991 29.4394 9.62058C29.236 9.1841 28.7965 8.90203 28.3196 8.90203C28.1717 8.90203 28.0264 8.92862 27.8879 8.98128C27.2651 9.21722 26.6351 9.47909 26.0156 9.75938C25.4344 10.0222 25.1515 10.7002 25.3718 11.3029C25.695 12.1869 25.3379 13.1699 24.5226 13.6405C24.2289 13.8101 23.8959 13.8998 23.5597 13.8998C22.9862 13.8999 22.446 13.6492 22.0778 13.2122C21.8403 12.9302 21.4944 12.7686 21.1283 12.7686C20.8706 12.7686 20.6241 12.8483 20.4154 12.9986C19.8704 13.3912 19.3296 13.807 18.8083 14.2342C18.3152 14.6379 18.2167 15.3654 18.5839 15.8901C19.122 16.6597 19.0305 17.7004 18.3664 18.3645C18.0016 18.7292 17.5166 18.9302 17.0009 18.9302C16.601 18.9302 16.2176 18.8098 15.8917 18.5818C15.6828 18.4359 15.4377 18.3587 15.1833 18.3587C14.8144 18.3587 14.4693 18.5217 14.2362 18.8061C13.8094 19.327 13.3937 19.8678 13.0005 20.4137C12.6277 20.9313 12.7216 21.6617 13.2139 22.076C13.9313 22.6802 14.1115 23.7084 13.6424 24.5209C13.2983 25.1168 12.656 25.487 11.9661 25.487C11.7398 25.487 11.5173 25.4477 11.3047 25.3699C11.1679 25.32 11.0249 25.2946 10.8796 25.2946C10.398 25.2946 9.95911 25.5769 9.76129 26.0137C9.48097 26.633 9.2191 27.263 8.98302 27.886C8.75672 28.4837 9.03743 29.1652 9.62235 29.4375C10.4744 29.8345 10.9162 30.7818 10.6728 31.6901C10.4467 32.5337 9.67893 33.123 8.80541 33.123C8.75033 33.123 8.69498 33.1205 8.63935 33.1158C8.60312 33.1127 8.56702 33.111 8.5312 33.111C7.92133 33.111 7.40846 33.5439 7.31173 34.1403C7.20533 34.7968 7.11755 35.4731 7.05067 36.1508C6.98867 36.7837 7.43505 37.368 8.06677 37.4805C8.98994 37.6453 9.65992 38.4457 9.65992 39.3835C9.65992 40.3216 8.98994 41.1219 8.06704 41.2866C7.43519 41.3992 6.98867 41.9832 7.05081 42.6171C7.1173 43.2916 7.20508 43.9679 7.31173 44.6265C7.40846 45.2232 7.92119 45.656 8.53095 45.656C8.56702 45.656 8.60339 45.6544 8.63935 45.6514C8.69484 45.6465 8.75019 45.6441 8.8053 45.6441C9.67879 45.6441 10.4467 46.2335 10.6728 47.0771C10.916 47.9854 10.4743 48.9327 9.62235 49.3294C9.03729 49.6019 8.75645 50.2835 8.98302 50.8808C9.21896 51.5038 9.48083 52.1337 9.76129 52.7534C9.95897 53.1903 10.3979 53.4725 10.8796 53.4725C11.0249 53.4725 11.1679 53.4473 11.3048 53.3971C11.5173 53.3195 11.7398 53.2801 11.9662 53.2801C12.656 53.2801 13.2983 53.6503 13.6424 54.2462C14.1115 55.0586 13.9313 56.0868 13.2141 56.6909C12.7214 57.1061 12.6277 57.8363 13.0005 58.3535C13.3934 58.8989 13.8092 59.4398 14.2364 59.9613C14.4695 60.2454 14.8147 60.4085 15.1833 60.4085C15.438 60.4085 15.683 60.3312 15.8919 60.1849C16.2176 59.9572 16.601 59.8368 17.0008 59.8368C17.5165 59.8368 18.0016 60.0378 18.3664 60.4026C19.0305 61.0668 19.122 62.1075 18.5839 62.8771C18.2167 63.4019 18.3154 64.1294 18.808 64.5327C19.3286 64.9592 19.8695 65.375 20.4152 65.7681C20.6241 65.9187 20.8708 65.9985 21.1284 65.9985C21.4945 65.9985 21.8406 65.8365 22.0778 65.5549C22.4459 65.118 22.986 64.8673 23.5597 64.8673C23.8959 64.8673 24.2289 64.9568 24.5226 65.1264C25.3379 65.5972 25.695 66.5803 25.3717 67.4644C25.1513 68.0674 25.4345 68.7452 26.0155 69.0076C26.637 69.2888 27.267 69.5506 27.8883 69.7859C28.0268 69.8383 28.172 69.8649 28.3196 69.8649C28.7965 69.8649 29.2361 69.583 29.4392 69.1466C29.7554 68.4679 30.4427 68.0294 31.1902 68.0294C31.3583 68.0294 31.5271 68.0519 31.6917 68.0959C32.5988 68.339 33.1984 69.1943 33.1175 70.1295C33.0619 70.7723 33.5122 71.3555 34.1422 71.4569C34.8008 71.5639 35.4771 71.6515 36.1516 71.718C36.1922 71.7221 36.2326 71.724 36.2726 71.724C36.868 71.724 37.3767 71.2941 37.4822 70.7023C37.6471 69.7788 38.4475 69.1089 39.3854 69.1089C40.3232 69.1089 41.1236 69.7788 41.2883 70.702C41.394 71.2941 41.9027 71.724 42.4981 71.724C42.5381 71.724 42.5784 71.7221 42.6184 71.718C43.2935 71.6515 43.9698 71.5639 44.6279 71.4572C45.2585 71.3555 45.7088 70.7723 45.6532 70.1295C45.5723 69.1943 46.1719 68.339 47.0788 68.0959C47.2436 68.0519 47.4124 68.0294 47.5805 68.0294C48.328 68.0294 49.0153 68.4679 49.3313 69.1466C49.5347 69.583 49.9742 69.8649 50.4511 69.8649C50.5987 69.8649 50.7439 69.8383 50.8827 69.7859C51.5035 69.5506 52.1337 69.2888 52.7545 69.0079C53.3362 68.7452 53.6193 68.0674 53.3989 67.4642C53.0757 66.5803 53.4329 65.5972 54.2481 65.1264C54.542 64.9568 54.8748 64.8673 55.211 64.8673C55.7847 64.8673 56.3248 65.118 56.6926 65.5546C56.9301 65.8365 57.2762 65.9985 57.6423 65.9985C57.8999 65.9985 58.1466 65.9188 58.3553 65.7684C58.9011 65.375 59.4419 64.9592 59.9624 64.5329C60.4553 64.1294 60.554 63.4019 60.1868 62.8768C59.6486 62.1075 59.7401 61.0668 60.4043 60.4026C60.7691 60.0378 61.2542 59.8368 61.7699 59.8368C62.1698 59.8368 62.5532 59.9572 62.8786 60.1849C63.0877 60.3312 63.3327 60.4085 63.5873 60.4085C63.956 60.4085 64.3012 60.2454 64.5345 59.961C64.9615 59.4398 65.3772 58.8989 65.77 58.3535C66.143 57.8363 66.0493 57.1061 65.5567 56.6912C64.8394 56.0868 64.6594 55.0586 65.1283 54.2462C65.4724 53.6503 66.1147 53.2801 66.8046 53.2801C67.0311 53.2801 67.2536 53.3195 67.466 53.3971C67.6028 53.4473 67.7458 53.4725 67.8911 53.4725C68.3728 53.4725 68.8117 53.1903 69.0094 52.7534C69.2899 52.1339 69.5517 51.5038 69.7874 50.8813C70.0141 50.2835 69.7334 49.6019 69.1485 49.3294C68.2964 48.9327 67.8545 47.9854 68.0979 47.0771C68.3239 46.2335 69.0919 45.6441 69.9654 45.6441C70.0205 45.6441 70.0758 45.6465 70.1308 45.6511C70.1673 45.6544 70.2037 45.656 70.2397 45.656C70.8495 45.656 71.3622 45.2232 71.459 44.6265C71.5653 43.9701 71.6531 43.2938 71.7199 42.6168C71.7823 41.9837 71.3359 41.3992 70.7038 41.2866ZM70.6361 44.4934C70.6026 44.7001 70.4118 44.8389 70.2031 44.8208C68.8904 44.7073 67.6456 45.5442 67.2927 46.8613C66.9394 48.1796 67.6006 49.5282 68.7964 50.0852C68.9863 50.1737 69.0823 50.3898 69.0081 50.5857C68.7741 51.2033 68.5208 51.8113 68.25 52.4097C68.1646 52.5984 67.9468 52.6853 67.7523 52.6142C66.5121 52.1607 65.0893 52.6465 64.4064 53.8294C63.7251 55.0095 64.0127 56.4804 65.0196 57.3286C65.1796 57.4634 65.2161 57.6964 65.0938 57.8662C64.7085 58.4011 64.3068 58.9234 63.8897 59.4326C63.7586 59.5926 63.5261 59.6204 63.3565 59.5019C62.2763 58.7466 60.7793 58.8487 59.8149 59.8131C58.8505 60.7776 58.7484 62.2745 59.5037 63.3547C59.6222 63.5242 59.5944 63.7568 59.4344 63.8879C58.9252 64.3051 58.4029 64.7067 57.868 65.092C57.6982 65.2143 57.4652 65.1779 57.3304 65.0178C56.4822 64.0109 55.0113 63.7233 53.8312 64.4046C52.6483 65.0876 52.1625 66.5103 52.616 67.7505C52.6871 67.945 52.6002 68.1628 52.4115 68.2482C51.8131 68.519 51.2051 68.7723 50.5875 69.0063C50.3916 69.0805 50.1755 68.9845 50.087 68.7946C49.53 67.5988 48.1814 66.9376 46.8631 67.2909C45.546 67.6438 44.7091 68.8886 44.8226 70.2014C44.8407 70.41 44.7019 70.6009 44.4952 70.6343C43.8488 70.739 43.1957 70.8236 42.5368 70.8885C42.329 70.909 42.1457 70.7612 42.109 70.5556C41.8777 69.2597 40.7479 68.2754 39.3853 68.2754C38.0228 68.2754 36.893 69.2597 36.6617 70.5556C36.625 70.7612 36.4417 70.909 36.2339 70.8885C35.575 70.8236 34.922 70.739 34.2755 70.6343C34.0688 70.6009 33.93 70.41 33.9481 70.2014C34.0616 68.8886 33.2247 67.6438 31.9076 67.2909C30.5893 66.9376 29.2407 67.5988 28.6837 68.7946C28.5952 68.9845 28.3791 69.0805 28.1832 69.0063C27.5656 68.7723 26.9576 68.519 26.3592 68.2482C26.1705 68.1628 26.0836 67.945 26.1547 67.7505C26.6082 66.5103 26.1224 65.0876 24.9395 64.4046C23.7594 63.7233 22.2885 64.0109 21.4403 65.0178C21.3055 65.1779 21.0724 65.2143 20.9027 65.092C20.3678 64.7067 19.8455 64.3051 19.3363 63.8879C19.1763 63.7568 19.1484 63.5242 19.267 63.3547C20.0223 62.2745 19.9202 60.7776 18.9558 59.8131C17.9914 58.8487 16.4944 58.7466 15.4142 59.5019C15.2447 59.6204 15.0121 59.5926 14.881 59.4326C14.4638 58.9234 14.0622 58.4011 13.6769 57.8662C13.5546 57.6964 13.591 57.4634 13.751 57.3286C14.758 56.4804 15.0457 55.0095 14.3643 53.8294C13.6814 52.6465 12.2586 52.1607 11.0184 52.6142C10.8239 52.6853 10.6061 52.5984 10.5207 52.4097C10.2499 51.8113 9.99659 51.2033 9.7626 50.5857C9.68838 50.3898 9.78441 50.1737 9.97431 50.0852C11.1701 49.5282 11.8313 48.1796 11.478 46.8613C11.1251 45.5442 9.8803 44.7073 8.56755 44.8208C8.35892 44.8389 8.16808 44.7001 8.13462 44.4934C8.02995 43.847 7.94531 43.1939 7.8804 42.535C7.85994 42.3272 8.00774 42.1439 8.21326 42.1072C9.5092 41.8759 10.4935 40.7461 10.4935 39.3836C10.4935 38.021 9.5092 36.8912 8.21326 36.6599C8.00774 36.6232 7.85994 36.4399 7.8804 36.2321C7.94531 35.5732 8.02992 34.9201 8.13459 34.2737C8.16808 34.067 8.35889 33.9282 8.56755 33.9463C9.8803 34.0598 11.1251 33.2229 11.478 31.9058C11.8313 30.5875 11.1701 29.2389 9.97431 28.6819C9.78441 28.5934 9.68838 28.3773 9.7626 28.1814C9.99656 27.5638 10.2499 26.9558 10.5207 26.3574C10.6061 26.1687 10.8239 26.0818 11.0184 26.1529C12.2586 26.6064 13.6814 26.1206 14.3643 24.9377C15.0457 23.7576 14.758 22.2867 13.751 21.4385C13.591 21.3037 13.5546 21.0706 13.6769 20.9009C14.0622 20.366 14.4638 19.8437 14.881 19.3345C15.0121 19.1745 15.2447 19.1467 15.4142 19.2652C16.4944 20.0205 17.9914 19.9184 18.9558 18.954C19.9202 17.9895 20.0223 16.4926 19.267 15.4124C19.1484 15.2429 19.1763 15.0103 19.3363 14.8792C19.8455 14.462 20.3678 14.0604 20.9027 13.6751C21.0724 13.5528 21.3055 13.5892 21.4403 13.7492C22.2885 14.7562 23.7594 15.0439 24.9395 14.3625C26.1224 13.6796 26.6082 12.2568 26.1547 11.0166C26.0836 10.8221 26.1705 10.6043 26.3592 10.5189C26.9576 10.2481 27.5656 9.9948 28.1832 9.7608C28.3791 9.68658 28.5952 9.78261 28.6837 9.97251C29.2407 11.1683 30.5893 11.8295 31.9076 11.4762C33.2247 11.1233 34.0616 9.87848 33.9481 8.56572C33.93 8.3571 34.0688 8.16625 34.2755 8.1328C34.922 8.02812 35.575 7.94348 36.2339 7.8786C36.4417 7.85812 36.625 8.00595 36.6617 8.21146C36.893 9.50741 38.0228 10.4917 39.3853 10.4917C40.7479 10.4917 41.8777 9.50741 42.109 8.21146C42.1457 8.00595 42.329 7.85812 42.5368 7.8786C43.1957 7.94348 43.8488 8.02812 44.4952 8.1328C44.7019 8.16625 44.8407 8.3571 44.8226 8.56572C44.7091 9.87848 45.546 11.1233 46.8631 11.4762C48.1814 11.8295 49.53 11.1683 50.087 9.97251C50.1755 9.78261 50.3916 9.68658 50.5875 9.7608C51.2051 9.9948 51.8131 10.2481 52.4115 10.5189C52.6002 10.6043 52.6871 10.8221 52.616 11.0166C52.1625 12.2568 52.6483 13.6796 53.8312 14.3625C55.0113 15.0439 56.4822 14.7562 57.3304 13.7492C57.4652 13.5892 57.6982 13.5528 57.868 13.6751C58.4029 14.0604 58.9252 14.462 59.4344 14.8792C59.5944 15.0103 59.6222 15.2429 59.5037 15.4124C58.7484 16.4926 58.8505 17.9895 59.8149 18.954C60.7793 19.9184 62.2763 20.0205 63.3565 19.2652C63.5261 19.1467 63.7586 19.1745 63.8897 19.3345C64.3068 19.8437 64.7085 20.366 65.0938 20.9009C65.2161 21.0706 65.1796 21.3037 65.0196 21.4385C64.0127 22.2867 63.7251 23.7576 64.4064 24.9377C65.0893 26.1206 66.5121 26.6064 67.7523 26.1529C67.9468 26.0818 68.1646 26.1687 68.25 26.3574C68.5208 26.9558 68.7741 27.5638 69.0081 28.1814C69.0823 28.3773 68.9863 28.5934 68.7964 28.6818C67.6006 29.2389 66.9394 30.5875 67.2927 31.9058C67.6456 33.2229 68.8904 34.0598 70.2032 33.9463C70.4118 33.9282 70.6026 34.067 70.6361 34.2737C70.7408 34.9201 70.8254 35.5732 70.8903 36.2321C70.9108 36.4399 70.7629 36.6232 70.5574 36.6599C69.2615 36.8912 68.2771 38.021 68.2771 39.3836C68.2771 40.7461 69.2615 41.8759 70.5574 42.1072C70.7629 42.1439 70.9108 42.3272 70.8903 42.535C70.8254 43.1939 70.7408 43.847 70.6361 44.4934Z" fill="#23354F"/>
<path d="M62.1051 47.7494C58.3561 44.5595 56.0856 40.825 55.5369 36.9477C54.9889 33.0773 56.1751 29.1828 58.9673 25.6855C59.0582 25.5753 59.0713 25.4211 58.9989 25.295C57.7136 22.9817 55.794 20.8953 53.2948 19.0965C53.2319 19.0528 53.1617 19.0306 53.0889 19.0306C53.0028 19.0306 52.9204 19.062 52.8565 19.119C51.4228 20.385 49.0166 21.2452 46.2557 21.4783C45.7737 21.5188 45.2872 21.5392 44.8101 21.5392C42.7262 21.5392 40.8109 21.1446 39.5554 20.4565C39.5046 20.4285 39.4462 20.4136 39.3874 20.4136C39.3295 20.4136 39.2719 20.428 39.2206 20.4554C37.95 21.1505 36.0166 21.5486 33.9145 21.5486C30.6262 21.5486 27.6338 20.6401 25.9095 19.1183C25.8459 19.0619 25.7635 19.0308 25.6775 19.0308C25.6033 19.0308 25.5322 19.0535 25.472 19.0968C22.9707 20.9003 21.0522 22.9865 19.7694 25.2977C19.7006 25.4221 19.7135 25.574 19.8018 25.6851C22.5949 29.1828 23.7816 33.0773 23.2339 36.9478C22.6851 40.825 20.4147 44.5595 16.6679 47.7474C16.5541 47.8458 16.514 47.9979 16.5644 48.1356C19.2352 55.4183 25.9236 57.8996 31.2977 59.8934C34.7946 61.191 37.8146 62.3115 39.0875 64.3875C39.1492 64.4901 39.2644 64.5545 39.3874 64.5545C39.5088 64.5545 39.6203 64.4932 39.6857 64.3906C40.9597 62.3101 43.9791 61.19 47.4752 59.8929C52.8485 57.8993 59.5358 55.4183 62.2055 48.1358C62.257 48.001 62.218 47.8483 62.1051 47.7494ZM20.4988 25.4351C21.6919 23.3615 23.428 21.4764 25.6621 19.8287C27.5261 21.3418 30.5972 22.2412 33.9232 22.2412C36.0816 22.2412 38.0161 21.8579 39.3874 21.1601C40.7585 21.859 42.6924 22.243 44.8501 22.243C48.1729 22.243 51.2417 21.3428 53.1049 19.8287C55.339 21.4736 57.0763 23.3586 58.2718 25.4351C52.5418 32.7802 53.7604 41.4507 61.4611 48.1217C58.8505 54.9231 52.68 57.2125 47.2319 59.2339L47.2158 59.24C43.8356 60.4961 40.8988 61.5872 39.3874 63.5827C37.8742 61.5867 34.9362 60.4955 31.5543 59.2394L31.5407 59.2345C26.0917 57.2128 19.9204 54.9231 17.3099 48.1217C25.0107 41.4504 26.2292 32.7799 20.4988 25.4351Z" fill="#23354F"/>
<path fill-rule="evenodd" clip-rule="evenodd" d="M34.4612 23.1841H33.4087C30.7109 23.0694 27.9097 22.5184 25.6799 21.0665C24.1207 22.3167 22.7714 23.7367 21.739 25.3805C22.6717 26.6041 23.3733 27.9521 23.9759 29.3306L24.5325 30.9205L24.9054 32.5241L25.1006 34.132L25.115 35.7382L24.9563 37.3339L24.6453 38.8166H38.6199V22.5225C37.2983 22.9641 35.8423 23.127 34.4612 23.1841ZM35.6434 25.3613L36.4856 25.8776L36.229 26.282L35.3785 25.7488L35.6434 25.3613ZM26.1268 27.8462L26.4523 26.908L29.1004 25.3805L30.1648 25.4574L30.4813 25.7696L26.4427 28.2587L26.1268 27.8462ZM29.3091 27.166L28.4237 27.7187L28.1744 27.3497L29.042 26.8137L29.3091 27.166ZM26.9619 28.7848L30.878 26.3442L31.1928 26.7559L31.002 27.6085L28.372 29.2576L27.3462 29.2091L26.9619 28.7848ZM34.7286 37.1459L31.9124 33.0761L28.7245 37.617L27.5047 36.9329L31.2107 31.7263L29.2408 28.875L30.1595 28.2973L31.8662 30.5904L34.0381 27.5875L34.9068 28.179L32.5921 31.555L36.0871 36.4613C36.793 37.4522 35.3689 38.0741 34.7286 37.1459ZM35.5934 28.448L32.8186 26.5487C32.8186 26.5487 34.0603 25.065 34.07 25.1037L36.7346 26.767L37.6782 28.5507L35.5934 28.448Z" fill="#23354F"/>
<path fill-rule="evenodd" clip-rule="evenodd" d="M57.0823 44.9279L56.106 43.4819L55.2864 41.9919L54.6234 40.469L54.5369 40.1987H40.1326V61.4746C41.4791 60.4788 43.0882 59.8042 44.6645 59.1695C46.3375 58.5231 48.0264 57.9119 49.6965 57.2524L51.3858 56.5293C52.2188 56.1344 53.0242 55.7241 53.8238 55.2767L55.3475 54.2909L56.7605 53.161L57.4163 52.5337L58.0369 51.8553L58.6217 51.1282C59.234 50.2418 59.8022 49.3487 60.2015 48.3605C59.0283 47.3261 58.0145 46.1422 57.0823 44.9279ZM51.6843 45.3235L53.5183 46.0098L53.636 47.3329L53.1058 47.1146L53.1507 46.21L51.7461 45.6725L50.9465 46.2253L50.4164 46.0056L51.6843 45.3235ZM49.5755 45.493L49.6257 45.453L49.6744 45.419L49.7327 45.3953L49.7958 45.3841L49.8596 45.3812L49.9205 45.3901L49.9824 45.4116L50.0405 45.4469L50.0821 45.4873L50.1196 45.5331L50.1453 45.5859L50.1588 45.6432V45.7003L50.152 45.7574L50.1283 45.8177L48.8055 48.2002L48.7709 48.2532L48.7238 48.2953L48.6732 48.33L48.6148 48.3525L48.5539 48.3648H48.4908L48.4271 48.3564L48.3661 48.3346L48.3114 48.3034L48.2642 48.26L48.2296 48.2132L48.2032 48.1605L48.1906 48.1065V48.0473L48.2005 47.9892L48.2211 47.9309L49.5406 45.5484L49.5755 45.493ZM48.1824 47.6079L47.8496 47.4362L48.8758 45.5747L49.2268 45.7188L48.1824 47.6079ZM47.9786 45.1965L46.9849 46.9905L43.5239 45.2102L44.3562 43.7068L47.9786 45.1965ZM44.9356 47.9892C44.9356 48.3953 44.5694 48.7308 44.1228 48.7308C43.6726 48.7308 43.308 48.3953 43.308 47.9892C43.308 47.5796 43.6726 47.246 44.1228 47.246C44.5694 47.246 44.9356 47.5796 44.9356 47.9892ZM43.8107 43.1139L43.8636 43.0902L43.9266 43.0783L43.9901 43.0776L44.0514 43.0856L44.1173 43.108L44.1729 43.1419L44.2185 43.1822L44.2546 43.2292L44.2773 43.2817L44.2927 43.3395L44.2954 43.3967L44.2844 43.453L44.2576 43.5137L43.2817 45.2771L43.2473 45.3301L43.2033 45.372L43.1479 45.4038L43.0913 45.427L43.0293 45.4413L42.9667 45.4442L42.9034 45.4347L42.8406 45.4106L42.7875 45.3786L42.7403 45.3382L42.7057 45.2912L42.6786 45.2377L42.6637 45.182V45.124L42.6754 45.0651L42.6999 45.0057L43.6726 43.2428L43.7115 43.1904L43.7566 43.149L43.8107 43.1139ZM43.236 42.4527L43.2946 42.4302L43.3541 42.418L43.421 42.4149L43.4821 42.4252L43.5417 42.4474L43.6021 42.4776L43.645 42.5179L43.6796 42.5665L43.7061 42.6213L43.7188 42.6754V42.7321L43.7115 42.7925L43.6866 42.8509L42.3689 45.232L42.3328 45.2874L42.2832 45.3301L42.2333 45.3606L42.1766 45.3841L42.1135 45.3967L42.0526 45.3995L41.9886 45.3901L41.9255 45.3674L41.8727 45.3358L41.8257 45.2954L41.7903 45.2463L41.7641 45.1937L41.7488 45.138V45.0825L41.7602 45.0224L41.7818 44.9625L43.1022 42.5787L43.1369 42.5263L43.1839 42.4858L43.236 42.4527ZM41.3731 45.2817L41.3312 45.3235L41.277 45.3569L41.2169 45.3786L41.1558 45.3907L41.0948 45.3938L41.029 45.3841L40.968 45.3621L40.9154 45.3301L40.8662 45.2897L40.8315 45.2406L40.8063 45.1892L40.7925 45.1339V45.0771L40.8023 45.0167L40.823 44.9584L42.5301 41.8803L42.5675 41.8274L42.6091 41.7863L42.6597 41.7523L42.7222 41.7306L42.7791 41.7177L42.8448 41.7146L42.906 41.7249L42.9667 41.7466L43.0265 41.7791L43.0729 41.8195L43.1092 41.8649L43.1342 41.9195L43.1479 41.9747V42.033L43.1369 42.0925L43.112 42.1488L41.4092 45.2269L41.3731 45.2817ZM42.2809 51.6552C41.8341 51.6552 41.4681 51.3218 41.4681 50.9093C41.4681 50.5017 41.8341 50.1675 42.2809 50.1675C42.7306 50.1675 43.0941 50.5017 43.0941 50.9093C43.0941 51.3218 42.7306 51.6552 42.2809 51.6552ZM42.3826 49.4622C42.3826 49.0527 42.7514 48.7186 43.196 48.7186C43.645 48.7186 44.0085 49.0527 44.0085 49.4622C44.0085 49.8715 43.645 50.2034 43.196 50.2034C42.7514 50.2034 42.3826 49.8715 42.3826 49.4622ZM44.1116 51.6552C43.6659 51.6552 43.2998 51.3218 43.2998 50.9093C43.2998 50.5017 43.6659 50.1675 44.1116 50.1675C44.5624 50.1675 44.9271 50.5017 44.9271 50.9093C44.9271 51.3218 44.5624 51.6552 44.1116 51.6552ZM44.345 49.4123C44.345 49.0279 44.6864 48.7158 45.1053 48.7158C45.5244 48.7158 45.8634 49.0279 45.8634 49.4123C45.8634 49.7927 45.5244 50.1054 45.1053 50.1054C44.6864 50.1054 44.345 49.7927 44.345 49.4123ZM45.9615 51.7159C45.51 51.7159 45.1449 51.383 45.1449 50.9735C45.1449 50.5643 45.51 50.2312 45.9615 50.2312C46.4076 50.2312 46.7721 50.5643 46.7721 50.9735C46.7721 51.383 46.4076 51.7159 45.9615 51.7159ZM47.2337 47.7764L47.1727 47.7665L47.1082 47.7457L47.0527 47.7105L47.0069 47.6705L46.971 47.6233L46.9458 47.5719L46.9301 47.5144V47.4558L46.9419 47.4008L46.9668 47.3389L48.2824 44.9576L48.3182 44.9062L48.3661 44.861L48.4176 44.8273L48.4742 44.8053L48.5359 44.7927L48.6011 44.7915L48.6618 44.8014L48.7238 44.8218L48.782 44.8537L48.8279 44.8949L48.8638 44.943L48.8862 44.9957L48.9021 45.0514L48.9048 45.1108L48.8951 45.1686L48.8669 45.2269L47.5486 47.6094L47.5124 47.6621L47.469 47.7047L47.4144 47.7389L47.3578 47.7611L47.2969 47.7749L47.2337 47.7764ZM47.8967 51.557L49.0339 50.1344L49.1146 50.0362L49.1895 49.9614L49.2629 49.9047L49.3279 49.8616L49.3915 49.8316L49.459 49.8138L49.5297 49.8043L49.6076 49.7999L49.6816 49.8043L49.7509 49.8138L49.8164 49.8333L49.8774 49.8643L49.9454 49.9061L50.0142 49.9661L50.093 50.047L50.177 50.145L51.3044 51.557H47.8967ZM51.9132 51.3514L51.8721 51.4257L51.8111 51.485L51.7292 51.5251L51.6414 51.5498L51.5584 51.557H51.4675L50.2809 50.0723L50.1951 49.9669L50.1089 49.8807L50.0294 49.8132L49.9454 49.7601L49.8664 49.7226L49.7805 49.6991L49.6925 49.6857L49.6076 49.6786L49.5156 49.6857L49.4295 49.6974L49.346 49.7226L49.2629 49.7573L49.1785 49.8084L49.0969 49.8772L49.0114 49.9603L48.927 50.0635L47.7339 51.5543L47.6616 51.5471L47.5597 51.515L47.469 51.4601L47.3969 51.3846L47.3538 51.2926L47.3468 51.18L47.3857 51.0446L47.4874 50.8847L49.0339 48.9481L49.1146 48.8526L49.1895 48.777L49.2629 48.7186L49.3279 48.6767L49.3915 48.648L49.459 48.6297L49.5297 48.618L49.6076 48.6139L49.6816 48.618L49.7509 48.6312L49.8164 48.6495L49.8774 48.6782L49.9454 48.7201L50.0142 48.7795L50.093 48.8595L50.177 48.9573L51.7572 50.9365L51.8721 51.1129L51.9214 51.2478L51.9132 51.3514ZM49.0926 48.0502L50.1742 46.0985L53.6785 47.555L52.4423 49.7889L49.0926 48.0502ZM53.0626 50.3762L53.0185 50.4204L52.9653 50.4536L52.9067 50.4754L52.8457 50.4877L52.7839 50.4907L52.7215 50.4811L52.658 50.4584L52.6031 50.4268L52.5562 50.385L52.5199 50.3373L52.4948 50.2859L52.4839 50.2294L52.481 50.1703L52.4908 50.1134L52.5156 50.0556L53.958 47.4435L53.9942 47.3909L54.0432 47.3469L54.0934 47.3169L54.15 47.2929L54.2131 47.2806L54.2768 47.278L54.3378 47.2872L54.4011 47.3095L54.4579 47.3415L54.5008 47.3841L54.5369 47.4313L54.5635 47.4824L54.5775 47.5388L54.5818 47.5966L54.5708 47.6549L54.5442 47.7137L53.0974 50.3238L53.0626 50.3762ZM53.3414 50.2349L54.6137 47.935L54.7906 48.0076L53.5113 50.3206L53.3414 50.2349ZM54.154 50.8913L54.1112 50.9355L54.0573 50.9685L53.998 50.9903L53.9372 51.0033L53.8772 51.0044L53.8088 50.9953L53.7491 50.9728L53.6963 50.9419L53.6469 50.8987L53.6112 50.8513L53.5863 50.8004L53.5722 50.7441V50.6857L53.5819 50.6271L53.6083 50.5677L55.0506 47.9584L55.0882 47.9036L55.1318 47.8621L55.1845 47.8305L55.2413 47.8068L55.3043 47.7957L55.3679 47.793L55.4297 47.8029L55.4921 47.8235L55.5464 47.8553L55.5922 47.8967L55.6302 47.9461L55.6553 47.9972L55.6703 48.0529L55.6733 48.1122L55.662 48.1685L55.6372 48.2271L54.1909 50.8372L54.154 50.8913ZM56.3075 50.1882L56.2369 50.3084L56.1543 50.4227L56.0628 50.5254L55.9688 50.622L55.8682 50.7049L55.7592 50.782L55.6527 50.8472L55.5383 50.9005L55.422 50.9477L55.3069 50.9796L55.1925 51.0002L55.076 51.0097L54.9645 51.0067L54.8558 50.9939L54.7476 50.9656L54.6415 50.9238L54.3967 50.8004L55.7134 48.419L55.9688 48.5251L56.0669 48.5777L56.1543 48.6423L56.2339 48.7144L56.3009 48.7956L56.3635 48.887L56.4096 48.985L56.4525 49.0874L56.4816 49.1989L56.4959 49.3135L56.5079 49.4324L56.5049 49.5558L56.4856 49.6801L56.4609 49.8084L56.422 49.9352L56.3708 50.0635L56.3075 50.1882ZM57.842 50.7257L57.7879 50.8536L57.7039 50.9702L57.607 51.0625L57.4883 51.1397L57.3574 51.1895L57.2215 51.2184L57.0765 51.2211L56.9303 51.1991L56.7938 51.1521L56.6655 51.0776L56.5628 50.9865L56.4816 50.8792L56.4246 50.76L56.3956 50.6343L56.3887 50.5033L56.4137 50.3707L56.4677 50.244L56.5489 50.1303L56.6488 50.0332L56.7645 49.9603L56.8941 49.9104L57.035 49.8807L57.1765 49.8757L57.3213 49.8984L57.4578 49.9463L57.5858 50.0188L57.6901 50.112L57.7741 50.2207L57.8268 50.3373L57.8599 50.4657L57.863 50.5969L57.842 50.7257Z" fill="#23354F"/>
<path fill-rule="evenodd" clip-rule="evenodd" d="M30.5271 42.6335V50.2035L36.1132 50.928L34.8076 42.8137C33.1525 41.684 31.9582 41.4188 30.5271 42.6335Z" fill="#D25613"/>
<path fill-rule="evenodd" clip-rule="evenodd" d="M25.6029 42.8137L24.2986 50.928L29.9632 50.2035L29.9672 42.6336C28.503 41.3768 27.2336 41.626 25.6029 42.8137Z" fill="#D25613"/>
<path fill-rule="evenodd" clip-rule="evenodd" d="M24.2139 40.1989L24.1275 40.4691L23.466 41.992L22.6465 43.4828L21.6688 44.9281C20.7333 46.1424 19.7213 47.3262 18.5498 48.3606C18.9517 49.3488 19.518 50.2419 20.1291 51.1283L20.7128 51.8554L21.3319 52.5339L21.9919 53.1611L23.4024 54.2911C24.1608 54.8062 24.915 55.2703 25.723 55.7212L27.3643 56.5295C29.5695 57.5008 31.8353 58.3006 34.0881 59.1696C35.6653 59.8043 37.2732 60.4789 38.6199 61.4747V40.1989H24.2139ZM31.6197 51.283C31.3418 51.7217 30.8752 51.9427 30.2165 51.951C29.5595 51.9427 29.0891 51.7217 28.8135 51.283L22.8526 52.1853L24.5074 43.3034C26.2574 41.5829 28.3542 40.8152 30.2165 42.4182C32.0751 40.8152 34.172 41.5829 35.9201 43.3034L37.581 52.1853L31.6197 51.283Z" fill="#D25613"/>
<path d="M44.5249 29.8806C44.5705 29.9409 44.617 30.0019 44.6641 30.0637C44.7163 29.9946 44.7699 29.9251 44.8245 29.8556C44.7233 29.8634 44.6238 29.8717 44.5249 29.8806Z" fill="#D25613"/>
<path d="M44.3066 30.56C44.1445 30.3493 43.9938 30.1489 43.8463 29.9515C43.6086 29.9803 43.3374 30.0164 43.0872 30.0664C41.9196 30.2905 41.7289 30.5288 41.7058 30.5658C41.7058 30.5681 41.7056 30.5703 41.7056 30.5724C41.7055 30.5724 41.7056 30.5723 41.7056 30.5724C41.7098 30.5724 41.8181 30.8133 43.0663 31.0767L43.1722 31.0946C43.3803 31.1299 43.5952 31.1665 43.8179 31.2176C43.9955 30.9686 44.1598 30.7476 44.3066 30.56Z" fill="#D25613"/>
<path d="M44.9127 31.343C44.8315 31.242 44.7519 31.142 44.674 31.0427C44.6117 31.1239 44.5472 31.2098 44.4807 31.3003C44.6201 31.3154 44.7632 31.3295 44.9127 31.343Z" fill="#D25613"/>
<path d="M46.9485 29.2158H46.9514C47.1786 29.2158 47.4119 29.2205 47.6484 29.2299C47.3924 28.9219 47.1203 28.6092 46.8371 28.2977C46.5995 28.5649 46.3472 28.8654 46.0691 29.2124C46.4036 29.2046 46.6802 29.2057 46.9485 29.2158Z" fill="#D25613"/>
<path d="M45.3014 29.2394C45.722 28.7007 46.0752 28.273 46.4115 27.8953C46.4182 27.8853 46.4259 27.8746 46.4341 27.8636L46.4179 27.8466C46.3528 27.7773 46.2874 27.7079 46.2211 27.6396C45.4453 26.8168 44.6732 26.1061 43.8575 25.4631C42.7579 24.5833 42.1438 24.3464 41.8682 24.3464C41.801 24.3464 41.754 24.3604 41.725 24.3827C41.6977 24.4122 41.4164 24.7905 42.461 26.7091C42.877 27.4793 43.4039 28.3136 44.1173 29.3318C44.4835 29.295 44.879 29.2591 45.3014 29.2394Z" fill="#D25613"/>
<path d="M48.7198 30.5223C48.5469 30.2819 48.353 30.0473 48.1833 29.8469C47.7875 29.8168 47.3575 29.801 46.9378 29.801C46.4672 29.7835 46.0142 29.7963 45.5936 29.8131C45.5753 29.8348 45.538 29.8807 45.4622 29.9769C45.3116 30.1681 45.1565 30.3791 45.032 30.5504C45.2301 30.8067 45.4423 31.0673 45.6476 31.3199L45.7157 31.4037L45.7241 31.4043C45.917 31.4146 46.1101 31.4198 46.3062 31.4248C46.5017 31.4301 46.6999 31.4354 46.9042 31.4457C47.3874 31.4453 47.7936 31.444 48.1934 31.4315C48.3243 31.2698 48.4629 31.0896 48.6056 30.8958C48.6724 30.809 48.7389 30.7216 48.8063 30.6325L48.7969 30.6204C48.7758 30.5933 48.7548 30.5663 48.733 30.5395L48.7792 30.4795L48.7198 30.5223ZM47.4192 31.1504C47.2676 31.2768 47.0904 31.3529 46.913 31.3529C46.6855 31.3529 46.5336 31.2768 46.3818 31.1251C46.2551 30.9732 46.1793 30.7963 46.1793 30.6188C46.1793 30.391 46.2551 30.2393 46.407 30.0874C46.5336 29.9609 46.7107 29.8848 46.913 29.8848C47.1159 29.8848 47.2928 29.9609 47.4448 30.1127C47.5715 30.2393 47.6473 30.4167 47.6473 30.6188C47.6473 30.8215 47.5715 30.9986 47.4192 31.1504Z" fill="#D25613"/>
<path d="M44.1019 31.8453L44.0735 31.8868C44.0376 31.9381 44.0081 31.98 43.979 32.0263C43.2967 33.053 42.7581 33.9725 42.328 34.8439C41.3288 36.8342 41.5678 37.2353 41.6647 37.3108C41.7304 37.3609 42.1468 37.5397 43.8964 36.0947C44.7243 35.3694 45.5686 34.5218 46.4762 33.5052C46.4772 33.5044 46.4779 33.5034 46.4788 33.5025C46.5273 33.4486 46.5765 33.3923 46.626 33.3359L46.629 33.3325C46.2318 32.8949 45.83 32.4518 45.4225 31.9705C44.9638 31.9388 44.531 31.8979 44.1019 31.8453Z" fill="#D25613"/>
<path d="M52.118 23.9443C52.0799 23.9153 51.6677 23.6867 49.9178 25.185C49.0925 25.8673 48.1936 26.7603 47.245 27.8399C47.2396 27.846 47.2339 27.8519 47.228 27.8575C47.586 28.2494 47.9261 28.6422 48.2396 29.0259C48.3155 29.0958 48.3928 29.1885 48.4676 29.2782L48.4696 29.2805C48.8725 29.296 49.2732 29.3314 49.6913 29.3883C50.4068 28.3442 51.0097 27.3434 51.4844 26.4131C52.4751 24.3828 52.186 24.0003 52.118 23.9443Z" fill="#D25613"/>
<path d="M49.9651 30.0206L49.9644 30.0217C49.9 30.1139 49.8358 30.2061 49.7695 30.2991C49.6963 30.4072 49.6194 30.5154 49.542 30.6224C49.6806 30.8031 49.8165 30.9832 49.9482 31.1601L50.0382 31.2808L50.1153 31.2674C50.3304 31.2299 50.5332 31.1946 50.7181 31.1592C51.8429 30.9433 52.0746 30.7375 52.1157 30.6876C52.0863 30.6416 51.8934 30.4146 50.7599 30.1697C50.7599 30.1697 50.759 30.1696 50.7585 30.1695C50.5079 30.1104 50.2755 30.0695 50.0038 30.0266L49.9651 30.0206Z" fill="#D25613"/>
<path d="M46.8892 32.0307C46.6754 32.0204 46.4818 32.0153 46.2912 32.0102C46.27 32.0097 46.2491 32.009 46.2283 32.0082C46.4901 32.3073 46.7506 32.5954 47.015 32.8866C47.2551 32.6047 47.4976 32.3139 47.7361 32.0269C47.4612 32.0304 47.1799 32.0307 46.8892 32.0307Z" fill="#D25613"/>
<path d="M53.0414 21.0674C50.6672 22.6101 47.6381 23.1529 44.7749 23.1942L43.7264 23.1632C42.5118 23.076 41.248 22.9115 40.0908 22.5242V38.8325H54.0758L53.7657 37.3488L53.6059 35.7505L53.6203 34.1431L53.8146 32.5341L54.1884 30.9291L54.7473 29.3379C55.3498 27.9566 56.0528 26.6095 56.9846 25.3848C55.9507 23.7411 54.5988 22.317 53.0414 21.0674ZM50.889 29.5986C52.1453 29.87 52.7062 30.2085 52.7062 30.696C52.7062 31.1773 52.1622 31.4781 50.8285 31.7342C50.7009 31.7586 50.5644 31.7829 50.4248 31.8075C51.0318 32.6553 51.5373 33.467 51.9285 34.2215C52.8138 35.8487 53.0109 36.8449 52.5304 37.2655C52.3873 37.3939 52.2092 37.4592 52.0018 37.4592C51.4842 37.4592 50.7599 37.0714 49.6531 36.2022C48.8228 35.5431 47.95 34.7337 47.0589 33.7961L47.0486 33.7874C47.0411 33.7805 47.0336 33.7738 47.0264 33.767L47.0224 33.7716C46.9856 33.8136 46.9489 33.8555 46.9127 33.8956C45.9882 34.931 45.1257 35.7963 44.2757 36.5405C43.1269 37.4895 42.339 37.9309 41.7944 37.9309C41.6071 37.9309 41.4431 37.8781 41.3072 37.7742C40.7575 37.3462 40.9109 36.3621 41.804 34.583C42.2402 33.6993 42.7835 32.7699 43.4644 31.7431C43.3327 31.717 43.202 31.6935 43.074 31.6718L42.9563 31.6516C41.6557 31.3774 41.0905 31.0338 41.1211 30.5373C41.1291 30.06 41.7008 29.7365 42.9747 29.4919C43.1152 29.4639 43.2716 29.438 43.46 29.4117C42.8192 28.484 42.3368 27.7116 41.9462 26.9883C41.0591 25.3586 40.8643 24.3925 41.3332 23.9477C41.3377 23.9432 41.3431 23.9386 41.3485 23.9343C41.8557 23.5139 42.7958 23.8642 44.2216 25.0046C45.0586 25.6644 45.8508 26.3935 46.6426 27.2334C46.6996 27.2922 46.7565 27.3525 46.8135 27.413L46.8265 27.4269C46.8287 27.4252 46.8308 27.4236 46.833 27.4221C47.7913 26.3338 48.7023 25.4305 49.541 24.7371C51.0137 23.4759 51.9484 23.0783 52.4821 23.4858C53.0241 23.932 52.8817 24.8851 52.0083 26.6744C51.5586 27.5566 50.9947 28.502 50.3313 29.4873C50.5468 29.5241 50.7183 29.5584 50.889 29.5986Z" fill="#D25613"/>
<path d="M49.2868 29.9678L49.2872 29.968C49.2886 29.9653 49.2903 29.9627 49.2921 29.9602L49.3122 29.9317C49.1963 29.9185 49.0868 29.9074 48.9819 29.8983C49.0504 29.9854 49.1109 30.065 49.1666 30.1413C49.2073 30.0837 49.2475 30.0258 49.2868 29.9678Z" fill="#D25613"/>
<path d="M49.3592 31.3502C49.2998 31.2705 49.2399 31.1905 49.1791 31.1101C49.1438 31.1562 49.1092 31.2011 49.0757 31.2448C49.0409 31.292 49.0067 31.3377 48.9731 31.3823C49.1029 31.3722 49.2319 31.3614 49.3592 31.3502Z" fill="#D25613"/>
<path d="M48.4846 32.0053L48.2072 32.3752C48.205 32.378 48.1985 32.3862 48.1961 32.3887C47.9368 32.7011 47.6725 33.0182 47.4111 33.3242C47.4211 33.3345 47.4316 33.3445 47.4425 33.3544L47.4707 33.3806C48.3537 34.3086 49.2089 35.1023 50.0157 35.7428C51.6661 37.0388 52.0609 36.9004 52.1422 36.8275C52.1425 36.8274 52.1426 36.8271 52.1429 36.8269C52.2687 36.7168 52.2772 36.0882 51.4113 34.4962C50.9911 33.6856 50.4388 32.8125 49.7687 31.8994C49.362 31.9411 48.9292 31.9735 48.4846 32.0053Z" fill="#D25613"/>
</g>
<defs>
<clipPath id="clip0_532_3604">
<rect width="230" height="78.7671" fill="white"/>
</clipPath>
</defs>
</svg>
