<svg width="361" height="63" viewBox="0 0 361 63" fill="none" xmlns="http://www.w3.org/2000/svg">
<g clip-path="url(#clip0_528_717)">
<mask id="mask0_528_717" style="mask-type:luminance" maskUnits="userSpaceOnUse" x="-20" y="-14" width="400" height="95">
<path d="M-20 -13.6165H380V80.5012H-20V-13.6165Z" fill="white"/>
</mask>
<g mask="url(#mask0_528_717)">
<path d="M360.729 45.9341C360.729 46.2863 360.441 46.5744 360.089 46.5744H73.3881C73.0359 46.5744 72.7478 46.2863 72.7478 45.9341V34.3376C72.7478 33.9855 73.0359 33.6974 73.3881 33.6974H360.089C360.441 33.6974 360.729 33.9855 360.729 34.3376V45.9341Z" fill="#FFCB05"/>
</g>
<mask id="mask1_528_717" style="mask-type:luminance" maskUnits="userSpaceOnUse" x="-20" y="-14" width="400" height="95">
<path d="M-20 -13.6165H380V80.5012H-20V-13.6165Z" fill="white"/>
</mask>
<g mask="url(#mask1_528_717)">
<path d="M124.642 36.486H122.807C122.675 36.486 122.567 36.5932 122.567 36.7259V39.3662H119.867V36.7259C119.867 36.5932 119.759 36.486 119.627 36.486H117.792C117.66 36.486 117.552 36.5932 117.552 36.7259V43.7734C117.552 43.906 117.66 44.0133 117.792 44.0133H119.627C119.759 44.0133 119.867 43.906 119.867 43.7734V41.0638H122.567V43.7734C122.567 43.906 122.675 44.0133 122.807 44.0133H124.642C124.774 44.0133 124.882 43.906 124.882 43.7734V36.7259C124.882 36.5932 124.774 36.486 124.642 36.486Z" fill="#2062AF"/>
</g>
<mask id="mask2_528_717" style="mask-type:luminance" maskUnits="userSpaceOnUse" x="-20" y="-14" width="400" height="95">
<path d="M-20 -13.6165H380V80.5012H-20V-13.6165Z" fill="white"/>
</mask>
<g mask="url(#mask2_528_717)">
<path d="M131.233 36.6209C131.193 36.5385 131.109 36.486 131.018 36.486H129.579C129.487 36.486 129.403 36.5385 129.363 36.6212L125.945 43.6685C125.909 43.7429 125.914 43.8308 125.957 43.9008C126.001 43.9707 126.078 44.0133 126.161 44.0133H128.074C128.168 44.0133 128.254 43.9582 128.293 43.8726L128.797 42.7661H131.825L132.316 43.8708C132.354 43.9576 132.44 44.0133 132.535 44.0133H134.449C134.531 44.0133 134.608 43.9707 134.652 43.9006C134.696 43.8305 134.701 43.7426 134.665 43.6684L131.233 36.6209ZM131.122 41.1281H129.532L130.341 39.3834L131.122 41.1281Z" fill="#2062AF"/>
</g>
<mask id="mask3_528_717" style="mask-type:luminance" maskUnits="userSpaceOnUse" x="-20" y="-14" width="400" height="95">
<path d="M-20 -13.6165H380V80.5012H-20V-13.6165Z" fill="white"/>
</mask>
<g mask="url(#mask3_528_717)">
<path d="M143.912 42.3059H143.057V36.7259C143.057 36.593 142.949 36.486 142.817 36.486H140.982C140.85 36.486 140.742 36.593 140.742 36.7259V42.3059H138.042V36.7259C138.042 36.593 137.935 36.486 137.802 36.486H135.967C135.835 36.486 135.727 36.593 135.727 36.7259V43.7734C135.727 43.9059 135.835 44.0133 135.967 44.0133H141.904V45.337C141.904 45.4699 142.011 45.5771 142.144 45.5771H143.912C144.045 45.5771 144.152 45.4699 144.152 45.337V42.546C144.152 42.4135 144.045 42.3059 143.912 42.3059Z" fill="#2062AF"/>
</g>
<mask id="mask4_528_717" style="mask-type:luminance" maskUnits="userSpaceOnUse" x="-20" y="-14" width="400" height="95">
<path d="M-20 -13.6165H380V80.5012H-20V-13.6165Z" fill="white"/>
</mask>
<g mask="url(#mask4_528_717)">
<path d="M147.556 36.486H145.721C145.589 36.486 145.481 36.5932 145.481 36.7259V43.7734C145.481 43.906 145.589 44.0133 145.721 44.0133H147.556C147.689 44.0133 147.796 43.906 147.796 43.7734V36.7259C147.796 36.5932 147.688 36.486 147.556 36.486Z" fill="#2062AF"/>
</g>
<mask id="mask5_528_717" style="mask-type:luminance" maskUnits="userSpaceOnUse" x="-20" y="-14" width="400" height="95">
<path d="M-20 -13.6165H380V80.5012H-20V-13.6165Z" fill="white"/>
</mask>
<g mask="url(#mask5_528_717)">
<path d="M155.937 37.2481C155.235 36.7107 154.308 36.4266 153.258 36.4266C152.198 36.4266 151.267 36.7107 150.565 37.2479C149.785 37.8435 149.547 38.4777 149.547 39.9626V40.5467C149.547 41.3108 149.547 42.4655 150.565 43.2511C151.267 43.7886 152.198 44.0726 153.258 44.0726C154.337 44.0726 155.239 43.7958 155.938 43.2506C156.968 42.4558 156.968 41.4206 156.968 40.5071V39.7548C156.968 38.5507 156.66 37.8009 155.937 37.2481ZM154.277 42.0466C154.032 42.2552 153.679 42.3653 153.258 42.3653C152.855 42.3653 152.504 42.255 152.214 42.0372C151.886 41.7918 151.861 41.2482 151.861 40.5071V40.1505C151.861 39.3315 151.887 38.7306 152.226 38.4527C152.467 38.2472 152.833 38.134 153.258 38.134C153.679 38.134 154.032 38.2442 154.277 38.4527C154.277 38.4534 154.278 38.4542 154.279 38.4548C154.556 38.6847 154.654 38.971 154.654 40.1211C154.654 41.5248 154.574 41.7929 154.277 42.0466Z" fill="#2062AF"/>
</g>
<mask id="mask6_528_717" style="mask-type:luminance" maskUnits="userSpaceOnUse" x="-20" y="-14" width="400" height="95">
<path d="M-20 -13.6165H380V80.5012H-20V-13.6165Z" fill="white"/>
</mask>
<g mask="url(#mask6_528_717)">
<path d="M165.57 36.486H163.735C163.602 36.486 163.495 36.5932 163.495 36.7259V39.3662H160.794V36.7259C160.794 36.5932 160.687 36.486 160.554 36.486H158.72C158.588 36.486 158.48 36.5932 158.48 36.7259V43.7734C158.48 43.906 158.588 44.0133 158.72 44.0133H160.554C160.687 44.0133 160.794 43.906 160.794 43.7734V41.0638H163.495V43.7734C163.495 43.906 163.602 44.0133 163.735 44.0133H165.57C165.702 44.0133 165.81 43.906 165.81 43.7734V36.7259C165.809 36.5932 165.702 36.486 165.57 36.486Z" fill="#2062AF"/>
</g>
<mask id="mask7_528_717" style="mask-type:luminance" maskUnits="userSpaceOnUse" x="-20" y="-14" width="400" height="95">
<path d="M-20 -13.6165H380V80.5012H-20V-13.6165Z" fill="white"/>
</mask>
<g mask="url(#mask7_528_717)">
<path d="M172.161 36.6209C172.12 36.5385 172.037 36.486 171.945 36.486H170.506C170.415 36.486 170.331 36.5385 170.291 36.6212L166.872 43.6685C166.836 43.7429 166.841 43.8308 166.885 43.9008C166.929 43.9707 167.005 44.0133 167.088 44.0133H169.002C169.096 44.0133 169.181 43.9582 169.22 43.8726L169.724 42.7661H172.752L173.243 43.8708C173.282 43.9576 173.368 44.0133 173.463 44.0133H175.376C175.459 44.0133 175.536 43.9707 175.58 43.9006C175.623 43.8305 175.628 43.7426 175.592 43.6684L172.161 36.6209ZM172.049 41.1281H170.46L171.268 39.3834L172.049 41.1281Z" fill="#2062AF"/>
</g>
<mask id="mask8_528_717" style="mask-type:luminance" maskUnits="userSpaceOnUse" x="-20" y="-14" width="400" height="95">
<path d="M-20 -13.6165H380V80.5012H-20V-13.6165Z" fill="white"/>
</mask>
<g mask="url(#mask8_528_717)">
<path d="M183.744 36.486H177.898C177.765 36.486 177.658 36.5932 177.658 36.7259V39.923C177.658 42.122 176.981 42.3059 176.288 42.3059H176.024C175.891 42.3059 175.784 42.4133 175.784 42.546V43.7734C175.784 43.906 175.891 44.0133 176.024 44.0133H176.75C179.021 44.0133 179.907 42.8887 179.907 40.0022V38.1932H181.67V43.7734C181.67 43.906 181.777 44.0133 181.91 44.0133H183.744C183.877 44.0133 183.984 43.906 183.984 43.7734V36.7259C183.984 36.5932 183.877 36.486 183.744 36.486Z" fill="#2062AF"/>
</g>
<mask id="mask9_528_717" style="mask-type:luminance" maskUnits="userSpaceOnUse" x="-20" y="-14" width="400" height="95">
<path d="M-20 -13.6165H380V80.5012H-20V-13.6165Z" fill="white"/>
</mask>
<g mask="url(#mask9_528_717)">
<path d="M189.761 39.1385H188.14V36.7259C188.14 36.5932 188.033 36.486 187.9 36.486H186.066C185.933 36.486 185.826 36.5932 185.826 36.7259V43.7734C185.826 43.9059 185.933 44.0133 186.066 44.0133H189.761C191.697 44.0133 193.049 43.0108 193.049 41.5758C193.049 40.141 191.697 39.1385 189.761 39.1385ZM188.14 40.8459H189.616C190.296 40.8459 190.735 41.1325 190.735 41.5758C190.735 42.1143 190.157 42.3059 189.616 42.3059H188.14V40.8459Z" fill="#2062AF"/>
</g>
<mask id="mask10_528_717" style="mask-type:luminance" maskUnits="userSpaceOnUse" x="-20" y="-14" width="400" height="95">
<path d="M-20 -13.6165H380V80.5012H-20V-13.6165Z" fill="white"/>
</mask>
<g mask="url(#mask10_528_717)">
<path d="M201.561 36.486H199.726C199.594 36.486 199.486 36.5932 199.486 36.7259V39.3662H196.786V36.7259C196.786 36.5932 196.678 36.486 196.546 36.486H194.711C194.578 36.486 194.471 36.5932 194.471 36.7259V43.7734C194.471 43.906 194.578 44.0133 194.711 44.0133H196.546C196.678 44.0133 196.786 43.906 196.786 43.7734V41.0638H199.486V43.7734C199.486 43.906 199.594 44.0133 199.726 44.0133H201.561C201.693 44.0133 201.801 43.906 201.801 43.7734V36.7259C201.801 36.5932 201.693 36.486 201.561 36.486Z" fill="#2062AF"/>
</g>
<mask id="mask11_528_717" style="mask-type:luminance" maskUnits="userSpaceOnUse" x="-20" y="-14" width="400" height="95">
<path d="M-20 -13.6165H380V80.5012H-20V-13.6165Z" fill="white"/>
</mask>
<g mask="url(#mask11_528_717)">
<path d="M210.995 36.486H209.359C209.287 36.486 209.218 36.5185 209.173 36.5748L205.943 40.562V36.7259C205.943 36.5932 205.836 36.486 205.703 36.486H203.869C203.736 36.486 203.629 36.5932 203.629 36.7259V43.7734C203.629 43.906 203.736 44.0133 203.869 44.0133H205.505C205.578 44.0133 205.646 43.9805 205.692 43.9243L208.921 39.9286V43.7734C208.921 43.906 209.029 44.0133 209.161 44.0133H210.995C211.128 44.0133 211.235 43.906 211.235 43.7734V36.7259C211.235 36.5932 211.128 36.486 210.995 36.486Z" fill="#2062AF"/>
</g>
<mask id="mask12_528_717" style="mask-type:luminance" maskUnits="userSpaceOnUse" x="-20" y="-14" width="400" height="95">
<path d="M-20 -13.6165H380V80.5012H-20V-13.6165Z" fill="white"/>
</mask>
<g mask="url(#mask12_528_717)">
<path d="M216.88 36.5899C218.318 36.5899 219.207 35.9754 219.258 34.9462C219.261 34.8806 219.237 34.8167 219.192 34.7692C219.146 34.7216 219.084 34.6946 219.018 34.6946H217.725C217.601 34.6946 217.497 34.7893 217.486 34.9127C217.475 35.0312 217.45 35.3081 216.88 35.3081C216.311 35.3081 216.285 35.0312 216.275 34.9127C216.263 34.7893 216.16 34.6946 216.036 34.6946H214.742C214.677 34.6946 214.614 34.7216 214.569 34.7692C214.523 34.8167 214.499 34.8806 214.503 34.9462C214.554 35.9754 215.442 36.5899 216.88 36.5899Z" fill="#2062AF"/>
</g>
<mask id="mask13_528_717" style="mask-type:luminance" maskUnits="userSpaceOnUse" x="-20" y="-14" width="400" height="95">
<path d="M-20 -13.6165H380V80.5012H-20V-13.6165Z" fill="white"/>
</mask>
<g mask="url(#mask13_528_717)">
<path d="M220.43 36.486H218.794C218.721 36.486 218.653 36.5185 218.607 36.575L215.378 40.562V36.7259C215.378 36.5932 215.271 36.486 215.138 36.486H213.304C213.171 36.486 213.064 36.5932 213.064 36.7259V43.7734C213.064 43.906 213.171 44.0133 213.304 44.0133H214.94C215.013 44.0133 215.081 43.9805 215.127 43.9243L218.356 39.9286V43.7734C218.356 43.906 218.463 44.0133 218.596 44.0133H220.43C220.563 44.0133 220.67 43.906 220.67 43.7734V36.7259C220.67 36.5932 220.563 36.486 220.43 36.486Z" fill="#2062AF"/>
</g>
<mask id="mask14_528_717" style="mask-type:luminance" maskUnits="userSpaceOnUse" x="-20" y="-14" width="400" height="95">
<path d="M-20 -13.6165H380V80.5012H-20V-13.6165Z" fill="white"/>
</mask>
<g mask="url(#mask14_528_717)">
<path d="M233.877 36.486H231.976C231.887 36.486 231.805 36.5354 231.764 36.6143L230.184 39.6243L228.436 36.6057C228.393 36.5316 228.314 36.486 228.228 36.486H226.314C226.228 36.486 226.147 36.533 226.105 36.609C226.063 36.6846 226.064 36.7776 226.11 36.8517L229.044 41.62L228.84 41.9774C228.756 42.1185 228.585 42.3059 228.07 42.3059H227.331C227.198 42.3059 227.091 42.4133 227.091 42.546V43.7734C227.091 43.906 227.198 44.0133 227.331 44.0133H228.452C229.75 44.0133 230.423 43.3013 230.76 42.704L234.086 36.8442C234.127 36.7699 234.127 36.679 234.084 36.6052C234.041 36.5314 233.962 36.486 233.877 36.486Z" fill="#2062AF"/>
</g>
<mask id="mask15_528_717" style="mask-type:luminance" maskUnits="userSpaceOnUse" x="-20" y="-14" width="400" height="95">
<path d="M-20 -13.6165H380V80.5012H-20V-13.6165Z" fill="white"/>
</mask>
<g mask="url(#mask15_528_717)">
<path d="M242.231 36.486H240.397C240.264 36.486 240.157 36.5932 240.157 36.7259V39.3662H237.457V36.7259C237.457 36.5932 237.349 36.486 237.216 36.486H235.382C235.249 36.486 235.142 36.5932 235.142 36.7259V43.7734C235.142 43.906 235.249 44.0133 235.382 44.0133H237.216C237.349 44.0133 237.457 43.906 237.457 43.7734V41.0638H240.157V43.7734C240.157 43.906 240.264 44.0133 240.397 44.0133H242.231C242.364 44.0133 242.471 43.906 242.471 43.7734V36.7259C242.471 36.5932 242.364 36.486 242.231 36.486Z" fill="#2062AF"/>
</g>
<mask id="mask16_528_717" style="mask-type:luminance" maskUnits="userSpaceOnUse" x="-20" y="-14" width="400" height="95">
<path d="M-20 -13.6165H380V80.5012H-20V-13.6165Z" fill="white"/>
</mask>
<g mask="url(#mask16_528_717)">
<path d="M246.614 36.486H244.78C244.647 36.486 244.54 36.5932 244.54 36.7259V43.7734C244.54 43.906 244.647 44.0133 244.78 44.0133H246.614C246.747 44.0133 246.854 43.906 246.854 43.7734V36.7259C246.854 36.5932 246.747 36.486 246.614 36.486Z" fill="#2062AF"/>
</g>
<mask id="mask17_528_717" style="mask-type:luminance" maskUnits="userSpaceOnUse" x="-20" y="-14" width="400" height="95">
<path d="M-20 -13.6165H380V80.5012H-20V-13.6165Z" fill="white"/>
</mask>
<g mask="url(#mask17_528_717)">
<path d="M255.541 40.3491C255.539 40.3475 255.537 40.3462 255.535 40.3445C255.429 40.2656 255.337 40.2044 255.229 40.1458C255.794 39.786 256.08 39.2901 256.08 38.666C256.08 37.3417 254.846 36.486 252.936 36.486H249.162C249.029 36.486 248.922 36.5932 248.922 36.7259V43.7735C248.922 43.906 249.029 44.0134 249.162 44.0134H253.095C254.988 44.0134 256.212 43.1265 256.212 41.754C256.211 41.1691 255.992 40.7096 255.541 40.3491ZM253.897 41.6749C253.897 42.1404 253.387 42.306 252.91 42.306H251.236V41.054H252.91C253.142 41.054 253.897 41.0987 253.897 41.6749ZM252.791 39.3367H251.236V38.1932H252.791C253.02 38.1932 253.765 38.2345 253.765 38.7649C253.765 39.2954 253.02 39.3367 252.791 39.3367Z" fill="#2062AF"/>
</g>
<mask id="mask18_528_717" style="mask-type:luminance" maskUnits="userSpaceOnUse" x="-20" y="-14" width="400" height="95">
<path d="M-20 -13.6165H380V80.5012H-20V-13.6165Z" fill="white"/>
</mask>
<g mask="url(#mask18_528_717)">
<path d="M264.393 36.486H258.203C258.071 36.486 257.963 36.5932 257.963 36.7259V43.7734C257.963 43.906 258.071 44.0133 258.203 44.0133H264.393C264.525 44.0133 264.633 43.906 264.633 43.7734V42.546C264.633 42.4133 264.525 42.3059 264.393 42.3059H260.278V41.0736H263.746C263.879 41.0736 263.986 40.9662 263.986 40.8335V39.6061C263.986 39.4736 263.879 39.3662 263.746 39.3662H260.278V38.1932H264.393C264.525 38.1932 264.633 38.086 264.633 37.9533V36.7259C264.633 36.5932 264.525 36.486 264.393 36.486Z" fill="#2062AF"/>
</g>
<mask id="mask19_528_717" style="mask-type:luminance" maskUnits="userSpaceOnUse" x="-20" y="-14" width="400" height="95">
<path d="M-20 -13.6165H380V80.5012H-20V-13.6165Z" fill="white"/>
</mask>
<g mask="url(#mask19_528_717)">
<path d="M270.187 36.486H266.545C266.412 36.486 266.305 36.5932 266.305 36.7259V43.7735C266.305 43.906 266.412 44.0134 266.545 44.0134H268.379C268.512 44.0134 268.619 43.906 268.619 43.7735V41.3607H270.187C272.155 41.3607 273.529 40.3584 273.529 38.9233C273.529 37.5112 272.123 36.486 270.187 36.486ZM271.214 38.9233C271.214 39.3609 270.775 39.6435 270.095 39.6435H268.619V38.1932H270.095C270.775 38.1932 271.214 38.4799 271.214 38.9233Z" fill="#2062AF"/>
</g>
<mask id="mask20_528_717" style="mask-type:luminance" maskUnits="userSpaceOnUse" x="-20" y="-14" width="400" height="95">
<path d="M-20 -13.6165H380V80.5012H-20V-13.6165Z" fill="white"/>
</mask>
<g mask="url(#mask20_528_717)">
<path d="M277.327 38.4417C277.557 38.2432 277.918 38.134 278.344 38.134C279.063 38.134 279.519 38.4148 279.7 38.9683C279.732 39.0671 279.824 39.1335 279.928 39.1335H281.789C281.862 39.1335 281.931 39.1005 281.976 39.0437C282.022 38.9869 282.039 38.9123 282.023 38.841C281.685 37.3292 280.305 36.4266 278.331 36.4266C277.28 36.4266 276.379 36.7026 275.654 37.2466C274.632 38.0125 274.633 38.9579 274.634 40.1544V40.3453C274.633 41.5418 274.632 42.4867 275.654 43.2527C276.379 43.7968 277.28 44.0727 278.331 44.0727C280.305 44.0727 281.685 43.1701 282.023 41.6583C282.039 41.5871 282.022 41.5127 281.976 41.4558C281.931 41.399 281.862 41.3657 281.789 41.3657H279.928C279.824 41.3657 279.732 41.4325 279.7 41.5311C279.519 42.0847 279.063 42.3655 278.344 42.3655C277.918 42.3655 277.557 42.2562 277.323 42.0548C277.057 41.8328 276.948 41.6071 276.948 40.2499C276.948 38.8924 277.057 38.6667 277.327 38.4417Z" fill="#2062AF"/>
</g>
<mask id="mask21_528_717" style="mask-type:luminance" maskUnits="userSpaceOnUse" x="-20" y="-14" width="400" height="95">
<path d="M-20 -13.6165H380V80.5012H-20V-13.6165Z" fill="white"/>
</mask>
<g mask="url(#mask21_528_717)">
<path d="M290.856 36.486H289.22C289.147 36.486 289.079 36.5185 289.033 36.575L285.804 40.562V36.7259C285.804 36.5932 285.697 36.486 285.564 36.486H283.73C283.597 36.486 283.49 36.5932 283.49 36.7259V43.7734C283.49 43.906 283.597 44.0133 283.73 44.0133H285.366C285.439 44.0133 285.507 43.9805 285.553 43.9243L288.782 39.9286V43.7734C288.782 43.906 288.889 44.0133 289.022 44.0133H290.856C290.989 44.0133 291.096 43.906 291.096 43.7734V36.7259C291.096 36.5932 290.989 36.486 290.856 36.486Z" fill="#2062AF"/>
</g>
<mask id="mask22_528_717" style="mask-type:luminance" maskUnits="userSpaceOnUse" x="-20" y="-14" width="400" height="95">
<path d="M-20 -13.6165H380V80.5012H-20V-13.6165Z" fill="white"/>
</mask>
<g mask="url(#mask22_528_717)">
<path d="M299.449 36.486H292.705C292.573 36.486 292.465 36.5932 292.465 36.7259V37.9533C292.465 38.086 292.573 38.1932 292.705 38.1932H294.92V43.7734C294.92 43.906 295.027 44.0133 295.16 44.0133H296.995C297.127 44.0133 297.235 43.906 297.235 43.7734V38.1932H299.449C299.582 38.1932 299.689 38.086 299.689 37.9533V36.7259C299.689 36.5932 299.582 36.486 299.449 36.486Z" fill="#2062AF"/>
</g>
<mask id="mask23_528_717" style="mask-type:luminance" maskUnits="userSpaceOnUse" x="-20" y="-14" width="400" height="95">
<path d="M-20 -13.6165H380V80.5012H-20V-13.6165Z" fill="white"/>
</mask>
<g mask="url(#mask23_528_717)">
<path d="M307.488 36.486H301.298C301.165 36.486 301.058 36.5932 301.058 36.7259V43.7734C301.058 43.906 301.165 44.0133 301.298 44.0133H307.488C307.62 44.0133 307.728 43.906 307.728 43.7734V42.546C307.728 42.4133 307.62 42.3059 307.488 42.3059H303.372V41.0736H306.841C306.973 41.0736 307.081 40.9662 307.081 40.8335V39.6061C307.081 39.4736 306.973 39.3662 306.841 39.3662H303.372V38.1932H307.488C307.62 38.1932 307.728 38.086 307.728 37.9533V36.7259C307.728 36.5932 307.62 36.486 307.488 36.486Z" fill="#2062AF"/>
</g>
<mask id="mask24_528_717" style="mask-type:luminance" maskUnits="userSpaceOnUse" x="-20" y="-14" width="400" height="95">
<path d="M-20 -13.6165H380V80.5012H-20V-13.6165Z" fill="white"/>
</mask>
<g mask="url(#mask24_528_717)">
<path d="M315.684 36.486H308.941C308.808 36.486 308.7 36.5932 308.7 36.7259V37.9533C308.7 38.086 308.808 38.1932 308.941 38.1932H311.155V43.7734C311.155 43.906 311.263 44.0133 311.395 44.0133H313.229C313.362 44.0133 313.47 43.906 313.47 43.7734V38.1932H315.684C315.817 38.1932 315.924 38.086 315.924 37.9533V36.7259C315.924 36.5932 315.817 36.486 315.684 36.486Z" fill="#2062AF"/>
</g>
<mask id="mask25_528_717" style="mask-type:luminance" maskUnits="userSpaceOnUse" x="-20" y="-14" width="400" height="95">
<path d="M-20 -13.6165H380V80.5012H-20V-13.6165Z" fill="white"/>
</mask>
<g mask="url(#mask25_528_717)">
<path d="M83.7864 21.0071C84.9861 19.8967 85.6942 18.1666 85.6942 16.3118C85.6942 12.383 83.1207 9.63904 79.4358 9.63904C75.8373 9.63904 73.3465 12.4322 72.7735 17.1107C72.7652 17.1789 72.7863 17.2474 72.8319 17.2987C72.8775 17.3503 72.943 17.3797 73.0117 17.3797H77.1671C77.2793 17.3797 77.3764 17.3019 77.4009 17.1926C77.7537 15.6256 78.3927 14.8957 79.412 14.8957C80.4124 14.8957 81.0589 15.6141 81.0589 16.7257C81.0589 17.9316 80.4522 18.6514 79.4358 18.6514H77.1909C77.0582 18.6514 76.951 18.7588 76.951 18.8914V23.4133C76.951 23.5459 77.0582 23.6533 77.1909 23.6533H79.4358C80.9351 23.6533 81.2497 24.8216 81.2497 25.8018C81.2497 27.0873 80.5539 27.855 79.388 27.855C78.3591 27.855 77.7201 27.1452 77.3772 25.6219C77.3526 25.5124 77.2553 25.4346 77.1431 25.4346H72.9876C72.9191 25.4346 72.8535 25.4639 72.8079 25.5155C72.7624 25.567 72.7411 25.6354 72.7496 25.7037C73.3228 30.3821 75.8136 33.175 79.412 33.175C83.2513 33.175 85.9328 30.2217 85.9328 25.9929C85.9328 23.8876 85.136 22.0504 83.7864 21.0071Z" fill="#2062AF"/>
</g>
<mask id="mask26_528_717" style="mask-type:luminance" maskUnits="userSpaceOnUse" x="-20" y="-14" width="400" height="95">
<path d="M-20 -13.6165H380V80.5012H-20V-13.6165Z" fill="white"/>
</mask>
<g mask="url(#mask26_528_717)">
<path d="M95.5478 10.0071C95.5193 9.90271 95.4247 9.8302 95.3164 9.8302H92.0923C91.984 9.8302 91.8895 9.90271 91.8609 10.0071L85.6752 32.6809C85.6555 32.7531 85.6706 32.8304 85.716 32.89C85.7615 32.9492 85.8321 32.9843 85.9068 32.9843H90.2772C90.3877 32.9843 90.4837 32.909 90.5101 32.8019L91.3008 29.6085H96.153L96.8981 32.7989C96.9234 32.9073 97.0201 32.9843 97.1316 32.9843H101.502C101.577 32.9843 101.647 32.9492 101.693 32.89C101.738 32.8304 101.753 32.7531 101.733 32.6809L95.5478 10.0071ZM94.9415 24.4793H92.5914L93.8044 19.6778L94.9415 24.4793Z" fill="#2062AF"/>
</g>
<mask id="mask27_528_717" style="mask-type:luminance" maskUnits="userSpaceOnUse" x="-20" y="-14" width="400" height="95">
<path d="M-20 -13.6165H380V80.5012H-20V-13.6165Z" fill="white"/>
</mask>
<g mask="url(#mask27_528_717)">
<path d="M115.546 9.83032H102.745C102.613 9.83032 102.505 9.93773 102.505 10.0703V32.7443C102.505 32.8768 102.613 32.9842 102.745 32.9842H106.925C107.057 32.9842 107.165 32.8768 107.165 32.7443V15.2781H111.127V32.7443C111.127 32.8768 111.234 32.9842 111.367 32.9842H115.546C115.679 32.9842 115.786 32.8768 115.786 32.7443V10.0703C115.786 9.93773 115.679 9.83032 115.546 9.83032Z" fill="#2062AF"/>
</g>
<mask id="mask28_528_717" style="mask-type:luminance" maskUnits="userSpaceOnUse" x="-20" y="-14" width="400" height="95">
<path d="M-20 -13.6165H380V80.5012H-20V-13.6165Z" fill="white"/>
</mask>
<g mask="url(#mask28_528_717)">
<path d="M123.688 9.63904C121.665 9.63904 120.009 10.5303 118.765 12.286C117.412 14.1541 117 16.0994 117 20.6111V22.267C117 24.9895 117 28.0752 118.765 30.5282C120.051 32.3092 121.677 33.175 123.736 33.175C125.759 33.175 127.416 32.2841 128.66 30.5277C130.294 28.253 130.424 25.584 130.424 22.3308V19.4009C130.424 16.1295 129.896 14.0019 128.659 12.2863C127.373 10.505 125.747 9.63904 123.688 9.63904ZM121.659 22.0123V20.4517C121.659 18.1527 121.858 16.6391 122.246 15.9576C122.583 15.3962 123.103 15.087 123.712 15.087C124.321 15.087 124.841 15.3962 125.175 15.9531C125.567 16.6394 125.765 18.153 125.765 20.4517V22.0123C125.765 24.8357 125.611 26.0952 125.178 26.8248C124.839 27.39 124.291 27.7274 123.712 27.7274C123.133 27.7274 122.585 27.39 122.247 26.8258C121.813 26.0955 121.659 24.836 121.659 22.0123Z" fill="#2062AF"/>
</g>
<mask id="mask29_528_717" style="mask-type:luminance" maskUnits="userSpaceOnUse" x="-20" y="-14" width="400" height="95">
<path d="M-20 -13.6165H380V80.5012H-20V-13.6165Z" fill="white"/>
</mask>
<g mask="url(#mask29_528_717)">
<path d="M138.613 9.83032H131.878C131.745 9.83032 131.638 9.93773 131.638 10.0703V32.7443C131.638 32.877 131.745 32.9842 131.878 32.9842H136.057C136.19 32.9842 136.297 32.877 136.297 32.7443V24.8954H138.613C142.114 24.8954 144.656 21.7276 144.656 17.3628C144.656 12.9983 142.114 9.83032 138.613 9.83032ZM136.297 15.31H138.422C139.334 15.31 139.997 16.1732 139.997 17.3628C139.997 18.5525 139.334 19.4159 138.422 19.4159H136.297V15.31Z" fill="#2062AF"/>
</g>
<mask id="mask30_528_717" style="mask-type:luminance" maskUnits="userSpaceOnUse" x="-20" y="-14" width="400" height="95">
<path d="M-20 -13.6165H380V80.5012H-20V-13.6165Z" fill="white"/>
</mask>
<g mask="url(#mask30_528_717)">
<path d="M150.075 9.83032H145.896C145.763 9.83032 145.656 9.93773 145.656 10.0703V32.7443C145.656 32.8768 145.763 32.9842 145.896 32.9842H150.075C150.208 32.9842 150.315 32.8768 150.315 32.7443V10.0703C150.315 9.93773 150.208 9.83032 150.075 9.83032Z" fill="#2062AF"/>
</g>
<mask id="mask31_528_717" style="mask-type:luminance" maskUnits="userSpaceOnUse" x="-20" y="-14" width="400" height="95">
<path d="M-20 -13.6165H380V80.5012H-20V-13.6165Z" fill="white"/>
</mask>
<g mask="url(#mask31_528_717)">
<path d="M162.571 21.0071C163.77 19.8967 164.479 18.1666 164.479 16.3118C164.479 12.383 161.905 9.63904 158.22 9.63904C154.622 9.63904 152.131 12.4322 151.558 17.1107C151.55 17.1789 151.571 17.2474 151.616 17.2987C151.662 17.3503 151.727 17.3797 151.796 17.3797H155.951C156.064 17.3797 156.161 17.3019 156.186 17.1926C156.538 15.6256 157.177 14.8957 158.197 14.8957C159.197 14.8957 159.843 15.6141 159.843 16.7257C159.843 17.9316 159.237 18.6514 158.22 18.6514H155.975C155.843 18.6514 155.735 18.7588 155.735 18.8914V23.4133C155.735 23.5459 155.843 23.6533 155.975 23.6533H158.22C159.72 23.6533 160.034 24.8216 160.034 25.8018C160.034 27.0873 159.338 27.855 158.173 27.855C157.143 27.855 156.504 27.1452 156.162 25.6219C156.137 25.5124 156.04 25.4346 155.927 25.4346H151.772C151.703 25.4346 151.638 25.4639 151.592 25.5155C151.547 25.567 151.526 25.6354 151.534 25.7037C152.107 30.3821 154.598 33.175 158.197 33.175C162.036 33.175 164.717 30.2217 164.717 25.9929C164.717 23.8876 163.921 22.0504 162.571 21.0071Z" fill="#2062AF"/>
</g>
<mask id="mask32_528_717" style="mask-type:luminance" maskUnits="userSpaceOnUse" x="-20" y="-14" width="400" height="95">
<path d="M-20 -13.6165H380V80.5012H-20V-13.6165Z" fill="white"/>
</mask>
<g mask="url(#mask32_528_717)">
<path d="M173.265 17.9192H170.83V10.0703C170.83 9.93789 170.723 9.83032 170.591 9.83032H166.411C166.278 9.83032 166.171 9.93789 166.171 10.0703V32.7443C166.171 32.877 166.278 32.9844 166.411 32.9844H173.265C176.753 32.9844 179.189 29.8867 179.189 25.4516C179.189 21.0167 176.753 17.9192 173.265 17.9192ZM174.53 25.4516C174.53 26.6402 173.853 27.5364 172.955 27.5364H170.83V23.3986H172.955C173.867 23.3986 174.53 24.262 174.53 25.4516Z" fill="#2062AF"/>
</g>
<mask id="mask33_528_717" style="mask-type:luminance" maskUnits="userSpaceOnUse" x="-20" y="-14" width="400" height="95">
<path d="M-20 -13.6165H380V80.5012H-20V-13.6165Z" fill="white"/>
</mask>
<g mask="url(#mask33_528_717)">
<path d="M189.484 20.613L194.451 10.1733C194.486 10.0989 194.481 10.0117 194.437 9.94205C194.393 9.87242 194.317 9.83032 194.234 9.83032H189.434C189.338 9.83032 189.251 9.88763 189.213 9.97598L185.088 19.6298V10.0703C185.088 9.93773 184.981 9.83032 184.848 9.83032H180.669C180.536 9.83032 180.429 9.93773 180.429 10.0703V32.7443C180.429 32.8768 180.536 32.9842 180.669 32.9842H184.848C184.981 32.9842 185.088 32.8768 185.088 32.7443V22.051L189.643 32.8374C189.68 32.9266 189.767 32.9842 189.864 32.9842H194.784C194.865 32.9842 194.942 32.9424 194.986 32.8739C195.03 32.805 195.036 32.7185 195.002 32.6442L189.484 20.613Z" fill="#2062AF"/>
</g>
<mask id="mask34_528_717" style="mask-type:luminance" maskUnits="userSpaceOnUse" x="-20" y="-14" width="400" height="95">
<path d="M-20 -13.6165H380V80.5012H-20V-13.6165Z" fill="white"/>
</mask>
<g mask="url(#mask34_528_717)">
<path d="M205.389 10.0071C205.361 9.90271 205.266 9.8302 205.158 9.8302H201.934C201.825 9.8302 201.731 9.90271 201.702 10.0071L195.517 32.6809C195.497 32.7531 195.512 32.8304 195.557 32.89C195.603 32.9492 195.673 32.9843 195.748 32.9843H200.119C200.229 32.9843 200.325 32.909 200.352 32.8019L201.142 29.6085H205.994L206.739 32.7989C206.765 32.9073 206.861 32.9843 206.973 32.9843H211.343C211.418 32.9843 211.489 32.9492 211.534 32.89C211.58 32.8304 211.595 32.7531 211.575 32.6809L205.389 10.0071ZM204.783 24.4793H202.433L203.646 19.6778L204.783 24.4793Z" fill="#2062AF"/>
</g>
<mask id="mask35_528_717" style="mask-type:luminance" maskUnits="userSpaceOnUse" x="-20" y="-14" width="400" height="95">
<path d="M-20 -13.6165H380V80.5012H-20V-13.6165Z" fill="white"/>
</mask>
<g mask="url(#mask35_528_717)">
<path d="M229.493 9.83032H216.692C216.559 9.83032 216.452 9.93773 216.452 10.0703V32.7443C216.452 32.8768 216.559 32.9842 216.692 32.9842H220.872C221.004 32.9842 221.112 32.8768 221.112 32.7443V15.2781H225.074V32.7443C225.074 32.8768 225.181 32.9842 225.314 32.9842H229.493C229.626 32.9842 229.733 32.8768 229.733 32.7443V10.0703C229.733 9.93773 229.626 9.83032 229.493 9.83032Z" fill="#2062AF"/>
</g>
<mask id="mask36_528_717" style="mask-type:luminance" maskUnits="userSpaceOnUse" x="-20" y="-14" width="400" height="95">
<path d="M-20 -13.6165H380V80.5012H-20V-13.6165Z" fill="white"/>
</mask>
<g mask="url(#mask36_528_717)">
<path d="M237.635 9.63904C235.612 9.63904 233.955 10.5303 232.712 12.286C231.359 14.1541 230.946 16.0994 230.946 20.6111V22.267C230.946 24.9895 230.946 28.0752 232.711 30.528C233.997 32.3092 235.623 33.175 237.682 33.175C239.705 33.175 241.362 32.2841 242.606 30.5277C244.24 28.253 244.371 25.584 244.371 22.3308V19.4009C244.371 16.1295 243.843 14.0017 242.605 12.2863C241.319 10.505 239.693 9.63904 237.635 9.63904ZM235.606 22.0123V20.4517C235.606 18.153 235.804 16.6394 236.192 15.9577C236.529 15.3962 237.05 15.087 237.658 15.087C238.267 15.087 238.788 15.3962 239.122 15.9531C239.513 16.6394 239.711 18.153 239.711 20.4517V22.0123C239.711 24.8357 239.558 26.0952 239.124 26.8248C238.785 27.39 238.237 27.7274 237.658 27.7274C237.079 27.7274 236.531 27.39 236.193 26.8258C235.759 26.0952 235.606 24.8357 235.606 22.0123Z" fill="#2062AF"/>
</g>
<mask id="mask37_528_717" style="mask-type:luminance" maskUnits="userSpaceOnUse" x="-20" y="-14" width="400" height="95">
<path d="M-20 -13.6165H380V80.5012H-20V-13.6165Z" fill="white"/>
</mask>
<g mask="url(#mask37_528_717)">
<path d="M259.012 9.83032H247.835C247.703 9.83032 247.595 9.93773 247.595 10.0703V20.9615C247.595 27.0284 246.425 27.5364 245.328 27.5364H244.826C244.694 27.5364 244.586 27.644 244.586 27.7764V32.7443C244.586 32.8768 244.694 32.9842 244.826 32.9842H246.426C250.027 32.9842 252.112 31.0169 252.112 20.9615V15.2781H254.593V32.7443C254.593 32.8768 254.7 32.9842 254.833 32.9842H259.012C259.145 32.9842 259.252 32.8768 259.252 32.7443V10.0703C259.252 9.93773 259.145 9.83032 259.012 9.83032Z" fill="#2062AF"/>
</g>
<mask id="mask38_528_717" style="mask-type:luminance" maskUnits="userSpaceOnUse" x="-20" y="-14" width="400" height="95">
<path d="M-20 -13.6165H380V80.5012H-20V-13.6165Z" fill="white"/>
</mask>
<g mask="url(#mask38_528_717)">
<path d="M264.955 9.83032H260.775C260.642 9.83032 260.535 9.93773 260.535 10.0703V32.7443C260.535 32.8768 260.642 32.9842 260.775 32.9842H264.955C265.087 32.9842 265.195 32.8768 265.195 32.7443V10.0703C265.195 9.93773 265.087 9.83032 264.955 9.83032Z" fill="#2062AF"/>
</g>
<mask id="mask39_528_717" style="mask-type:luminance" maskUnits="userSpaceOnUse" x="-20" y="-14" width="400" height="95">
<path d="M-20 -13.6165H380V80.5012H-20V-13.6165Z" fill="white"/>
</mask>
<g mask="url(#mask39_528_717)">
<path d="M279.212 9.83032H266.674C266.541 9.83032 266.434 9.93773 266.434 10.0703V15.0382C266.434 15.1705 266.541 15.2781 266.674 15.2781H270.613V32.7443C270.613 32.8768 270.721 32.9842 270.853 32.9842H275.033C275.165 32.9842 275.273 32.8768 275.273 32.7443V15.2781H279.212C279.345 15.2781 279.452 15.1705 279.452 15.0382V10.0703C279.452 9.93773 279.345 9.83032 279.212 9.83032Z" fill="#2062AF"/>
</g>
<mask id="mask40_528_717" style="mask-type:luminance" maskUnits="userSpaceOnUse" x="-20" y="-14" width="400" height="95">
<path d="M-20 -13.6165H380V80.5012H-20V-13.6165Z" fill="white"/>
</mask>
<g mask="url(#mask40_528_717)">
<path d="M292.491 9.83032H280.932C280.799 9.83032 280.692 9.93773 280.692 10.0703V32.7443C280.692 32.8768 280.799 32.9842 280.932 32.9842H292.491C292.623 32.9842 292.731 32.8768 292.731 32.7443V27.7764C292.731 27.644 292.623 27.5364 292.491 27.5364H285.351V24.0355H291.416C291.549 24.0355 291.656 23.9281 291.656 23.7956V18.8277C291.656 18.6953 291.549 18.5877 291.416 18.5877H285.351V15.2781H292.491C292.623 15.2781 292.731 15.1705 292.731 15.0382V10.0703C292.731 9.93773 292.623 9.83032 292.491 9.83032Z" fill="#2062AF"/>
</g>
<mask id="mask41_528_717" style="mask-type:luminance" maskUnits="userSpaceOnUse" x="-20" y="-14" width="400" height="95">
<path d="M-20 -13.6165H380V80.5012H-20V-13.6165Z" fill="white"/>
</mask>
<g mask="url(#mask41_528_717)">
<path d="M303.359 21.12L308.282 10.1689C308.316 10.0944 308.309 10.0083 308.265 9.93997C308.221 9.87162 308.145 9.83032 308.064 9.83032H303.311C303.212 9.83032 303.123 9.89115 303.087 9.9835L300.827 15.8081L298.567 9.9835C298.531 9.89115 298.442 9.83032 298.343 9.83032H293.591C293.509 9.83032 293.433 9.87162 293.389 9.93997C293.345 10.0083 293.339 10.0944 293.372 10.1689L298.295 21.12L293.038 32.6449C293.004 32.719 293.01 32.8054 293.054 32.8741C293.098 32.9428 293.175 32.9844 293.256 32.9844H298.033C298.131 32.9844 298.219 32.9245 298.255 32.8336L300.827 26.4154L303.398 32.8336C303.435 32.9245 303.523 32.9844 303.621 32.9844H308.397C308.479 32.9844 308.555 32.9428 308.599 32.8741C308.644 32.8054 308.65 32.719 308.616 32.6449L303.359 21.12Z" fill="#2062AF"/>
</g>
<mask id="mask42_528_717" style="mask-type:luminance" maskUnits="userSpaceOnUse" x="-20" y="-14" width="400" height="95">
<path d="M-20 -13.6165H380V80.5012H-20V-13.6165Z" fill="white"/>
</mask>
<g mask="url(#mask42_528_717)">
<path d="M322.202 9.83032H318.022C317.89 9.83032 317.782 9.93773 317.782 10.0703V18.5561H313.82V10.0703C313.82 9.93773 313.713 9.83032 313.58 9.83032H309.401C309.268 9.83032 309.161 9.93773 309.161 10.0703V32.7443C309.161 32.8768 309.268 32.9842 309.401 32.9842H313.58C313.713 32.9842 313.82 32.8768 313.82 32.7443V24.0037H317.782V32.7443C317.782 32.8768 317.89 32.9842 318.022 32.9842H322.202C322.335 32.9842 322.442 32.8768 322.442 32.7443V10.0703C322.442 9.93773 322.335 9.83032 322.202 9.83032Z" fill="#2062AF"/>
</g>
<mask id="mask43_528_717" style="mask-type:luminance" maskUnits="userSpaceOnUse" x="-20" y="-14" width="400" height="95">
<path d="M-20 -13.6165H380V80.5012H-20V-13.6165Z" fill="white"/>
</mask>
<g mask="url(#mask43_528_717)">
<path d="M328.093 9.8822H323.913C323.78 9.8822 323.673 9.98961 323.673 10.1221V32.7962C323.673 32.9287 323.78 33.0361 323.913 33.0361H328.093C328.225 33.0361 328.332 32.9287 328.332 32.7962V10.1221C328.332 9.98961 328.225 9.8822 328.093 9.8822Z" fill="#2062AF"/>
</g>
<mask id="mask44_528_717" style="mask-type:luminance" maskUnits="userSpaceOnUse" x="-20" y="-14" width="400" height="95">
<path d="M-20 -13.6165H380V80.5012H-20V-13.6165Z" fill="white"/>
</mask>
<g mask="url(#mask44_528_717)">
<path d="M338.587 20.6649L343.554 10.2252C343.589 10.1508 343.584 10.0636 343.54 9.99393C343.496 9.9243 343.419 9.8822 343.337 9.8822H338.537C338.441 9.8822 338.354 9.9395 338.316 10.0277L334.192 19.6816V10.1221C334.192 9.98961 334.084 9.8822 333.952 9.8822H329.772C329.64 9.8822 329.532 9.98961 329.532 10.1221V32.7962C329.532 32.9287 329.64 33.0361 329.772 33.0361H333.952C334.084 33.0361 334.192 32.9287 334.192 32.7962V22.1029L338.746 32.8895C338.783 32.9783 338.87 33.0361 338.967 33.0361H343.887C343.968 33.0361 344.044 32.9943 344.089 32.9257C344.133 32.8567 344.139 32.7702 344.105 32.6961L338.587 20.6649Z" fill="#2062AF"/>
</g>
<mask id="mask45_528_717" style="mask-type:luminance" maskUnits="userSpaceOnUse" x="-20" y="-14" width="400" height="95">
<path d="M-20 -13.6165H380V80.5012H-20V-13.6165Z" fill="white"/>
</mask>
<g mask="url(#mask45_528_717)">
<path d="M360.72 32.6809L354.535 10.0071C354.506 9.90271 354.412 9.8302 354.303 9.8302H351.079C350.971 9.8302 350.876 9.90271 350.848 10.0071L344.662 32.6809C344.642 32.7531 344.658 32.8304 344.703 32.89C344.748 32.9492 344.819 32.9843 344.894 32.9843H349.264C349.375 32.9843 349.471 32.909 349.497 32.8019L350.288 29.6085H355.14L355.885 32.7989C355.91 32.9073 356.007 32.9843 356.118 32.9843H360.489C360.564 32.9843 360.634 32.9492 360.68 32.89C360.725 32.8304 360.74 32.7531 360.72 32.6809ZM353.928 24.4793H351.578L352.791 19.6778L353.928 24.4793Z" fill="#2062AF"/>
</g>
<mask id="mask46_528_717" style="mask-type:luminance" maskUnits="userSpaceOnUse" x="-20" y="-14" width="400" height="95">
<path d="M-20 -13.6165H380V80.5012H-20V-13.6165Z" fill="white"/>
</mask>
<g mask="url(#mask46_528_717)">
<path fill-rule="evenodd" clip-rule="evenodd" d="M30.2734 62.4383C28.5567 59.6399 24.5543 58.1544 19.92 56.4345C16.404 55.1298 12.4189 53.651 8.95577 51.3496C4.97034 48.7013 2.28254 45.3677 0.738882 41.158L0.690063 41.025L0.798107 40.9331C10.9185 32.3239 12.5082 21.0933 4.94713 11.6234L4.86213 11.517L4.92824 11.3979C6.59178 8.39975 9.08398 5.6905 12.3357 3.34557L12.4674 3.25049L12.5892 3.35805C14.853 5.35613 18.9611 6.59743 23.3103 6.59743C26.0972 6.59743 28.6627 6.06762 30.3491 5.14389L30.4468 5.09026L30.5447 5.14405C32.2288 6.06762 34.793 6.59743 37.5795 6.59743C41.9293 6.59743 46.0352 5.35613 48.2952 3.35821L48.4172 3.25049L48.5489 3.34541C51.8007 5.68618 54.2947 8.39527 55.9616 11.3977L56.0277 11.517L55.9427 11.6234C48.3813 21.0925 49.9712 32.3234 60.0921 40.9331L60.2 41.025L60.1513 41.158C58.6076 45.3675 55.92 48.701 51.935 51.3492C48.4722 53.6505 44.4874 55.1293 40.9718 56.4343C36.3378 58.1542 32.3355 59.6398 30.6203 62.4383L30.4469 62.7213L30.2734 62.4383Z" fill="#FFC92B"/>
</g>
<mask id="mask47_528_717" style="mask-type:luminance" maskUnits="userSpaceOnUse" x="-20" y="-14" width="400" height="95">
<path d="M-20 -13.6165H380V80.5012H-20V-13.6165Z" fill="white"/>
</mask>
<g mask="url(#mask47_528_717)">
<path d="M30.4478 62.6574C30.3336 62.6574 30.2269 62.5981 30.1691 62.5022C28.4747 59.7385 24.491 58.2605 19.8783 56.5489C12.8513 53.9418 4.10618 50.6975 0.62287 41.1991C0.576131 41.0714 0.613586 40.9305 0.718108 40.8401C10.7834 32.2763 12.3664 21.1099 4.85048 11.6979C4.76853 11.5949 4.75668 11.4544 4.81991 11.3398C6.49386 8.32387 8.99854 5.60086 12.2645 3.24616C12.3203 3.20582 12.3865 3.18469 12.4553 3.18469C12.5347 3.18469 12.611 3.2135 12.6701 3.26569C14.9568 5.28409 18.9177 6.48905 23.265 6.48905C26.046 6.48905 28.607 5.96052 30.2917 5.03888C30.3405 5.01278 30.394 4.99934 30.4476 4.99934C30.502 4.99934 30.5558 5.01326 30.6032 5.03936C32.2701 5.95284 34.8073 6.47673 37.5642 6.47673C38.1942 6.47673 38.8364 6.44968 39.473 6.39638C43.1245 6.08809 46.3111 4.94684 48.2149 3.26569C48.2733 3.21366 48.3496 3.18469 48.429 3.18469C48.4967 3.18469 48.5622 3.20518 48.6182 3.24424C51.8835 5.59446 54.3895 8.31763 56.0686 11.3395C56.1344 11.4538 56.1219 11.5957 56.0362 11.6996C48.5232 21.1104 50.1068 32.2767 60.1707 40.8393C60.277 40.9324 60.3138 41.0738 60.2656 41.2005C56.7839 50.6976 48.0404 53.9418 41.0149 56.5484C36.4029 58.259 32.4198 59.7368 30.726 62.503C30.664 62.6005 30.5603 62.6574 30.4478 62.6574ZM1.31307 41.1866C4.741 50.2395 12.9007 53.2665 20.1027 55.9381L20.1199 55.9447C24.6213 57.6164 28.5206 59.0646 30.4476 61.7462C32.3724 59.0653 36.2701 57.617 40.769 55.9453L40.7897 55.9378C47.9906 53.2662 56.1489 50.2394 59.5772 41.1866C49.4429 32.4543 47.8422 21.0802 55.3941 11.4658C53.7993 8.66657 51.4621 6.13019 48.4454 3.92467C46.0326 5.93283 41.9957 7.12915 37.6164 7.12915C34.8149 7.12915 32.208 6.60558 30.4476 5.69114C28.6872 6.60382 26.0796 7.12659 23.2767 7.12675H23.2753C18.8926 7.12675 14.8535 5.93139 12.4396 3.92467C9.42255 6.13403 7.08722 8.67025 5.49586 11.4656C13.0482 21.0797 11.4475 32.4538 1.31307 41.1866Z" fill="#2062AF"/>
</g>
<mask id="mask48_528_717" style="mask-type:luminance" maskUnits="userSpaceOnUse" x="-20" y="-14" width="400" height="95">
<path d="M-20 -13.6165H380V80.5012H-20V-13.6165Z" fill="white"/>
</mask>
<g mask="url(#mask48_528_717)">
<path d="M48.429 3.32022C48.4676 3.32022 48.5068 3.33207 48.5407 3.3556C51.7915 5.69525 54.2824 8.40418 55.9499 11.4054C55.9882 11.472 55.9808 11.5534 55.9317 11.6131C48.3661 21.0896 49.9568 32.3272 60.0828 40.9425C60.1441 40.9963 60.1668 41.0782 60.1386 41.1523C56.6787 50.5906 47.9666 53.8243 40.9676 56.4211C36.3304 58.1414 32.3266 59.6293 30.6102 62.4322C30.5742 62.4887 30.5129 62.5218 30.4476 62.5218C30.3823 62.5218 30.3194 62.4887 30.2853 62.4322C28.567 59.63 24.5627 58.1423 19.9253 56.4216C12.9254 53.8246 4.21164 50.5911 0.7501 41.1523C0.723049 41.0782 0.744978 40.9963 0.806922 40.9425C10.9329 32.3272 12.5241 21.09 4.95642 11.6131C4.90888 11.5534 4.90184 11.472 4.93866 11.4054C6.60188 8.40866 9.0928 5.70005 12.3437 3.35624C12.377 3.33223 12.4162 3.32038 12.4553 3.32038C12.5001 3.32038 12.5449 3.33623 12.5801 3.36728C15.0922 5.58449 19.3311 6.62474 23.265 6.62474C26.0055 6.62474 28.5972 6.12054 30.3568 5.15792C30.3853 5.14271 30.4165 5.13503 30.4476 5.13503C30.4786 5.13503 30.5097 5.14271 30.5377 5.15808C32.2523 6.09781 34.7914 6.61242 37.5642 6.61242C38.1945 6.61242 38.8364 6.58585 39.4842 6.53159C43.1655 6.22074 46.3786 5.06812 48.3046 3.36728C48.3397 3.33607 48.384 3.32022 48.429 3.32022ZM37.6167 6.99337C34.8586 6.99337 32.2465 6.49317 30.4477 5.53791C28.6486 6.49157 26.0357 6.99097 23.2767 6.99097C19.3058 6.99097 15.0323 5.95664 12.4457 3.75239C9.33817 6.01202 6.9473 8.61258 5.33305 11.4782C12.9273 21.078 11.3271 32.4264 1.15282 41.1454C4.58235 50.324 12.8008 53.374 20.0556 56.0653C24.6232 57.7618 28.5849 59.2306 30.4477 61.9834C32.309 59.2306 36.2702 57.7618 40.837 56.0648C48.0911 53.3734 56.3083 50.323 59.7375 41.1454C49.5631 32.4264 47.9637 21.078 55.5571 11.4782C53.9394 8.60858 51.5466 6.00802 48.4394 3.75239C45.8537 5.95808 41.584 6.99337 37.6167 6.99337ZM48.429 3.04907C48.3162 3.04907 48.2078 3.09005 48.1239 3.16496C46.2425 4.82626 43.0846 5.95519 39.4613 6.26124C38.8287 6.31438 38.1904 6.34111 37.5642 6.34111C34.8293 6.34111 32.3158 5.8233 30.6681 4.92038C30.6012 4.88341 30.5249 4.86372 30.4476 4.86372C30.3715 4.86372 30.296 4.88277 30.2288 4.91878C28.5612 5.83099 26.0239 6.35343 23.265 6.35343C18.9497 6.35343 15.0225 5.16112 12.7597 3.164C12.6761 3.08989 12.5678 3.04907 12.4553 3.04907C12.3578 3.04907 12.2645 3.079 12.1856 3.13567C8.90264 5.50269 6.38483 8.24059 4.70144 11.2736C4.61117 11.4367 4.62797 11.6362 4.74402 11.7822C8.40964 16.3723 9.96691 21.4833 9.24822 26.563C8.52809 31.6512 5.54834 36.5522 0.631173 40.736C0.481994 40.865 0.429333 41.0646 0.495279 41.2453C4.00036 50.8031 12.7779 54.0594 19.831 56.676C24.4202 58.3787 28.3834 59.8496 30.054 62.574C30.135 62.7085 30.2862 62.793 30.4476 62.793C30.6068 62.793 30.7531 62.7126 30.8389 62.578C32.511 59.8475 36.4735 58.3776 41.0617 56.6755C48.1135 54.0591 56.8897 50.8031 60.3935 41.2456C60.461 41.0688 60.4096 40.8684 60.2617 40.7385C55.3415 36.5522 52.3618 31.6514 51.6415 26.5626C50.9225 21.4832 52.4794 16.3722 56.1436 11.7825C56.2629 11.6379 56.2801 11.4355 56.1851 11.2701C54.4983 8.23419 51.9791 5.49613 48.6992 3.13551C48.6166 3.07804 48.5242 3.04907 48.429 3.04907ZM37.6167 7.26468C41.9776 7.26468 46.005 6.08357 48.4503 4.09637C51.3822 6.25516 53.6621 8.72879 55.2311 11.454C47.7111 21.0936 49.3105 32.4724 59.4166 41.2269C55.9906 50.153 47.8925 53.1578 40.7426 55.8103L40.7214 55.8183C36.2854 57.4667 32.4312 58.8988 30.4477 61.5177C28.462 58.8983 24.606 57.466 20.1678 55.8175L20.15 55.811C12.9988 53.1579 4.89976 50.1532 1.47375 41.2269C11.5802 32.472 13.1794 21.0929 5.65894 11.4539C7.22469 8.73263 9.50304 6.25868 12.4351 4.09637C14.8814 6.08213 18.9118 7.26228 23.2767 7.26228C26.1092 7.26228 28.648 6.7592 30.4476 5.84347C32.2469 6.7608 34.7851 7.26468 37.6167 7.26468Z" fill="#2062AF"/>
</g>
<mask id="mask49_528_717" style="mask-type:luminance" maskUnits="userSpaceOnUse" x="-20" y="-14" width="400" height="95">
<path d="M-20 -13.6165H380V80.5012H-20V-13.6165Z" fill="white"/>
</mask>
<g mask="url(#mask49_528_717)">
<path fill-rule="evenodd" clip-rule="evenodd" d="M23.9824 8.49974H22.6012C19.0607 8.34944 15.3845 7.62611 12.4581 5.7207C10.412 7.36152 8.6412 9.22498 7.28625 11.3823C8.51026 12.9881 9.43095 14.7573 10.2218 16.5662L10.9524 18.6528L11.4417 20.7573L11.6979 22.8676L11.7168 24.9756L11.5084 27.0696L11.1004 29.0153H29.4404V7.63171C27.7058 8.21098 25.7949 8.42499 23.9824 8.49974Z" fill="#2062AF"/>
</g>
<mask id="mask50_528_717" style="mask-type:luminance" maskUnits="userSpaceOnUse" x="-20" y="-14" width="400" height="95">
<path d="M-20 -13.6165H380V80.5012H-20V-13.6165Z" fill="white"/>
</mask>
<g mask="url(#mask50_528_717)">
<path fill-rule="evenodd" clip-rule="evenodd" d="M31.4255 58.7512C33.1926 57.4443 35.3044 56.559 37.3729 55.726C39.5688 54.8778 41.7852 54.0757 43.977 53.2101L46.194 52.2612C47.2871 51.7428 48.3441 51.2045 49.3937 50.6174L51.393 49.3236L53.2475 47.8408L54.1082 47.0174L54.9228 46.1269L55.6901 45.1728C56.4936 44.0095 57.2394 42.8375 57.7634 41.5408C56.2238 40.1831 54.8933 38.6296 53.6696 37.0358L52.3886 35.1382L51.313 33.1827L50.4429 31.184L50.3296 30.8295H31.4255V58.7512Z" fill="#2062AF"/>
</g>
<mask id="mask51_528_717" style="mask-type:luminance" maskUnits="userSpaceOnUse" x="-20" y="-14" width="400" height="95">
<path d="M-20 -13.6165H380V80.5012H-20V-13.6165Z" fill="white"/>
</mask>
<g mask="url(#mask51_528_717)">
<path d="M48.3667 5.7218C45.2506 7.74645 41.2754 8.45906 37.5179 8.51316L36.1418 8.4725C34.5477 8.3579 32.8895 8.14197 31.3706 7.63393V29.0362H49.7242L49.317 27.0891L49.1075 24.9916L49.1264 22.8821L49.3813 20.7704L49.8719 18.6639L50.6052 16.5759C51.3961 14.763 52.3187 12.9953 53.5416 11.3877C52.1847 9.23089 50.4104 7.36198 48.3667 5.7218Z" fill="#ED1B35"/>
</g>
<mask id="mask52_528_717" style="mask-type:luminance" maskUnits="userSpaceOnUse" x="-20" y="-14" width="400" height="95">
<path d="M-20 -13.6165H380V80.5012H-20V-13.6165Z" fill="white"/>
</mask>
<g mask="url(#mask52_528_717)">
<path fill-rule="evenodd" clip-rule="evenodd" d="M29.4404 30.8293H10.5343L10.4212 31.184L9.55281 33.1826L8.47734 35.1392L7.19427 37.0357C5.96658 38.6294 4.63837 40.1832 3.10095 41.5407C3.62836 42.8375 4.3717 44.0095 5.17362 45.1727L5.93953 46.1268L6.75217 47.0174L7.61828 47.8406L9.46926 49.3235C10.4649 49.9999 11.4545 50.6086 12.5148 51.2005L14.6688 52.2613C17.5629 53.5357 20.5366 54.5856 23.4928 55.7259C25.5629 56.5588 27.6732 57.4442 29.4404 58.7511V30.8293Z" fill="#ED1B35"/>
</g>
<mask id="mask53_528_717" style="mask-type:luminance" maskUnits="userSpaceOnUse" x="-20" y="-14" width="400" height="95">
<path d="M-20 -13.6165H380V80.5012H-20V-13.6165Z" fill="white"/>
</mask>
<g mask="url(#mask53_528_717)">
<path fill-rule="evenodd" clip-rule="evenodd" d="M26.3025 12.5655L25.1862 11.8657L25.534 11.3572L26.6392 12.0348L26.3025 12.5655ZM18.3441 11.4832L16.947 11.3824L13.4717 13.387L13.0447 14.6182L13.4591 15.1595L18.7594 11.8931L18.3441 11.4832ZM16.059 14.4509L17.2209 13.7255L16.8704 13.2633L15.732 13.9667L16.059 14.4509ZM19.4426 14.3062L19.6929 13.1876L19.2798 12.6472L14.1406 15.8501L14.6448 16.4069L15.9911 16.4706L19.4426 14.3062ZM21.5293 19.4856L24.5672 15.055L23.4272 14.2787L20.577 18.2198L18.337 15.2104L17.1314 15.9685L19.7166 19.7105L14.8531 26.5433L16.4537 27.4411L20.6375 21.4819L24.3334 26.8228C25.1737 28.0412 27.0426 27.225 26.1161 25.9245L21.5293 19.4856ZM28.2043 15.5429L26.9659 13.202L23.469 11.0192C23.4562 10.9683 21.8267 12.9154 21.8267 12.9154L25.4684 15.408L28.2043 15.5429Z" fill="white"/>
</g>
<mask id="mask54_528_717" style="mask-type:luminance" maskUnits="userSpaceOnUse" x="-20" y="-14" width="400" height="95">
<path d="M-20 -13.6165H380V80.5012H-20V-13.6165Z" fill="white"/>
</mask>
<g mask="url(#mask54_528_717)">
<path d="M35.4459 43.9592C34.8621 43.9592 34.3784 43.5236 34.3784 42.9865C34.3784 42.4491 34.8621 42.0104 35.4459 42.0104C36.0352 42.0104 36.5122 42.4491 36.5122 42.9865C36.5122 43.5236 36.0352 43.9592 35.4459 43.9592ZM35.3228 33.9528L33.5897 37.0812L33.5614 37.1598L33.5465 37.2386V37.3116L33.5665 37.3846L33.601 37.4537L33.6475 37.5179L33.7093 37.571L33.7785 37.6126L33.8614 37.6421L33.9453 37.6547L34.0253 37.6511L34.108 37.6347L34.1825 37.6035L34.2479 37.5635L34.3129 37.5076L34.3601 37.4348L36.0898 34.31L36.1224 34.2335L36.132 34.1541V34.0795L36.1152 34.0085L36.0803 33.9368L36.0352 33.8729L35.9787 33.8199L35.8996 33.7804L35.8214 33.7513L35.7412 33.7375L35.6533 33.7418L35.5752 33.7578L35.4984 33.7873L35.43 33.8308L35.3682 33.8838L35.3228 33.9528ZM35.3682 33.3144L35.3828 33.2367V33.1601L35.3647 33.0875L35.332 33.0158L35.2843 32.9562L35.2234 32.9032L35.1451 32.8607L35.0654 32.8322L34.985 32.8187L34.8988 32.8226L34.8242 32.8397L34.742 32.8682L34.6756 32.9128L34.6209 32.9668L34.5719 33.0361L32.3316 37.0756L32.3046 37.1521L32.2916 37.2315V37.3061L32.3097 37.3786L32.3428 37.4462L32.3883 37.5105L32.4528 37.5635L32.5218 37.6056L32.602 37.6347L32.6883 37.6472L32.7683 37.6431L32.8483 37.6272L32.9274 37.5986L32.9986 37.555L33.0534 37.5001L33.1008 37.4281L35.3356 33.3884L35.3682 33.3144ZM36.0715 34.8243L34.7947 37.1377L34.7627 37.2157L34.7472 37.2932V37.3692L34.7667 37.4422L34.8024 37.5124L34.8478 37.5741L34.9096 37.6272L34.9794 37.6691L35.0617 37.701L35.1451 37.7135L35.227 37.7093L35.3084 37.6908L35.3828 37.6602L35.4553 37.6186L35.5132 37.5635L35.5585 37.494L36.839 35.1797L36.8741 35.1003L36.8885 35.0263L36.8851 34.9511L36.8651 34.8752L36.8352 34.8064L36.7877 34.7448L36.7278 34.6918L36.6548 34.6475L36.5684 34.618L36.4879 34.6076L36.4046 34.6082L36.3219 34.6239L36.2526 34.655L36.1815 34.7011L36.1224 34.7553L36.0715 34.8243ZM34.2447 43.912C33.6586 43.912 33.1782 44.3507 33.1782 44.8855C33.1782 45.4266 33.6586 45.8646 34.2447 45.8646C34.835 45.8646 35.312 45.4266 35.312 44.8855C35.312 44.3507 34.835 43.912 34.2447 43.912ZM42.0136 41.0532L42.0008 41.1294V41.2072L42.0171 41.2781L42.0517 41.3473L42.0973 41.4087L42.1591 41.4657L42.2308 41.5067L42.311 41.5352L42.3945 41.5461H42.4773L42.5572 41.5302L42.6338 41.5006L42.7004 41.4551L42.7624 41.3998L42.8075 41.3301L44.5437 38.2034L44.5748 38.1242L44.5837 38.0495V37.9744L44.5658 37.8992L44.532 37.83L44.4831 37.7698L44.4285 37.7168L44.3521 37.6706L44.2708 37.6421L44.1909 37.6304L44.1072 37.6347L44.0243 37.649L43.9478 37.6802L43.8841 37.7248L43.8182 37.7773L43.7722 37.85L42.0405 40.9769L42.0136 41.0532ZM41.5529 40.3276L41.9896 40.553L43.3605 38.0738L42.8999 37.8846L41.5529 40.3276ZM46.6667 38.0128L48.5101 38.7184L48.4512 39.9054L49.147 40.1921L48.9924 38.4554L46.5857 37.555L44.9218 38.4499L45.6174 38.7384L46.6667 38.0128ZM35.5929 41.0532C35.5929 41.5862 36.0715 42.0264 36.6622 42.0264C37.2482 42.0264 37.7287 41.5862 37.7287 41.0532C37.7287 40.516 37.2482 40.0778 36.6622 40.0778C36.0715 40.0778 35.5929 40.516 35.5929 41.0532ZM40.4182 39.7426L41.7226 37.3881L36.9685 35.4331L35.8761 37.4062L40.4182 39.7426ZM36.6473 43.912C36.0626 43.912 35.5821 44.3507 35.5821 44.8855C35.5821 45.4266 36.0626 45.8646 36.6473 45.8646C37.239 45.8646 37.7176 45.4266 37.7176 44.8855C37.7176 44.3507 37.239 43.912 36.6473 43.912ZM50.3737 40.6145L50.3881 40.5378L50.3827 40.4621L50.3643 40.3882L50.3294 40.3211L50.2819 40.259L50.2257 40.2031L50.1511 40.1615L50.068 40.1319L49.988 40.1199L49.9043 40.1234L49.8215 40.1394L49.7473 40.1709L49.6815 40.2102L49.617 40.2681L49.5697 40.3369L47.6768 43.7649L47.644 43.8411L47.6314 43.9156L47.6349 43.9933L47.6493 44.0674L47.6824 44.1349L47.7298 44.1977L47.7914 44.2523L47.8635 44.2939L47.9468 44.3238L48.0288 44.3361L48.1098 44.3321L48.1898 44.3161L48.2667 44.2873L48.3364 44.2439L48.3946 44.186L48.44 44.1172L50.339 40.6915L50.3737 40.6145ZM51.806 41.2888L51.8207 41.2147L51.8167 41.1369L51.797 41.0636L51.7642 40.9969L51.7141 40.9319L51.6541 40.8773L51.5829 40.836L51.5009 40.8088L51.4199 40.796L51.3364 40.7994L51.2536 40.8139L51.1793 40.8448L51.1099 40.8864L51.0529 40.941L51.0034 41.0129L49.1105 44.4373L49.0761 44.5151L49.0633 44.5921V44.6687L49.0817 44.7425L49.1144 44.8096L49.1613 44.8715L49.2261 44.9284L49.2956 44.9689L49.3737 44.9985L49.4636 45.0105L49.5422 45.0089L49.6221 44.9918L49.6997 44.9633L49.7706 44.9197L49.8268 44.8619L49.8751 44.791L51.7732 41.3652L51.806 41.2888ZM50.4301 40.9823L48.7603 44.0005L48.9833 44.113L50.6622 41.0772L50.4301 40.9823ZM38.9465 42.9208C38.9465 42.4165 38.5016 42.0069 37.9517 42.0069C37.4018 42.0069 36.9538 42.4165 36.9538 42.9208C36.9538 43.4202 37.4018 43.8307 37.9517 43.8307C38.5016 43.8307 38.9465 43.4202 38.9465 42.9208ZM54.6902 44.3035L54.6468 44.1349L54.5777 43.9819L54.4674 43.839L54.3307 43.7167L54.1626 43.6218L53.9835 43.5585L53.7935 43.5291L53.6077 43.5357L53.4226 43.5745L53.2527 43.6402L53.1009 43.7357L52.9698 43.863L52.8632 44.0125L52.7925 44.1785L52.7597 44.3526L52.7686 44.5245L52.8067 44.6896L52.8813 44.8459L52.9881 44.9868L53.1228 45.1064L53.2911 45.2043L53.4702 45.2658L53.6621 45.2948L53.8523 45.2914L54.0307 45.2533L54.2026 45.1877L54.3584 45.0864L54.4858 44.9653L54.5957 44.8125L54.6668 44.6446L54.6944 44.4755L54.6902 44.3035ZM52.8541 43.4407L52.8869 43.2723L52.912 43.1094L52.916 42.9474L52.9004 42.791L52.8813 42.6409L52.8432 42.4946L52.787 42.36L52.7267 42.2316L52.6442 42.1116L52.5565 42.005L52.452 41.9104L52.3371 41.8255L52.2084 41.7567L51.8732 41.6171L50.1453 44.7425L50.4664 44.9045L50.6058 44.9593L50.7478 44.9964L50.8906 45.0134L51.0369 45.0174L51.1897 45.005L51.3397 44.9778L51.491 44.9359L51.6434 44.8739L51.7933 44.804L51.9332 44.7184L52.0763 44.6172L52.2084 44.5085L52.332 44.3817L52.452 44.2468L52.5602 44.0972L52.6531 43.939L52.7358 43.7754L52.8032 43.6072L52.8541 43.4407ZM40.982 40.7248L41.0535 40.6801L41.1105 40.6239L41.1581 40.5549L42.8883 37.4281L42.9252 37.3516L42.9378 37.2755L42.9341 37.1978L42.9135 37.1246L42.884 37.0555L42.837 36.9924L42.7766 36.9383L42.7004 36.8964L42.6191 36.8698L42.5394 36.8568L42.4536 36.8583L42.3728 36.8747L42.2984 36.9037L42.2308 36.9479L42.1681 37.0073L42.1212 37.0748L40.3947 40.1998L40.3619 40.2811L40.3464 40.3531V40.4299L40.367 40.5055L40.4002 40.573L40.4471 40.6351L40.5074 40.6875L40.5802 40.7339L40.6647 40.7609L40.7448 40.7739L40.8277 40.7718L40.9077 40.7539L40.982 40.7248ZM44.6038 38.5721L43.1843 41.1334L47.5803 43.4151L49.2027 40.4834L44.6038 38.5721ZM39.0751 43.9955C38.4826 43.9955 38.0035 44.4327 38.0035 44.9698C38.0035 45.5072 38.4826 45.9441 39.0751 45.9441C39.6607 45.9441 40.1391 45.5072 40.1391 44.9698C40.1391 44.4327 39.6607 43.9955 39.0751 43.9955ZM44.4972 43.754L44.3939 43.6477L44.3036 43.5691L44.2143 43.514L44.1343 43.4732L44.0482 43.4478L43.9571 43.4351L43.8603 43.4297L43.7578 43.4351L43.6651 43.4478L43.5766 43.4713L43.4931 43.5107L43.4078 43.567L43.3116 43.6416L43.2134 43.7397L43.1073 43.8686L41.615 45.7356H46.0871L44.6076 43.8825L44.4972 43.754ZM46.6812 44.9213L44.6076 42.3236L44.4972 42.1954L44.3939 42.0904L44.3036 42.0125L44.2143 41.9574L44.1343 41.92L44.0482 41.896L43.9571 41.8782L43.8603 41.8732L43.7578 41.8782L43.6651 41.8939L43.5766 41.9179L43.4931 41.9555L43.4078 42.0104L43.3116 42.0871L43.2134 42.1863L43.1073 42.3116L41.0777 44.853L40.944 45.063L40.8933 45.2407L40.9023 45.3886L40.9589 45.5092L41.0535 45.6083L41.1726 45.6805L41.3064 45.7226L41.4014 45.732L42.9669 43.7754L43.0777 43.6402L43.1901 43.531L43.297 43.4407L43.4078 43.3737L43.5168 43.3282L43.6266 43.2952L43.7394 43.2799L43.8603 43.2704L43.9717 43.2799L44.0872 43.2972L44.2001 43.3282L44.3036 43.3773L44.4138 43.4468L44.518 43.5357L44.6313 43.6487L44.7438 43.787L46.3011 45.7356H46.4205L46.5295 45.7261L46.6446 45.6935L46.752 45.6411L46.8322 45.5632L46.8859 45.4657L46.8967 45.33L46.8322 45.1528L46.6812 44.9213Z" fill="white"/>
</g>
<mask id="mask55_528_717" style="mask-type:luminance" maskUnits="userSpaceOnUse" x="-20" y="-14" width="400" height="95">
<path d="M-20 -13.6165H380V80.5012H-20V-13.6165Z" fill="white"/>
</mask>
<g mask="url(#mask55_528_717)">
<path fill-rule="evenodd" clip-rule="evenodd" d="M18.0795 43.9594L10.6455 44.9102L12.3572 34.2611C14.4973 32.7024 16.1632 32.3756 18.0848 34.0249L18.0795 43.9594ZM18.8197 43.9594V34.0249C20.6977 32.4306 22.2652 32.7784 24.4373 34.2611L26.1506 44.9102L18.8197 43.9594Z" fill="white"/>
</g>
<mask id="mask56_528_717" style="mask-type:luminance" maskUnits="userSpaceOnUse" x="-20" y="-14" width="400" height="95">
<path d="M-20 -13.6165H380V80.5012H-20V-13.6165Z" fill="white"/>
</mask>
<g mask="url(#mask56_528_717)">
<path fill-rule="evenodd" clip-rule="evenodd" d="M25.8973 34.9037C23.6029 32.6459 20.8511 31.6381 18.4119 33.742C15.9678 31.6381 13.2162 32.6459 10.9196 34.9037L8.74768 46.5601L16.5707 45.3761C16.9322 45.9517 17.5498 46.2417 18.4119 46.2526C19.2764 46.2417 19.8888 45.9517 20.2536 45.3761L28.0769 46.5601L25.8973 34.9037ZM18.0796 43.9593L10.6456 44.9101L12.3573 34.2611C14.4973 32.7024 16.1633 32.3755 18.0849 34.0248L18.0796 43.9593ZM18.8197 43.9593V34.0248C20.6977 32.4306 22.2652 32.7784 24.4373 34.2611L26.1506 44.9101L18.8197 43.9593Z" fill="#2062AF"/>
</g>
<mask id="mask57_528_717" style="mask-type:luminance" maskUnits="userSpaceOnUse" x="-20" y="-14" width="400" height="95">
<path d="M-20 -13.6165H380V80.5012H-20V-13.6165Z" fill="white"/>
</mask>
<g mask="url(#mask57_528_717)">
<path d="M39.5968 18.9214C39.435 18.7245 39.335 18.4951 39.335 18.2648C39.335 17.9709 39.435 17.7737 39.6293 17.5767C39.7937 17.412 40.0232 17.3143 40.2853 17.3143C40.5473 17.3143 40.7767 17.412 40.9739 17.6092C41.1391 17.7737 41.2361 18.0037 41.2361 18.2648C41.2361 18.5273 41.1391 18.7567 40.9412 18.9539C40.7445 19.1186 40.515 19.2159 40.2853 19.2159C39.9912 19.2159 39.7937 19.1186 39.5968 18.9214ZM46.6995 22.9753C47.8227 25.0387 48.0852 26.2949 47.5 26.8058C47.3324 26.9543 47.1285 27.0331 46.8793 27.0331C46.231 27.0331 45.2825 26.5126 43.8947 25.4245C42.8217 24.5724 41.6945 23.5285 40.5428 22.315L40.5236 22.2979C40.4898 22.2675 40.4577 22.2371 40.4274 22.2065C40.3571 22.2861 40.284 22.3698 40.2153 22.4469C39.0206 23.7856 37.9053 24.9041 36.8058 25.8661C35.3507 27.0683 34.3411 27.6426 33.6557 27.6426C33.4309 27.6426 33.2405 27.5816 33.0805 27.4609C32.4104 26.9379 32.6181 25.7002 33.7515 23.4421C34.3218 22.2906 35.0328 21.0757 35.9259 19.7307C35.9437 19.7044 35.96 19.6818 35.9768 19.6572C35.758 19.6119 35.5405 19.5728 35.3289 19.5346L35.1752 19.5088C33.5471 19.1664 32.8404 18.7517 32.8762 18.1665C32.8862 17.6031 33.6271 17.1996 35.2005 16.898C35.4509 16.8489 35.7126 16.8104 35.9791 16.7755C35.1115 15.5256 34.4561 14.4834 33.9349 13.5179C32.8092 11.4502 32.551 10.2349 33.1226 9.69128C33.1274 9.68696 33.1325 9.68263 33.1378 9.67879C33.7539 9.16787 34.9326 9.62181 36.7395 11.0657C37.8216 11.9189 38.8439 12.8605 39.8661 13.9431C39.9683 14.0493 40.0666 14.1551 40.1687 14.2629C40.1899 14.2408 40.2153 14.2176 40.2454 14.1963C41.4867 12.7832 42.6661 11.6138 43.7503 10.7195C45.6184 9.11937 46.7922 8.60476 47.4424 9.10112C48.0959 9.63749 47.8952 10.8724 46.8005 13.1139C46.1979 14.2995 45.4401 15.5576 44.5539 16.8687C44.8529 16.9167 45.1248 16.9662 45.4139 17.0368C46.9904 17.3758 47.6958 17.7867 47.6958 18.3642C47.6958 18.9258 46.9912 19.2986 45.3403 19.6176C45.1299 19.6573 44.9014 19.6969 44.6697 19.7372C45.4901 20.8705 46.1718 21.9584 46.6995 22.9753ZM44.1955 17.3873C44.1022 17.5242 44.0064 17.6581 43.9098 17.7958C43.7996 17.9571 43.6873 18.114 43.5725 18.2713C43.7673 18.5236 43.9578 18.7756 44.1425 19.0222L44.1596 19.0453C44.2043 19.1069 44.2462 19.1645 44.2912 19.2229C44.3074 19.221 44.3245 19.2196 44.3399 19.2178L44.4498 19.1989C44.7203 19.1523 44.9886 19.1061 45.2335 19.0569C47.0747 18.7048 47.1282 18.3674 47.1282 18.3642C47.1282 18.3487 47.1075 17.9837 45.29 17.5904C44.9598 17.5138 44.6585 17.4616 44.305 17.4035C44.304 17.4035 44.3032 17.4033 44.3022 17.403C44.2646 17.3972 44.2309 17.3928 44.1955 17.3873ZM41.4344 20.138L41.5458 19.9904C41.1283 19.9976 40.6998 19.9983 40.2545 19.9983C39.9816 19.985 39.7308 19.9784 39.4829 19.9719C39.3809 19.9693 39.2834 19.964 39.1839 19.9616C39.6013 20.4441 40.0162 20.9009 40.4204 21.3455C40.7568 20.9531 41.0998 20.5423 41.4344 20.138ZM40.1403 15.1704C39.7857 15.565 39.4147 16.01 38.9923 16.5444C39.4313 16.5315 39.8709 16.5266 40.3275 16.5435H40.3346C40.7102 16.5435 41.0858 16.5534 41.4469 16.571C41.0441 16.0788 40.6209 15.5922 40.1838 15.1114C40.1779 15.1224 40.172 15.1301 40.1657 15.1384C40.162 15.1439 40.158 15.149 40.154 15.1541C40.1495 15.1597 40.1454 15.1655 40.1403 15.1704ZM43.4453 17.4691C43.4853 17.4108 43.5226 17.3555 43.5619 17.2993C43.29 17.2673 43.0222 17.2399 42.7562 17.2216C42.8929 17.3892 43.0304 17.5656 43.1627 17.7483C43.1784 17.7678 43.1928 17.787 43.2082 17.8065C43.2858 17.698 43.3643 17.5858 43.4401 17.476C43.4416 17.4741 43.443 17.4715 43.4446 17.4696C43.4446 17.4696 43.4449 17.4693 43.4453 17.4691ZM37.7896 17.1655C37.5224 17.1834 37.2665 17.2047 37.0134 17.2314C37.1311 17.3838 37.249 17.5419 37.3744 17.7047C37.5061 17.5242 37.6461 17.3441 37.7896 17.1655ZM37.3852 18.6606C37.2516 18.8297 37.1118 19.0182 36.9617 19.2236C37.2716 19.2586 37.589 19.2889 37.9082 19.3183C37.7273 19.0955 37.5535 18.8769 37.3852 18.6606ZM38.6859 19.3742C38.7048 19.3758 38.7223 19.3769 38.741 19.3779C38.9918 19.3915 39.2429 19.3977 39.4979 19.4044C39.7499 19.4107 40.0058 19.4177 40.2691 19.431C40.8645 19.4305 41.4381 19.4296 41.9919 19.4115C42.1671 19.1933 42.3547 18.9516 42.5548 18.6806C42.5558 18.6792 42.5572 18.6778 42.5585 18.676V18.6757C42.5588 18.6752 42.5593 18.6747 42.5598 18.6742C42.6537 18.5495 42.7562 18.4188 42.857 18.2816C42.8104 18.2224 42.7655 18.1628 42.7179 18.1015C42.7155 18.0991 42.7136 18.0964 42.711 18.0935C42.7088 18.0905 42.7067 18.0874 42.7046 18.0842C42.4742 17.7652 42.2196 17.4585 41.9784 17.1725C41.46 17.1328 40.894 17.1106 40.3166 17.1106C39.7034 17.0883 39.1187 17.1043 38.5331 17.1279C38.5106 17.1586 38.4876 17.1892 38.4657 17.22C38.4247 17.2769 38.3868 17.33 38.3485 17.3788C38.3485 17.3788 38.3477 17.3793 38.3477 17.3798H38.3475L38.3472 17.3803C38.3461 17.3819 38.3447 17.3832 38.3432 17.3852C38.1271 17.6465 37.9229 17.9141 37.7299 18.1793C37.9932 18.5214 38.2784 18.8708 38.5731 19.2327L38.6859 19.3742ZM42.7522 19.3654C43.0488 19.3435 43.343 19.3196 43.6335 19.2903C43.4974 19.112 43.3615 18.9289 43.222 18.745C43.1507 18.8386 43.0786 18.9316 43.0116 19.0182C42.9233 19.1408 42.8354 19.2537 42.7522 19.3654ZM40.5571 14.6805C41.0334 15.1983 41.4934 15.7265 41.9301 16.2605C42.0343 16.3578 42.1315 16.4738 42.2283 16.5897C42.2381 16.6009 42.2483 16.6132 42.2581 16.6248C42.8154 16.6445 43.358 16.6922 43.9304 16.7741C44.8722 15.403 45.6653 14.0879 46.2925 12.8602C47.5386 10.3046 47.2644 9.69 47.0891 9.54658C46.9595 9.44686 46.3378 9.25062 44.1175 11.1525C43.0433 12.0404 41.8765 13.1997 40.6451 14.6016C40.6251 14.6248 40.6011 14.6445 40.5736 14.6624C40.5691 14.6672 40.5655 14.6713 40.5622 14.6754C40.5599 14.6774 40.559 14.6786 40.5571 14.6805ZM34.4346 13.2444C34.9806 14.2573 35.6748 15.3566 36.6184 16.6971C37.1227 16.6467 37.6599 16.5972 38.2459 16.5715C38.7981 15.864 39.266 15.2948 39.7073 14.7996C39.7347 14.7615 39.7617 14.7251 39.7888 14.6901C39.6799 14.5718 39.5688 14.4559 39.4584 14.3391C39.4573 14.3381 39.4563 14.3371 39.4549 14.3359C38.4493 13.2729 37.4469 12.3488 36.386 11.5117C34.687 10.1526 33.787 9.8968 33.507 10.1113C33.383 10.2424 33.1218 10.8324 34.4346 13.2444ZM35.4229 18.9747C35.6999 19.0209 35.9837 19.0688 36.2763 19.1387C36.2904 19.1408 36.3045 19.1423 36.319 19.1443C36.5649 18.7965 36.7956 18.486 37.0044 18.2219C37.0113 18.211 37.0192 18.2003 37.0269 18.1897C37.0134 18.1716 37 18.1543 36.9867 18.1337C36.7629 17.8433 36.5574 17.5701 36.3554 17.3001C35.9922 17.3435 35.6378 17.3907 35.3116 17.4581C33.5253 17.799 33.4462 18.1739 33.4462 18.1776C33.4462 18.1846 33.4461 18.1918 33.4457 18.1992C33.4451 18.2024 33.4397 18.5611 35.2838 18.9511L35.4229 18.9747ZM39.792 22.065C39.8758 21.9741 39.9611 21.877 40.0447 21.7792L40.0216 21.7542C39.4987 21.1796 38.9579 20.5817 38.4076 19.9319C38.4064 19.9307 38.4053 19.9295 38.4047 19.9283V19.928C38.4039 19.9274 38.4036 19.9267 38.4028 19.9263L38.401 19.924C37.78 19.8826 37.1842 19.8265 36.5972 19.7519C36.5745 19.7875 36.5521 19.8214 36.5294 19.8541C36.4884 19.9123 36.4471 19.9709 36.4058 20.0389C36.4053 20.0397 36.4047 20.0399 36.4047 20.0405V20.0409C36.4034 20.0428 36.4023 20.0439 36.4013 20.0457C35.5202 21.3686 34.8207 22.5638 34.2603 23.6962C33.0171 26.1751 33.2061 26.8359 33.4294 27.01C33.5994 27.1392 34.2365 27.2511 36.4388 25.4325C37.512 24.4914 38.6116 23.388 39.7905 22.0671C39.7913 22.0666 39.7916 22.0657 39.792 22.065ZM46.1979 23.2417C45.6409 22.1724 44.9127 21.0251 44.029 19.8253C43.4664 19.8832 42.8613 19.9274 42.2728 19.9688L41.8864 20.4849C41.8845 20.4874 41.8826 20.4897 41.881 20.4922H41.8805V20.4926C41.879 20.4948 41.8771 20.4969 41.8754 20.4988C41.5224 20.9228 41.1599 21.3561 40.8029 21.7737C40.8383 21.8086 40.8706 21.8443 40.9086 21.881L40.9436 21.913C42.0892 23.1166 43.1967 24.1431 44.2461 24.9777C46.3051 26.595 46.9339 26.5508 47.1245 26.3789C47.3689 26.1651 47.2694 25.2165 46.1979 23.2417Z" fill="white"/>
</g>
</g>
<defs>
<clipPath id="clip0_528_717">
<rect width="361" height="62" fill="white" transform="translate(0 0.383545)"/>
</clipPath>
</defs>
</svg>
